<ttFont>
          <CharString index="0">
            -105 callsubr
            rlineto
            -2 14 -7 52 50 vvcurveto
            return
          </CharString>
          <CharString index="1">
            40 474 rmoveto
            5 callsubr
            6 -20 1 -27 -54 callsubr
            -4 -46 -3 -63 callgsubr
            3 49 1 vhcurveto
            235 72 callgsubr
            -2 -13 -3 -15 -3 -11 rlinecurve
            -3 -8 -3 -12 -8 -16 rrcurveto
            -3 -15 -19 -2 -21 hhcurveto
            -89 hlineto
            15 -1 36 28 vvcurveto
            73 35 vlineto
            15 27 -5 0 hvcurveto
            7 -42 56 4 rlineto
            return
          </CharString>
          <CharString index="2">
            -72 callgsubr
            113 81 -5 0 vhcurveto
            5 76 -65 6 return
          </CharString>
          <CharString index="3">
            -10 callgsubr
            hstemhm
            79 149 196 126 hintmask 11011000
            hintmask 10111000
            -34 callgsubr
            hintmask 11011000
            -47 -28 -37 callgsubr
            hintmask 10111000
            44 -9 rlineto
            hintmask 11011000
            -95 callsubr
            hintmask 10111000
            -47 -24 -37 callgsubr
            hintmask 11011000
            -29 callgsubr
            hintmask 10111000
            -163 vlineto
            hintmask 11011000
            -79 callgsubr
            return
          </CharString>
          <CharString index="4">
            394 720 rmoveto
            -243 -124 -150 -218 -218 124 -149 243 90 79 18 16 69 hvcurveto
            177 vlineto
            50 9 95 0 vhcurveto
            -28 25 rlineto
            0 -82 -3 -33 vhcurveto
            -111 hlineto
            -5 -98 106 -8 rlineto
            0 10 -41 -20 vvcurveto
            -68 vlineto
            -8 -3 -16 -4 -18 vhcurveto
            -5 -33 -31 -3 -34 hhcurveto
            -134 -52 122 153 153 53 121 134 hvcurveto
            return
          </CharString>
          <CharString index="5">
            467 628 77 -73 72 -69 69 6 -20 hstemhm
            2 1022 -50 47 hintmask 01001000
            hintmask 01000100
            1024 637 rmoveto
            hintmask 00010100
            -5 73 rlineto
            0 -64 -5 -83 vhcurveto
            hintmask 01001000
            -47 -63 -49 callsubr
            -5 -70 rlineto
            hintmask 00011000
            64 -12 rlineto
            hintmask 10001000
            0 4 -16 -6 -22 vhcurveto
            -101 -383 -131 468 rlineto
            -113 hlineto
            -133 -468 -90 369 rlineto
            -6 26 2 26 0 vvcurveto
            hintmask 01001000
            65 9 -5 73 rlineto
            0 -95 -57 callsubr
            hintmask 00011000
            -37 -55 -49 callsubr
            -5 -70 rlineto
            hintmask 01001000
            60 -9 rlineto
            0 13 -23 10 -31 vhcurveto
            hintmask 00011000
            183 -577 rlineto
            hintmask 00101000
            115 hlineto
            134 423 128 -423 rlineto
            115 hlineto
            174 544 rlineto
            13 40 27 46 0 vvcurveto
            return
          </CharString>
          <CharString index="6">
            -149 -413 -32 -60 -28 -1 4 -66 rlineto
            0 24 4 85 43 47 -6 0 vhcurveto
            4 60 -40 10 3 18 7 32 rlineto
            133 hlineto
            8 -34 -5 -16 -40 -2 4 -66 rlineto
            0 55 4 127 28 30 -6 0 vhcurveto
            -267 360 rmoveto
            37 -164 rlineto
            -86 hlineto
            return
          </CharString>
          <CharString index="7">
            315 547 rmoveto
            -196 -100 -114 -165 -166 100 -113 196 71 62 13 12 53 hvcurveto
            148 vlineto
            38 7 68 0 vhcurveto
            -25 23 rlineto
            0 -76 -3 -30 vhcurveto
            -86 hlineto
            -4 -91 82 -6 rlineto
            0 8 -27 -15 vvcurveto
            -52 vlineto
            -5 -1 -7 -3 -10 vhcurveto
            -1 -20 -15 0 -23 hhcurveto
            -95 -31 86 108 108 32 86 95 hvcurveto
            return
          </CharString>
          <CharString index="8">
            1 -14 6 -1 callsubr
            -7 -46 -7 vvcurveto
            62 callsubr
            100 69 -49 callgsubr
            -2 11 -6 -70 callsubr
            46 4 rlineto
            return
          </CharString>
          <CharString index="9">
            246 473 63 -63 67 -31 -20 hstemhm
            6 793 -581 42 507 29 hintmask 10010000
            hintmask 10000100
            799 474 rmoveto
            hintmask 01000100
            -5 66 rlineto
            0 -31 -4 -84 vhcurveto
            hintmask 10000100
            -43 -49 6 0 hvcurveto
            -4 -60 44 -10 rlineto
            0 7 -4 -5 -15 vhcurveto
            -69 -271 -85 327 rlineto
            hintmask 00101000
            -111 hlineto
            -93 -327 -59 274 rlineto
            hintmask 10001000
            -1 9 7 7 0 vvcurveto
            45 2 -5 66 rlineto
            hintmask 01001000
            0 -62 -4 -122 -30 -34 6 0 vhcurveto
            hintmask 10000100
            -4 -60 44 -7 rlineto
            0 5 -9 6 -19 vhcurveto
            141 -447 rlineto
            110 hlineto
            96 287 83 -287 rlineto
            110 hlineto
            138 413 rlineto
            10 31 18 29 0 vvcurveto
            return
          </CharString>
          <CharString index="10">
            0 74 549 82 -79 84 -25 20 85 callsubr
            333 127 hintmask 10101100
            40 callgsubr
            -85 -5 -81 vhcurveto
            hintmask 10011100
            -100 5 rlineto
            hintmask 10101100
            -5 -75 rlineto
            hintmask 11001100
            -27 callgsubr
            2 -16 7 -58 -37 vvcurveto
            -282 vlineto
            -220 307 rlineto
            -15 22 -73 126 0 vvcurveto
            hintmask 10011100
            -19 20 rlineto
            -102 -15 callsubr
            hintmask 10101100
            -27 callgsubr
            hintmask 11001100
            2 -11 7 -50 -50 vvcurveto
            -349 vlineto
            -20 -7 -55 -2 -11 vhcurveto
            -66 -12 -87 callgsubr
            113 53 9 callgsubr
            10 -8 56 50 vvcurveto
            257 vlineto
            325 -450 rlineto
            return
          </CharString>
          <CharString index="11">
            11 -15 97 545 93 hstemhm
            51 91 -91 165 153 165 -125 90 hintmask 11011000
            hintmask 11101000
            59 226 rmoveto
            -15 -193 rlineto
            0 98 -48 135 144 113 82 137 vhcurveto
            hintmask 11011000
            230 -318 -22 134 vvcurveto
            51 40 30 60 vhcurveto
            hintmask 11010100
            36 23 -11 -12 22 hvcurveto
            7 -17 5 -13 -4 vvcurveto
            -74 vlineto
            83 -5 14 193 rlineto
            21 -70 -80 15 -70 hhcurveto
            -136 -99 -76 -123 hvcurveto
            hintmask 11011000
            -238 318 30 -147 vvcurveto
            -57 -47 -27 -57 vhcurveto
            hintmask 11101000
            -51 -36 17 11 -21 hvcurveto
            -7 17 -7 18 6 vvcurveto
            12 -1 58 0 vhcurveto
            return
          </CharString>
          <CharString index="12">
            2 -12 -2 callsubr
            -173 vlineto
            -65 -19 -34 -75 -65 -37 46 53 vhcurveto
            221 vlineto
            5 5 37 3 7 vhcurveto
            46 4 76 callsubr
            -75 0 callsubr
            return
          </CharString>
          <CharString index="13">
            75 -15 93 549 84 callsubr
            294 86 -68 79 hintmask 11110000
            hintmask 11101000
            594 191 rmoveto
            -75 -2 rlineto
            0 -2 -36 -1 -11 vhcurveto
            -8 -14 -34 -2 -7 vhcurveto
            -10 -45 -36 -5 -43 hhcurveto
            -123 -46 122 153 153 47 121 123 hvcurveto
            hintmask 11110000
            39 32 -5 -9 41 hvcurveto
            5 -13 7 -22 -6 vvcurveto
            3 -61 77 -4 12 179 rlineto
            16 -65 -65 18 -86 hhcurveto
            -232 -118 -150 -218 -218 118 -149 232 hvcurveto
            hintmask 11101000
            85 75 18 16 65 hvcurveto
            return
          </CharString>
          <CharString index="14">
            -47 -53 -88 callsubr
            return
          </CharString>
          <CharString index="15">
            2 -15 7 -46 -50 vvcurveto
            -252 vlineto
            -100 -36 -61 -105 -95 -51 71 90 vhcurveto
            282 vlineto
            20 6 50 3 11 vhcurveto
            66 6 70 callsubr
            -86 -57 callsubr
            return
          </CharString>
          <CharString index="16">
            2 -14 5 -33 -52 -7 callgsubr
            vhcurveto
            217 72 callgsubr
            -2 -13 -3 -15 -3 -11 rlinecurve
            -1 -5 -6 -14 -7 -17 rrcurveto
            -3 -13 -21 -2 -21 hhcurveto
            -63 hlineto
            -3 18 -4 28 33 vvcurveto
            256 -67 callgsubr
            return
          </CharString>
          <CharString index="17">
            150 0 63 -63 79 34 75 50 71 7 46 95 79 84 callgsubr
            11 203 49 194 125 56 12 58 -48 54 hintmask 0111010000010000
            hintmask 0111000010011000
            706 530 rmoveto
            -15 13 rlineto
            0 -72 -7 -16 vhcurveto
            hintmask 0111010000110000
            -267 hlineto
            -47 -24 -64 callgsubr
            hintmask 0111000100110000
            48 -9 rlineto
            hintmask 1011001001110000
            -218 -339 -7 -11 -20 -28 -19 -25 rlinecurve
            -36 -4 4 -62 rlineto
            0 33 4 47 65 54 -4 0 vhcurveto
            4 65 -48 4 rlineto
            15 7 6 13 1 hhcurveto
            13 20 rlineto
            173 hlineto
            2 -12 rlineto
            1 -6 -1 -28 -2 vvcurveto
            hintmask 0111010000110100
            -74 callsubr
            12 4 35 vhcurveto
            230 72 callgsubr
            -1 -13 -4 -15 -3 -11 rlinecurve
            -5 -7 -14 -7 -17 vhcurveto
            -3 -14 -19 -2 -22 hhcurveto
            -69 hlineto
            -14 76 -12 82 rlineto
            -7 0 1 1 hhcurveto
            54 hlineto
            16 27 -5 0 hvcurveto
            hintmask 0111010000010000
            7 -42 56 4 rlineto
            0 -3 66 38 vvcurveto
            15 1 46 0 vhcurveto
            hintmask 0110110000010000
            -54 4 -7 -48 rlineto
            7 callgsubr
            -76 hlineto
            hintmask 0111010000110000
            -2 -5 1 7 hhcurveto
            -16 102 -1 4 -1 29 -1 12 rlinecurve
            123 hlineto
            24 23 -2 -2 14 hvcurveto
            hintmask 0111010000011000
            1 -6 1 -5 1 -2 3 -11 1 -24 2 -12 61 4 rcurveline
            -479 -209 rmoveto
            108 177 16 -176 rlineto
            return
          </CharString>
          <CharString index="18">
            350 0 74 -74 87 97 83 52 79 220 87 -70 70 5 -20 25 -20 hstemhm
            733 8 callgsubr
            hintmask 0111100010000000
            hintmask 0111000111000000
            880 697 rmoveto
            -50 callsubr
            hintmask 0111100010000000
            -331 -15 callsubr
            hintmask 0111001010000000
            64 -12 rlineto
            hintmask 1011010010000000
            -263 -462 -8 -14 -28 -40 -24 -33 rlinecurve
            -51 -9 -87 callgsubr
            83 64 -5 0 vhcurveto
            5 76 -69 6 8 18 6 17 2 3 rlinecurve
            39 69 rlineto
            217 hlineto
            8 -52 rlineto
            2 -12 0 -32 -11 vvcurveto
            -67 -12 rlineto
            hintmask 0111100010100000
            5 -70 rlineto
            0 44 5 37 vhcurveto
            271 -91 callgsubr
            -1 -6 -9 -18 -9 -19 -13 callsubr
            -101 hlineto
            -20 106 -19 124 rlineto
            1 3 11 1 4 hhcurveto
            56 15 callsubr
            -81 hlineto
            -6 -16 1 1 -4 hvcurveto
            -22 142 -2 16 -3 42 -1 18 rlinecurve
            167 hlineto
            30 30 -3 -2 20 hvcurveto
            hintmask 0111100011000000
            34 callsubr
            3 -28 2 -16 72 5 rcurveline
            -597 -270 rmoveto
            123 221 2 -8 33 -211 rlineto
            return
          </CharString>
          <CharString index="19">
            -49 callsubr
            -5 -75 rlineto
            return
          </CharString>
          <CharString index="20">
            49 0 89 527 89 10 -20 hstemhm
            35 68 407 60 hintmask 11011000
            368 616 rmoveto
            -50 -100 -175 -279 rlineto
            -24 -41 -87 -116 0 vvcurveto
            10 -80 rlineto
            386 hlineto
            20 95 -4 0 hvcurveto
            20 18 15 184 -68 5 -2 -16 -7 -28 79 callsubr
            -20 -10 -21 rrcurveto
            -4 -21 -34 -4 -29 hhcurveto
            -157 hlineto
            64 123 156 252 107 161 -10 80 rlineto
            -379 hlineto
            -20 -95 10 0 hvcurveto
            hintmask 10111000
            -20 -18 -7 -185 72 -5 2 17 9 44 4 15 rlinecurve
            hintmask 11011000
            13 28 rlineto
            2 20 32 3 31 hhcurveto
            return
          </CharString>
          <CharString index="21">
            -12 5 -70 rlineto
            0 53 return
          </CharString>
          <CharString index="22">
            -107 -11 89 383 86 hstemhm
            38 154 -151 78 155 151 -106 78 hintmask 11100100
            hintmask 11011000
            47 186 rmoveto
            -12 -163 rlineto
            0 81 -34 104 116 89 69 106 vhcurveto
            hintmask 11101000
            -7 callsubr
            hintmask 11100100
            -70 callgsubr
            hintmask 11101000
            -190 236 29 -105 vvcurveto
            -33 -34 -13 -35 vhcurveto
            hintmask 11010100
            -40 -24 14 7 -10 hvcurveto
            -6 11 -6 8 2 vvcurveto
            8 -1 55 0 vhcurveto
            return
          </CharString>
          <CharString index="23">
            -31 callgsubr
            0 61 83 57 vvcurveto
            48 -24 28 -42 -31 -33 -22 -46 vhcurveto
            return
          </CharString>
          <CharString index="24">
            275 456 rmoveto
            -31 -66 -128 -202 rlineto
            -16 -29 -69 -89 0 vvcurveto
            9 -70 rlineto
            312 hlineto
            15 74 -3 0 hvcurveto
            16 14 11 149 -57 4 -2 -12 -4 -14 -3 -11 rlinecurve
            -1 -5 -7 -17 -8 -19 rrcurveto
            -3 -16 -25 -3 -22 hhcurveto
            -102 hlineto
            45 90 106 170 82 125 -9 71 rlineto
            -311 hlineto
            -15 -74 7 0 hvcurveto
            return
          </CharString>
          <CharString index="25">
            -171 98 -112 191 190 100 112 171 vhcurveto
            274 vlineto
            20 6 47 3 14 71 callgsubr
            return
          </CharString>
          <CharString index="26">
            77 hlineto
            23 22 -1 -2 15 hvcurveto
            1 -4 2 -8 -2 vvcurveto
            3 -11 2 -24 1 -12 61 4 rcurveline
            return
          </CharString>
          <CharString index="27">
            -52 -58 198 -143 198 143 -52 58 -67 -53 -10 -5 -37 -22 -32 -20 rlinecurve
            -32 19 -37 23 -10 5 rrcurveto
            return
          </CharString>
          <CharString index="28">
            -53 -11 85 388 85 hstemhm
            19 169 203 75 -61 69 hintmask 11101000
            -72 callsubr
            hintmask 11110000
            30 18 -2 -5 32 hvcurveto
            4 -7 5 -17 -3 vvcurveto
            4 -53 66 -3 10 149 rlineto
            13 -50 -52 13 -67 hhcurveto
            -188 -95 -114 -165 -166 95 -113 188 hvcurveto
            hintmask 11101000
            67 59 13 12 50 hvcurveto
            return
          </CharString>
          <CharString index="29">
            rmoveto
            -244 -309 55 -66 rlineto
            139 -9 hlineto
            -13 -6 -46 1 vvcurveto
            -65 -8 44 callgsubr
            44 3 34 80 62 -3 0 vhcurveto
            3 52 -44 4 rlineto
            -1 -7 26 28 vvcurveto
            14 65 75 vlineto
            -65 -4 rlineto
            88 vlineto
            -104 -35 rlineto
            -59 -88 vlineto
            131 170 rlineto
            10 15 70 65 0 vvcurveto
            endchar
          </CharString>
          <CharString index="30">
            46 74 callgsubr
            92 145 122 219 -210 243 hintmask 11010100
            613 61 rmoveto
            -28 4 -13 13 -15 13 -5 7 rlinecurve
            -51 61 -53 61 -52 61 rrcurveto
            hintmask 11011000
            98 134 13 15 17 16 19 19 rlinecurve
            37 4 rlineto
            hintmask 10111000
            -4 71 rlineto
            0 -46 -4 -98 vhcurveto
            hintmask 11011000
            -48 -23 -64 callgsubr
            hintmask 10111000
            15 -3 -17 -32 -117 -171 rlineto
            0 93 -125 17 -18 vhcurveto
            41 -64 rlineto
            hintmask 10110100
            -22 -3 3 -62 rlineto
            0 12 4 48 99 81 -4 0 vhcurveto
            -327 544 rmoveto
            0 -70 -4 -100 -48 -17 4 0 vhcurveto
            -4 -66 rlineto
            hintmask 11010100
            41 -9 rlineto
            -4 callgsubr
            hintmask 10110100
            -24 callgsubr
            -6 -46 -1 -7 vhcurveto
            -42 -31 callsubr
            0 17 4 48 99 66 -39 callgsubr
            -35 4 rlineto
            -1 11 -7 -70 callsubr
            43 4 rlineto
            endchar
          </CharString>
          <CharString index="31">
            36 callgsubr
            24 18 -6 -25 -25 -23 -8 -24 -20 -19 6 5 -16 vhcurveto
            -18 -49 rlineto
            -8 17 42 -10 37 hhcurveto
            63 51 26 63 54 -42 32 -59 1 hvcurveto
            return
          </CharString>
          <CharString index="32">
            61 -3 rlineto
            11 3 33 3 11 vhcurveto
            1 2 1 4 7 vvcurveto
            1 15 23 3 24 hhcurveto
            29 hlineto
            2 -12 5 -34 -51 vvcurveto
            -231 vlineto
            -100 callgsubr
            256 vlineto
            7 5 31 3 11 vhcurveto
            34 hlineto
            24 20 -3 -1 12 hvcurveto
            1 -7 1 -4 1 -2 rrcurveto
            3 -11 3 -33 -11 vvcurveto
            return
          </CharString>
          <CharString index="33">
            -45 -31 callsubr
            0 return
          </CharString>
          <CharString index="34">
            hintmask 11010000
            756 71 rmoveto
            -48 6 -20 18 -25 22 -10 12 rlinecurve
            -67 80 -70 81 -68 80 129 176 rcurveline
            21 23 30 30 25 24 58 6 rcurveline
            hintmask 10110000
            70 callsubr
            -55 -5 -111 vhcurveto
            hintmask 11010000
            -48 -49 -88 callsubr
            hintmask 10110000
            31 -6 -28 -52 -162 -224 rlineto
            0 129 -165 21 -24 vhcurveto
            14 -19 27 -43 18 -29 -39 -8 rcurveline
            5 -70 rlineto
            0 47 5 48 112 90 -5 0 vhcurveto
            -409 715 rmoveto
            0 -80 -5 -112 -48 -48 5 0 vhcurveto
            -5 -75 rlineto
            hintmask 11010000
            62 -12 rlineto
            2 -16 7 -45 -50 vvcurveto
            hintmask 10110000
            -54 callgsubr
            -63 -12 5 -70 rlineto
            0 48 5 48 112 79 -5 0 vhcurveto
            5 76 -61 16 callsubr
            63 6 rlineto
            return
          </CharString>
          <CharString index="35">
            471 154 rmoveto
            -64 -2 rlineto
            0 -2 -27 -8 -6 -14 -30 1 vvcurveto
            -6 -35 -21 -2 -34 hhcurveto
            -87 -26 86 108 108 27 86 87 hvcurveto
            return
          </CharString>
          <CharString index="36">
            122 -6 83 245 73 237 83 -10 -20 25 -20 hstemhm
            111 155 270 167 hintmask 11100110
            37 635 rmoveto
            -27 callgsubr
            0 9 -61 -50 vvcurveto
            -117 -69 -73 69 -159 8 callsubr
            -49 -112 -10 -48 hhcurveto
            hintmask 11010110
            -47 -53 -49 callsubr
            224 -388 rmoveto
            hintmask 11001110
            93 hlineto
            5 73 rlineto
            -98 147 hlineto
            16 3 49 1 17 vhcurveto
            hintmask 11100110
            4 23 24 4 20 hhcurveto
            147 52 -126 -152 -155 -51 -122 -150 -27 -27 2 1 -11 hvcurveto
            -1 12 -3 57 44 vvcurveto
            endchar
          </CharString>
          <CharString index="37">
            40 42 -4 callsubr
            5 33 3 12 vhcurveto
            return
          </CharString>
          <CharString index="38">
            -70 5 -2 -16 -6 -26 -4 -15 rlinecurve
            return
          </CharString>
          <CharString index="39">
            -67 -49 -84 -41 -84 41 -67 49 -47 -58 198 -133 198 133 rlineto
            endchar
          </CharString>
          <CharString index="40">
            -5 74 169 68 165 72 -3 -20 hstemhm
            82 145 172 156 hintmask 11101100
            30 474 rmoveto
            5 callsubr
            -1 5 8 -52 -52 vvcurveto
            -60 -46 -68 46 -103 vlineto
            -17 -8 -58 1 5 vhcurveto
            62 callsubr
            vhcurveto
            46 74 -5 58 hhcurveto
            185 89 113 160 160 -92 115 -182 -31 -108 -8 1 -31 hvcurveto
            hintmask 11011100
            -41 -1 -36 5 0 vvcurveto
            193 -302 rmoveto
            53 hlineto
            4 68 rlineto
            -57 hlineto
            hintmask 11101100
            108 vlineto
            2 1 35 1 12 vhcurveto
            4 17 13 4 5 hhcurveto
            105 30 -92 -109 -114 -28 -87 -109 hvcurveto
            -14 -17 1 -2 hhcurveto
            -1 13 -1 43 32 vvcurveto
            endchar
          </CharString>
          <CharString index="41">
            177 -6 83 555 83 -6 callsubr
            270 167 hintmask 11001100
            360 715 rmoveto
            -49 -112 -10 -48 hhcurveto
            hintmask 10101100
            -93 callsubr
            hintmask 10011100
            -27 callgsubr
            0 9 -61 -50 vvcurveto
            -349 8 callsubr
            -14 -83 rmoveto
            hintmask 11001100
            147 52 -126 -152 -155 -51 -122 -150 -27 -27 2 1 -11 hvcurveto
            -1 12 -3 57 44 vvcurveto
            349 vlineto
            16 3 49 1 17 vhcurveto
            4 23 24 4 20 hhcurveto
            return
          </CharString>
          <CharString index="42">
            vlineto
            20 6 46 3 15 71 callgsubr
            return
          </CharString>
          <CharString index="43">
            36 callsubr
            143 -56 111 -97 62 vhcurveto
            75 141 -59 29 -74 -140 rlineto
            17 -43 -49 9 -54 hhcurveto
            -217 -140 -146 -226 -144 57 -111 98 -62 hvcurveto
            -75 -143 57 -29 75 143 rlineto
            -16 43 49 -9 53 hhcurveto
            217 140 146 225 hvcurveto
            -534 hmoveto
            187 57 88 120 38 31 -9 -18 26 vhcurveto
            -235 -446 rlineto
            -25 45 -12 66 87 vvcurveto
            354 hmoveto
            -186 -57 -88 -120 -37 -31 8 17 -26 vhcurveto
            235 444 rlineto
            24 -45 12 -65 -85 vvcurveto
            return
          </CharString>
          <CharString index="44">
            -51 4 rlineto
            -2 -7 45 34 vvcurveto
            148 vlineto
            32 6 120 0 vhcurveto
            -76 8 rlineto
            0 -25 -31 -7 -6 vhcurveto
            -13 -11 -81 -59 0 vvcurveto
            26 -43 67 22 rlineto
            -200 vlineto
            -13 -7 -46 1 2 vhcurveto
            return
          </CharString>
          <CharString index="45">
            2 -16 7 -45 -50 -83 callgsubr
            return
          </CharString>
          <CharString index="46">
            -208 443 73 -66 52 -4 -20 239 60 hstemhm
            20 106 -87 56 104 100 hintmask 01010110
            210 450 rmoveto
            97 32 -3 0 hvcurveto
            hintmask 00110110
            4 51 rlineto
            hintmask 01010110
            -39 4 rlineto
            0 -5 44 33 vvcurveto
            85 vlineto
            69 -55 44 -89 -29 -54 -8 -10 -38 vhcurveto
            10 -114 52 2 -1 33 5 25 rlineto
            7 15 22 5 15 hhcurveto
            32 15 -15 -41 hvcurveto
            -19 vlineto
            hintmask 10011010
            -92 -14 rlineto
            -58 -9 -29 -30 -51 vvcurveto
            -59 37 -36 61 41 26 16 37 21 vhcurveto
            -7 102 rmoveto
            -47 vlineto
            -23 -7 -14 -12 -19 hhcurveto
            -23 -10 11 26 24 9 11 24 5 hvcurveto
            endchar
          </CharString>
          <CharString index="47">
            38 -42 hhcurveto
            -53 callsubr
            return
          </CharString>
          <CharString index="48">
            44 -25 26 -42 vhcurveto
            237 hmoveto
            -44 -23 -29 -41 -41 23 -57 callgsubr
            hvcurveto
            endchar
          </CharString>
          <CharString index="49">
            -48 -26 -33 -47 -47 26 -32 48 48 26 32 47 50 -28 30 -46 hvcurveto
            return
          </CharString>
          <CharString index="50">
            -5 -113 vhcurveto
            return
          </CharString>
          <CharString index="51">
            -207 132 -47 -76 rlineto
            0 122 -56 18 -9 vhcurveto
            67 -49 rlineto
            endchar
          </CharString>
          <CharString index="52">
            -68 0 79 152 73 7 46 106 73 -62 62 4 -20 23 -20 return
          </CharString>
          <CharString index="53">
            -52 -36 callgsubr
            return
          </CharString>
          <CharString index="54">
            -43 -46 -105 0 hvcurveto
            47 -28 rlineto
            0 25 42 24 vhcurveto
            return
          </CharString>
          <CharString index="55">
            rmoveto
            -11 -210 79 -3 8 46 5 14 6 14 4 14 rlinecurve
            2 22 24 2 10 hhcurveto
            153 hlineto
            -13 -48 -24 -79 -7 -14 -225 -441 rcurveline
            125 -43 return
          </CharString>
          <CharString index="56">
            42 36 -5 -9 44 hvcurveto
            5 -13 7 -22 -6 vvcurveto
            3 -47 79 -4 13 165 rlineto
            return
          </CharString>
          <CharString index="57">
            -19 18 rlineto
            0 -94 -10 -20 vhcurveto
            return
          </CharString>
          <CharString index="58">
            5 0 hvcurveto
            return
          </CharString>
          <CharString index="59">
            rmoveto
            -59 36 -36 41 -26 vhcurveto
            hintmask 11100100
            -44 -26 -48 -38 -54 vvcurveto
            -82 83 -35 85 87 81 34 82 62 -44 38 -49 27 vhcurveto
            hintmask 11101000
            38 25 40 37 50 vvcurveto
            70 -75 39 -78 vhcurveto
            hintmask 11010100
            -80 -73 -40 -68 hvcurveto
            hintmask 11100100
            91 -239 rmoveto
            36 23 28 25 19 vhcurveto
            41 -22 34 -22 -42 vvcurveto
            -37 -21 -19 -40 -40 -22 22 37 vhcurveto
            hintmask 11011000
            111 238 rmoveto
            -32 -16 -27 -18 -21 vhcurveto
            -36 20 -28 21 41 vvcurveto
            31 24 18 25 28 21 -18 -33 vhcurveto
            endchar
          </CharString>
          <CharString index="60">
            54 0 87 229 82 225 82 -70 70 5 -20 25 -20 return
          </CharString>
          <CharString index="61">
            0 -2 66 38 vvcurveto
            63 vlineto
            -54 4 -7 -48 rlineto
            return
          </CharString>
          <CharString index="62">
            -4 -63 45 -12 rlineto
            1 -11 6 -48 -37 vvcurveto
            -167 vlineto
            -153 208 rlineto
            -11 17 -53 93 0 vvcurveto
            return
          </CharString>
          <CharString index="63">
            -17 -6 -46 -1 -63 callgsubr
            4 47 return
          </CharString>
          <CharString index="64">
            rmoveto
            -48 -47 -8 -16 -46 11 callsubr
            6 4 13 vhcurveto
            10 20 20 6 19 hhcurveto
            35 24 -18 -37 -60 -46 -57 -155 -131 hvcurveto
            10 -70 rlineto
            hintmask 11101000
            231 -35 callsubr
            0 -44 -7 -18 vhcurveto
            -76 hlineto
            hintmask 11110000
            145 118 44 60 66 vvcurveto
            74 -58 43 -105 vhcurveto
            endchar
          </CharString>
          <CharString index="65">
            vvcurveto
            -69 callgsubr
            return
          </CharString>
          <CharString index="66">
            -52 -11 92 253 79 hstem
            20 159 152 160 vstem
            297 413 rmoveto
            -29 -25 -5 -5 -13 hvcurveto
            5 -72 rlineto
            0 14 3 14 52 16 -73 -52 -60 -12 -68 -60 -57 -23 79 84 165 76 197 213 75 vhcurveto
            -16 66 rlineto
            -289 -53 -143 -239 -211 vvcurveto
            -152 87 -103 152 123 109 98 123 125 -69 78 -125 vhcurveto
            endchar
          </CharString>
          <CharString index="67">
            hstemhm
            120 155 return
          </CharString>
          <CharString index="68">
            rmoveto
            -42 -43 -6 -13 -37 hvcurveto
            9 -112 57 4 1 41 rlineto
            3 -1 -3 4 18 vhcurveto
            4 13 19 3 15 hhcurveto
            32 17 -16 -31 -53 -36 -36 -67 -12 hvcurveto
            9 -51 rlineto
            hintmask 11101000
            0 25 3 15 43 20 -22 -45 -64 -69 -47 -104 -10 vhcurveto
            15 -53 rlineto
            157 11 118 78 93 vvcurveto
            46 -40 46 -51 9 vhcurveto
            hintmask 01110000
            47 24 26 36 40 vvcurveto
            76 -53 39 -99 vhcurveto
            endchar
          </CharString>
          <CharString index="69">
            710 -29 callsubr
            return
          </CharString>
          <CharString index="70">
            0 -81 -57 callsubr
            return
          </CharString>
          <CharString index="71">
            -191 626 79 5 -20 hstemhm
            108 155 hintmask 10100000
            338 629 rmoveto
            hintmask 01100000
            -5 81 rlineto
            -37 callsubr
            hintmask 10100000
            -93 callsubr
            hintmask 01100000
            -27 callgsubr
            hintmask 10100000
            3 -15 6 -46 -50 vvcurveto
            -501 vlineto
            -20 -76 -160 0 vhcurveto
            54 -31 rlineto
            96 89 81 88 33 vvcurveto
            532 vlineto
            20 7 52 2 9 vhcurveto
            return
          </CharString>
          <CharString index="72">
            hlineto
            12 61 -2 0 hvcurveto
            22 13 6 136 -57 4 -6 -27 rlineto
            -2 -7 -8 -27 0 vvcurveto
            return
          </CharString>
          <CharString index="73">
            540 rmoveto
            0 -72 0 callsubr
            return
          </CharString>
          <CharString index="74">
            rmoveto
            -66 -34 -38 -58 -57 34 -38 66 66 33 38 57 58 -33 38 -66 hvcurveto
            -58 vmoveto
            23 9 -18 -20 -19 -9 -18 -23 -22 -9 18 19 20 9 18 22 hvcurveto
            endchar
          </CharString>
          <CharString index="75">
            217 -15 114 527 79 5 -20 return
          </CharString>
          <CharString index="76">
            -7 4 -62 rlineto
            return
          </CharString>
          <CharString index="77">
            -27 callgsubr
            3 -14 6 -47 -50 vvcurveto
            return
          </CharString>
          <CharString index="78">
            rmoveto
            -37 callsubr
            return
          </CharString>
          <CharString index="79">
            7 21 27 5 25 hhcurveto
            51 28 -28 -53 -82 -56 -54 -106 -18 hvcurveto
            14 -73 rlineto
            0 36 4 26 vhcurveto
            hintmask 11010000
            68 34 -36 -71 -98 -107 -76 -162 -18 hvcurveto
            22 -76 rlineto
            236 18 175 119 142 vvcurveto
            73 -60 68 -79 17 vhcurveto
            hintmask 11100000
            71 36 40 56 63 vvcurveto
            115 -78 60 -147 return
          </CharString>
          <CharString index="80">
            rmoveto
            31 23 5 5 15 hvcurveto
            -6 72 rlineto
            0 -20 -3 -14 -48 -30 56 70 62 19 65 62 65 27 -80 -85 -165 -58 -205 -249 -66 vhcurveto
            22 -74 rlineto
            302 53 142 246 211 vvcurveto
            150 -89 107 -163 -133 -107 -97 -122 -130 79 -75 130 vhcurveto
            endchar
          </CharString>
          <CharString index="81">
            -42 -101 -60 callsubr
            return
          </CharString>
          <CharString index="82">
            -62 rlineto
            0 23 4 47 return
          </CharString>
          <CharString index="83">
            rmoveto
            22 15 3 3 9 hvcurveto
            -4 52 rlineto
            -1 -2 -11 -1 -7 hhcurveto
            -30 -18 36 46 39 11 43 40 41 17 -51 -55 -110 -39 -137 -170 -42 hvcurveto
            17 -53 rlineto
            209 34 100 167 141 vvcurveto
            100 -62 72 -114 -93 -75 -66 -82 -88 53 -50 91 vhcurveto
            endchar
          </CharString>
          <CharString index="84">
            19 callsubr
            38 29 3 22 hhcurveto
            81 35 -43 -73 -99 -74 -56 -177 -40 hvcurveto
            22 -74 rlineto
            253 39 132 97 156 vvcurveto
            121 -79 75 -147 -17 -25 -1 -3 -20 vhcurveto
            9 142 rlineto
            94 hlineto
            30 128 14 0 hvcurveto
            return
          </CharString>
          <CharString index="85">
            -194 440 59 219 59 hstem
            19 113 104 113 vstem
            349 608 rmoveto
            110 -60 59 -105 -106 -59 -58 -111 -109 59 -59 106 106 59 59 109 vhcurveto
            -113 hmoveto
            -82 -17 -27 -35 -36 -16 27 82 83 16 27 36 35 17 -27 -83 vhcurveto
            endchar
          </CharString>
          <CharString index="86">
            rmoveto
            -21 -16 -3 -3 -9 hvcurveto
            4 -51 rlineto
            0 13 2 7 29 19 -36 -46 -40 -10 -42 -41 -41 -17 50 56 109 55 131 153 49 vhcurveto
            -12 46 rlineto
            -210 -35 -103 -159 -141 vvcurveto
            -101 62 -71 114 93 75 66 82 88 -54 49 -90 vhcurveto
            endchar
          </CharString>
          <CharString index="87">
            rmoveto
            -64 -19 -36 -70 vhcurveto
            -1 135 hlineto
            0 2 30 2 24 vhcurveto
            64 22 -29 -60 hvcurveto
            endchar
          </CharString>
          <CharString index="88">
            20 callgsubr
            201 hmoveto
            -61 callgsubr
            endchar
          </CharString>
          <CharString index="89">
            -40 callsubr
            130 8 callgsubr
            return
          </CharString>
          <CharString index="90">
            -224 hlineto
            -34 -37 4 0 hvcurveto
            return
          </CharString>
          <CharString index="91">
            33 -39 rlineto
            7 24 19 2 14 hhcurveto
            52 21 -28 -46 -60 -34 -33 -127 -29 hvcurveto
            16 -52 rlineto
            172 27 84 64 100 vvcurveto
            78 -51 50 -99 -10 -16 0 -1 -12 vhcurveto
            4 51 2 31 0 vvcurveto
            66 hlineto
            19 78 8 0 hvcurveto
            -4 90 rlineto
            endchar
          </CharString>
          <CharString index="92">
            hlineto
            -93 callsubr
            return
          </CharString>
          <CharString index="93">
            594 48 callsubr
            5 349 hintmask 10100000
            305 723 33 callsubr
            hintmask 01100000
            -42 -81 -60 callsubr
            hintmask 10100000
            43 79 -55 callgsubr
          </CharString>
          <CharString index="94">
            rrcurveto
            -4 -20 -28 -4 -29 hhcurveto
            return
          </CharString>
          <CharString index="95">
            49 -11 rlineto
            0 7 -45 -13 vvcurveto
            return
          </CharString>
          <CharString index="96">
            -39 0 63 51 76 355 -20 return
          </CharString>
          <CharString index="97">
            -95 callgsubr
            endchar
          </CharString>
          <CharString index="98">
            -35 29 -15 12 -4 vhcurveto
            return
          </CharString>
          <CharString index="99">
            rmoveto
            -7 -145 55 -2 6 30 4 10 4 9 2 9 rlinecurve
            1 14 13 1 6 hhcurveto
            99 hlineto
            -5 -29 -24 -52 -4 -8 -150 -277 rcurveline
            93 -32 212 443 -10 49 rlineto
            -217 hlineto
            -15 -64 6 0 hvcurveto
            endchar
          </CharString>
          <CharString index="100">
            176 -233 -21 93 vvcurveto
            29 26 20 45 vhcurveto
            return
          </CharString>
          <CharString index="101">
            -10 -5 callsubr
            return
          </CharString>
          <CharString index="102">
            -20 25 1 callgsubr
            return
          </CharString>
          <CharString index="103">
            48 callgsubr
            6 return
          </CharString>
          <CharString index="104">
            rmoveto
            -120 51 -105 131 131 51 105 120 121 -51 105 -131 -131 -51 -105 -121 vhcurveto
            243 hmoveto
            -76 -10 -89 -51 -51 -10 89 76 77 10 88 51 51 10 -88 -77 vhcurveto
            endchar
          </CharString>
          <CharString index="105">
            5 -33 -52 vvcurveto
            return
          </CharString>
          <CharString index="106">
            -33 -54 callsubr
            return
          </CharString>
          <CharString index="107">
            -4 -100 vhcurveto
            return
          </CharString>
          <CharString index="108">
            -6 -148 61 -3 13 54 8 19 rlineto
            1 15 23 3 25 hhcurveto
            return
          </CharString>
          <CharString index="109">
            hstem
            19 27 callsubr
            vstem
            return
          </CharString>
          <CharString index="110">
            116 141 rmoveto
            9 callsubr
            return
          </CharString>
          <CharString index="111">
            0 74 56 callgsubr
            return
          </CharString>
          <CharString index="112">
            45 -9 rlineto
            return
          </CharString>
          <CharString index="113">
            -36 callgsubr
            -6 -46 -1 -74 callgsubr
            return
          </CharString>
          <CharString index="114">
            rmoveto
            -44 -24 -29 -41 return
          </CharString>
          <CharString index="115">
            37 callsubr
            53 5 47 vhcurveto
            60 87 -6 63 hhcurveto
            232 120 147 211 215 -120 148 -232 hvcurveto
            return
          </CharString>
          <CharString index="116">
            -18 callgsubr
            198 hmoveto
            -18 callgsubr
            return
          </CharString>
          <CharString index="117">
            -54 -121 60 -70 hhcurveto
            -50 -68 -116 0 hvcurveto
            54 -45 rlineto
            0 37 49 30 vhcurveto
            return
          </CharString>
          <CharString index="118">
            hvcurveto
            4 -119 58 4 rlineto
            28 vlineto
            5 1 return
          </CharString>
          <CharString index="119">
            -326 hlineto
            -20 -94 10 0 hvcurveto
            -19 -18 rlineto
            return
          </CharString>
          <CharString index="120">
            -263 hlineto
            -16 -72 7 0 hvcurveto
            -15 -13 rlineto
            return
          </CharString>
          <CharString index="121">
            63 callgsubr
            -101 35 callsubr
            return
          </CharString>
          <CharString index="122">
            hlineto
            20 44 -6 0 hvcurveto
            9 -60 64 6 rlineto
            0 -3 77 50 vvcurveto
            20 1 60 0 vhcurveto
            -62 5 -9 -64 rlineto
            0 -24 -9 -20 vhcurveto
            return
          </CharString>
          <CharString index="123">
            15 callgsubr
            349 vlineto
            20 6 46 3 15 vhcurveto
            return
          </CharString>
          <CharString index="124">
            -14 14 -102 1 rlineto
            86 callsubr
            return
          </CharString>
          <CharString index="125">
            450 52 -7 7 -4 -20 return
          </CharString>
          <CharString index="126">
            rmoveto
            -88 hlineto
            -19 -18 -25 -314 47 -54 rlineto
            11 return
          </CharString>
          <CharString index="127">
            rmoveto
            0 18 -127 1 -19 vhcurveto
            -1 -93 88 85 callgsubr
            return
          </CharString>
          <CharString index="128">
            rmoveto
            -153 232 -67 -45 105 -187 -105 -187 67 -45 rlineto
            return
          </CharString>
          <CharString index="129">
            33 callgsubr
            5 64 return
          </CharString>
          <CharString index="130">
            292 rmoveto
            -84 callgsubr
            endchar
          </CharString>
          <CharString index="131">
            64 0 74 549 17 callgsubr
            return
          </CharString>
          <CharString index="132">
            -38 0 63 137 79 189 75 -3 -20 return
          </CharString>
          <CharString index="133">
            292 543 rmoveto
            -44 -78 -8 1 -45 hvcurveto
            return
          </CharString>
          <CharString index="134">
            168 237 168 return
          </CharString>
          <CharString index="135">
            88 -232 rmoveto
            34 22 27 24 19 vhcurveto
            39 -21 32 -21 -41 vvcurveto
            -36 -20 -18 -38 -38 -21 21 36 vhcurveto
            return
          </CharString>
          <CharString index="136">
            31 callsubr
            -14 callgsubr
            return
          </CharString>
          <CharString index="137">
            2 2 34 13 vvcurveto
            return
          </CharString>
          <CharString index="138">
            -19 97 549 97 return
          </CharString>
          <CharString index="139">
            -28 42 43 22 28 41 44 -24 26 -41 return
          </CharString>
          <CharString index="140">
            rmoveto
            40 callsubr
            return
          </CharString>
          <CharString index="141">
            4 -10 4 -9 1 -4 4 -15 return
          </CharString>
          <CharString index="142">
            38 -42 hhcurveto
            -43 -46 -105 0 hvcurveto
            return
          </CharString>
          <CharString index="143">
            206 29 callsubr
            741 352 rmoveto
            return
          </CharString>
          <CharString index="144">
            52 callgsubr
            -86 callgsubr
            return
          </CharString>
          <CharString index="145">
            145 51 callsubr
            return
          </CharString>
          <CharString index="146">
            13 -54 -55 13 -71 hhcurveto
            return
          </CharString>
          <CharString index="147">
            0 -22 -38 -24 vhcurveto
            return
          </CharString>
          <CharString index="148">
            63 -4 105 -11 0 vvcurveto
            18 19 -10 90 -6 6 rlineto
            0 -145 -18 -25 -1 vhcurveto
            return
          </CharString>
          <CharString index="149">
            -42 -25 -47 -38 -51 vvcurveto
            -80 79 -34 82 83 78 33 79 61 -42 36 -46 27 vhcurveto
            return
          </CharString>
          <CharString index="150">
            186 rmoveto
            -213 -93 33 -58 67 34 rlineto
            17 6 128 36 0 vvcurveto
            endchar
          </CharString>
          <CharString index="151">
            54 396 64 hstemhm
            27 64 104 112 -102 121 hintmask 01101000
            hintmask 01110000
            149 return
          </CharString>
          <CharString index="152">
            40 9 50 0 vhcurveto
            69 9 -3 66 rlineto
            0 -99 -4 -69 vhcurveto
            -24 -29 rlineto
            0 return
          </CharString>
          <CharString index="153">
            58 -33 38 -66 vhcurveto
            -58 vmoveto
            23 9 -18 -20 return
          </CharString>
          <CharString index="154">
            3 35 79 45 -3 0 vhcurveto
            return
          </CharString>
          <CharString index="155">
            91 -53 91 hstemhm
            return
          </CharString>
          <CharString index="156">
            vhcurveto
            14 -168 79 5 rlineto
            53 vlineto
            hintmask 11010000
            4 8 35 0 vhcurveto
            endchar
          </CharString>
          <CharString index="157">
            -5 18 callgsubr
            return
          </CharString>
          <CharString index="158">
            hintmask 11010000
            hintmask 10110000
            return
          </CharString>
          <CharString index="159">
            0 63 403 74 -19 return
          </CharString>
          <CharString index="160">
            -7 9 -20 7 -22 2 -8 rlinecurve
            hintmask 10111000
            6 -15 72 -209 0 vvcurveto
            return
          </CharString>
          <CharString index="161">
            -3 0 vhcurveto
            hintmask 00111110
            3 51 rlineto
            hintmask 10011110
            return
          </CharString>
          <CharString index="162">
            -14 13 -33 -2 rlineto
            -31 -50 7 0 hvcurveto
            return
          </CharString>
          <CharString index="163">
            710 rmoveto
            0 return
          </CharString>
          <CharString index="164">
            -44 callsubr
            101 return
          </CharString>
          <CharString index="165">
            hvcurveto
            7 -173 79 5 rlineto
            43 vlineto
            7 2 12 6 19 vhcurveto
            16 return
          </CharString>
          <CharString index="166">
            -50 -38 -29 -50 return
          </CharString>
          <CharString index="167">
            56 164 66 hstem
            31 118 109 117 vstem
            175 return
          </CharString>
          <CharString index="168">
            137 118 39 46 66 vvcurveto
            74 -53 43 -102 vhcurveto
            endchar
          </CharString>
          <CharString index="169">
            -46 -7 4 -25 callsubr
            return
          </CharString>
          <CharString index="170">
            132 hstem
            40 77 vstem
            46 return
          </CharString>
          <CharString index="171">
            -20 hstemhm
            14 58 107 145 return
          </CharString>
          <CharString index="172">
            49 31 callgsubr
            return
          </CharString>
          <CharString index="173">
            -20 -9 -66 0 vhcurveto
            return
          </CharString>
          <CharString index="174">
            60 330 61 hstem
            25 121 122 121 vstem
            25 return
          </CharString>
          <CharString index="175">
            59 320 58 hstem
            18 117 115 116 vstem
            18 return
          </CharString>
          <CharString index="176">
            -20 hstem
            63 455 vstem
            63 91 rmoveto
            -91 455 96 vlineto
            return
          </CharString>
          <CharString index="177">
            -5 81 rlineto
            0 return
          </CharString>
          <CharString index="178">
            7 0 hvcurveto
            -6 -51 -12 callsubr
            return
          </CharString>
          <CharString index="179">
            -60 -11 -70 -52 -52 -10 70 60 60 10 70 52 vhcurveto
            return
          </CharString>
          <CharString index="180">
            -41 24 -59 callgsubr
            return
          </CharString>
          <CharString index="181">
            -98 vlineto
            -4 -2 -28 -1 -25 vhcurveto
            return
          </CharString>
          <CharString index="182">
            -235 56 64 13 return
          </CharString>
          <CharString index="183">
            -5 71 rlineto
            0 return
          </CharString>
          <CharString index="184">
            44 callgsubr
            30 3 35 78 46 -3 0 vhcurveto
            return
          </CharString>
          <CharString index="185">
            rmoveto
            26 callgsubr
            return
          </CharString>
          <CharString index="186">
            87 callgsubr
            -9 return
          </CharString>
          <CharString index="187">
            -5 rlineto
            145 vlineto
            -136 -48 -5 -97 rlineto
            return
          </CharString>
          <CharString index="188">
            hstem
            29 117 109 118 vstem
            229 return
          </CharString>
          <CharString index="189">
            58 75 58 hstem
            80 69 63 67 vstem
            180 return
          </CharString>
          <CharString index="190">
            69 4 -20 5 callgsubr
            return
          </CharString>
          <CharString index="191">
            93 57 callgsubr
            return
          </CharString>
          <CharString index="192">
            hstemhm
            120 127 return
          </CharString>
          <CharString index="193">
            -47 -24 4 0 hvcurveto
            return
          </CharString>
          <CharString index="194">
            492 394 rmoveto
            return
          </CharString>
          <CharString index="195">
            -22 163 hstem
            40 152 46 152 return
          </CharString>
          <CharString index="196">
            0 -81 -5 -113 -47 -21 callgsubr
            vhcurveto
            return
          </CharString>
          <CharString index="197">
            -42 -81 35 callsubr
            return
          </CharString>
          <CharString index="198">
            -6 127 rlineto
            endchar
          </CharString>
        <CharString name=".notdef">
          -383 endchar
        </CharString>
        <CharString name="A">
          -11 callgsubr
          hstem
          1 667 vstem
          -105 callgsubr
          endchar
        </CharString>
        <CharString name="AE">
          -89 callsubr
          endchar
        </CharString>
        <CharString name="AEacute">
          -89 callsubr
          208 630 rmoveto
          -77 callgsubr
        </CharString>
        <CharString name="Aacute">
          -11 callgsubr
          hstem
          1 667 vstem
          -105 callgsubr
          206 637 rmoveto
          -77 callgsubr
        </CharString>
        <CharString name="Abreve">
          -11 callgsubr
          47 76 hstemhm
          180 80 callgsubr
          hintmask 11101100
          -105 callgsubr
          hintmask 11111100
          174 637 -58 callgsubr
        </CharString>
        <CharString name="Acircumflex">
          -11 callgsubr
          hstem
          1 667 vstem
          -105 callgsubr
          86 647 rmoveto
          -73 callgsubr
        </CharString>
        <CharString name="Adieresis">
          -11 callgsubr
          61 139 hstem
          148 30 callgsubr
          vstem
          -105 callgsubr
          -32 635 -92 callgsubr
        </CharString>
        <CharString name="Agrave">
          -11 callgsubr
          hstem
          1 667 vstem
          -105 callgsubr
          202 543 rmoveto
          -44 callgsubr
        </CharString>
        <CharString name="Amacron">
          -11 callgsubr
          75 73 hstem
          1 667 vstem
          -105 callgsubr
          240 510 rmoveto
          -13 callgsubr
        </CharString>
        <CharString name="Aogonek">
          105 -197 64 133 69 110 83 454 -20 hstem
          311 107 vstem
          668 65 rmoveto
          -56 9 -23 54 -200 588 -112 -11 -189 -544 -42 -86 -45 -7 5 -73 rlineto
          0 54 5 85 47 59 -5 0 vhcurveto
          5 70 -58 12 6 38 17 64 rlineto
          189 hlineto
          14 -50 rlineto
          2 -12 1 -17 -9 -102 -116 -3 -94 vvcurveto
          -12 callgsubr
          86 hlineto
          35 49 -5 0 hvcurveto
          -343 503 rmoveto
          64 -235 -136 -2 rlineto
          endchar
        </CharString>
        <CharString name="Aring">
          -11 callgsubr
          39 58 75 58 hstemhm
          234 69 63 67 hintmask 11101110
          -105 callgsubr
          86 665 rmoveto
          -66 -34 -38 -58 hvcurveto
          hintmask 11111110
          -57 34 -38 66 66 33 38 57 vhcurveto
          hintmask 11101110
          46 callsubr
          hvcurveto
          hintmask 11111110
          -19 -9 -18 -23 -22 -9 18 19 vhcurveto
          hintmask 11101110
          20 9 18 22 vhcurveto
          endchar
        </CharString>
        <CharString name="Aringacute">
          -11 callgsubr
          43 50 64 49 hstemhm
          242 59 53 57 hintmask 11101110
          -105 callgsubr
          79 641 rmoveto
          -56 -29 -32 -50 hvcurveto
          hintmask 11111110
          -48 29 -33 56 56 28 33 48 vhcurveto
          hintmask 11101110
          50 -28 32 -56 vhcurveto
          -49 vmoveto
          20 7 -16 -17 hvcurveto
          hintmask 11111110
          -16 -7 -15 -20 -19 -7 15 16 vhcurveto
          hintmask 11101110
          17 7 16 19 vhcurveto
          79 43 callsubr
        </CharString>
        <CharString name="Atilde">
          -11 callgsubr
          58 48 callsubr
          1 667 hintmask 11110100
          -105 callgsubr
          229 622 33 callsubr
          hintmask 11101100
          -26 callsubr
          hintmask 11110100
          43 99 -55 callgsubr
        </CharString>
        <CharString name="B">
          71 -5 82 243 87 226 82 -6 callsubr
          41 121 -5 145 -122 153 hintmask 1110010010000000
          hintmask 1110010100000000
          352 715 rmoveto
          -44 -116 -10 -43 hhcurveto
          hintmask 1101010010000000
          -47 -45 -88 callsubr
          hintmask 1100110010000000
          59 -12 rlineto
          5 -23 4 -48 -40 vvcurveto
          -349 vlineto
          -20 -6 -52 -3 -14 vhcurveto
          -60 -12 5 -70 rlineto
          0 45 5 47 vhcurveto
          58 102 -5 61 hhcurveto
          129 110 61 133 104 -72 56 -98 15 hvcurveto
          7 vlineto
          81 20 58 64 88 vvcurveto
          110 -105 62 -120 vhcurveto
          hintmask 1110010100000000
          -74 -86 rmoveto
          2 16 16 2 17 hhcurveto
          62 43 -45 -57 -83 -41 -41 -65 hvcurveto
          -6 hlineto
          -7 -87 rlineto
          10 hlineto
          hintmask 1110011010000000
          75 57 -28 -89 -79 -49 -47 -72 hvcurveto
          hintmask 1110010010000000
          -19 -19 1 2 -18 hvcurveto
          -1 14 -2 55 44 vvcurveto
          349 vlineto
          19 2 60 1 8 vhcurveto
          endchar
        </CharString>
        <CharString name="C">
          -94 callsubr
          endchar
        </CharString>
        <CharString name="Cacute">
          -94 callsubr
          -124 879 rmoveto
          -77 callgsubr
        </CharString>
        <CharString name="Ccaron">
          -94 callsubr
          -73 920 rmoveto
          -68 callsubr
        </CharString>
        <CharString name="Ccedilla">
          75 75 callsubr
          88 92 549 84 callsubr
          201 90 3 86 -68 79 hintmask 11111010
          hintmask 11111001
          594 191 rmoveto
          -75 -2 rlineto
          0 -2 -36 -1 -11 vhcurveto
          -8 -14 -34 -2 -7 vhcurveto
          -10 -45 -36 -5 -43 hhcurveto
          -123 -46 122 153 153 47 121 123 hvcurveto
          hintmask 11111010
          39 32 -5 -9 41 hvcurveto
          5 -13 7 -22 -6 vvcurveto
          3 -61 77 -4 12 179 rlineto
          16 -65 -65 18 -86 hhcurveto
          -232 -118 -150 -218 -207 106 -145 209 -14 hvcurveto
          hintmask 11111100
          -8 -88 -76 callsubr
          9 45 rlineto
          hintmask 11111001
          73 3 65 16 58 14 rrcurveto
          endchar
        </CharString>
        <CharString name="Ccircumflex">
          -94 callsubr
          -224 929 rmoveto
          -73 callgsubr
        </CharString>
        <CharString name="Cdotaccent">
          75 -15 93 549 93 26 159 57 callgsubr
          92 158 44 86 -68 79 hintmask 11011100
          hintmask 11011010
          594 191 rmoveto
          -75 -2 rlineto
          0 -2 -36 -1 -11 vhcurveto
          -8 -14 -34 -2 -7 vhcurveto
          -10 -45 -36 -5 -43 hhcurveto
          -123 -46 122 153 153 47 121 123 hvcurveto
          hintmask 11011100
          39 32 -5 -9 41 hvcurveto
          5 -13 7 -22 -6 vvcurveto
          3 -61 77 -4 12 179 rlineto
          16 -65 -65 18 -86 hhcurveto
          -232 -118 -150 -218 -218 118 -149 232 hvcurveto
          hintmask 11111010
          85 75 18 16 65 hvcurveto
          -224 886 -65 callgsubr
        </CharString>
        <CharString name="D">
          -66 callsubr
          endchar
        </CharString>
        <CharString name="Dcaron">
          -66 callsubr
          155 307 rmoveto
          -68 callsubr
        </CharString>
        <CharString name="Dcroat">
          -71 callsubr
        </CharString>
        <CharString name="Delta">
          118 0 80 636 -20 hstem
          22 636 vstem
          636 hmoveto
          22 69 rlineto
          0 -41 80 -9 25 vhcurveto
          -8 22 -210 520 0 vvcurveto
          -104 -11 -195 -500 -69 -139 27 -66 rlineto
          208 80 rmoveto
          -22 -27 0 1 -29 hvcurveto
          5 25 8 37 4 16 122 332 rcurveline
          126 -316 6 -16 9 -44 6 -31 rlinecurve
          -2 -96 -98 -2 -14 hhcurveto
          endchar
        </CharString>
        <CharString name="E">
          54 0 87 229 82 225 82 -70 70 10 -20 -18 callsubr
          hintmask 1110011000000000
          hintmask 1101011000000000
          76 callgsubr
          hintmask 1110011010000000
          -107 callgsubr
          hintmask 1110011100000000
          -85 callgsubr
          hintmask 1100111100000000
          -7 156 -50 callsubr
          hintmask 1110011000000000
          -16 callgsubr
          endchar
        </CharString>
        <CharString name="Eacute">
          -47 callsubr
          -18 callsubr
          hintmask 1110001100000000
          hintmask 1101001100000000
          76 callgsubr
          hintmask 1110001101000000
          -107 callgsubr
          hintmask 1110001110000000
          -85 callgsubr
          hintmask 1100011110000000
          -7 156 -50 callsubr
          hintmask 1110001100000000
          -16 callgsubr
          374 188 rmoveto
          hintmask 1100101100000000
          -77 callgsubr
        </CharString>
        <CharString name="Ebreve">
          -47 callsubr
          48 76 -40 callsubr
          -124 80 callgsubr
          -54 8 callgsubr
          hintmask 1110001100100000
          hintmask 1101001100100000
          76 callgsubr
          hintmask 1110001100101000
          -107 callgsubr
          hintmask 1110001100110000
          -85 callgsubr
          hintmask 1100011100110000
          -7 156 -50 callsubr
          hintmask 1110001100100000
          -16 callgsubr
          342 188 rmoveto
          hintmask 1100101101000000
          26 callgsubr
          hintmask 1110001011000000
          -48 callgsubr
        </CharString>
        <CharString name="Ecaron">
          -47 callsubr
          -18 callsubr
          hintmask 1110001100000000
          hintmask 1101001100000000
          76 callgsubr
          hintmask 1110001101000000
          -107 callgsubr
          hintmask 1110001110000000
          -85 callgsubr
          hintmask 1100011110000000
          -7 156 -50 callsubr
          hintmask 1110001100000000
          -16 callgsubr
          408 219 rmoveto
          hintmask 1100101100000000
          -68 callsubr
        </CharString>
        <CharString name="Ecircumflex">
          -47 callsubr
          -18 callsubr
          hintmask 1110001100000000
          hintmask 1101001100000000
          76 callgsubr
          hintmask 1110001101000000
          -107 callgsubr
          hintmask 1110001110000000
          -85 callgsubr
          hintmask 1100011110000000
          -7 156 -50 callsubr
          hintmask 1110001100000000
          -16 callgsubr
          254 238 rmoveto
          hintmask 1100101100000000
          -73 callgsubr
        </CharString>
        <CharString name="Edieresis">
          -47 callsubr
          62 139 hstemhm
          119 135 -134 155 82 134 -86 8 callgsubr
          hintmask 1110001010100000
          hintmask 1101001010100000
          76 callgsubr
          hintmask 1110001010101000
          -107 callgsubr
          hintmask 1110001010110000
          -85 callgsubr
          hintmask 1100011010110000
          -7 156 -50 callsubr
          hintmask 1110001010100000
          -16 callgsubr
          136 186 rmoveto
          hintmask 1100101010100000
          -44 -24 -29 -41 hvcurveto
          hintmask 1110001101000000
          -26 callgsubr
        </CharString>
        <CharString name="Edotaccent">
          -47 callsubr
          51 159 -40 callsubr
          -46 158 18 8 callgsubr
          hintmask 1110000101000000
          hintmask 1101000101000000
          76 callgsubr
          hintmask 1110000101010000
          -107 callgsubr
          hintmask 1110000101100000
          -85 callgsubr
          hintmask 1100010101100000
          -7 156 -50 callsubr
          hintmask 1110000101000000
          -16 callgsubr
          257 195 rmoveto
          hintmask 1100100101000000
          -51 -28 -33 -47 hvcurveto
          hintmask 1110001011000000
          -47 28 -32 51 51 28 32 47 50 -30 30 -49 vhcurveto
          endchar
        </CharString>
        <CharString name="Egrave">
          -47 callsubr
          -18 callsubr
          hintmask 1110001100000000
          hintmask 1101001100000000
          76 callgsubr
          hintmask 1110001101000000
          -107 callgsubr
          hintmask 1110001110000000
          -85 callgsubr
          hintmask 1100011110000000
          -7 156 -50 callsubr
          hintmask 1110001100000000
          -16 callgsubr
          370 94 rmoveto
          hintmask 1100101100000000
          -44 callgsubr
        </CharString>
        <CharString name="Emacron">
          -47 callsubr
          76 73 -18 callsubr
          hintmask 1110001110000000
          hintmask 1101001110000000
          76 callgsubr
          hintmask 1110001110100000
          -107 callgsubr
          hintmask 1110001111000000
          -85 callgsubr
          hintmask 1100011111000000
          -7 156 -50 callsubr
          hintmask 1110001110000000
          -16 callgsubr
          411 61 rmoveto
          hintmask 1100101110000000
          -13 callgsubr
        </CharString>
        <CharString name="Eng">
          253 -97 callsubr
          -4 -19 -72 -150 0 vvcurveto
          54 -31 85 85 76 84 -4 31 rlinecurve
          542 vlineto
          25 callgsubr
          endchar
        </CharString>
        <CharString name="Eogonek">
          54 -197 64 133 87 229 82 225 82 -70 70 10 1 callgsubr
          40 107 -17 8 callgsubr
          hintmask 1111001010000000
          hintmask 1110101010000000
          76 callgsubr
          hintmask 1111001100100000
          -27 callgsubr
          5 -21 4 -40 -50 vvcurveto
          -349 vlineto
          -20 -6 -56 -3 -94 callgsubr
          4 48 1 vhcurveto
          234 hlineto
          -32 -30 -38 -24 -54 -42 callsubr
          65 72 17 29 12 12 -1 -60 callgsubr
          -3 -10 -6 -15 -10 -18 -13 callsubr
          -125 hlineto
          -1 20 -2 48 38 vvcurveto
          122 vlineto
          1 7 21 0 3 hhcurveto
          hintmask 1111001010000000
          31 hlineto
          20 44 -6 0 hvcurveto
          9 -60 64 6 rlineto
          0 -3 77 50 vvcurveto
          20 1 63 0 vhcurveto
          -62 5 -9 -64 rlineto
          0 -24 -9 -20 vhcurveto
          -56 hlineto
          -5 -11 0 1 -10 hvcurveto
          143 vlineto
          16 3 47 1 18 vhcurveto
          hintmask 1111001011000000
          -85 callgsubr
          hintmask 1110011011000000
          -7 156 -50 callsubr
          hintmask 1111001010000000
          -16 callgsubr
          endchar
        </CharString>
        <CharString name="Eth">
          -71 callsubr
        </CharString>
        <CharString name="Etilde">
          -47 callsubr
          59 91 -53 91 -18 callsubr
          hintmask 1110001011000000
          hintmask 1101001011000000
          76 callgsubr
          hintmask 1110001011010000
          -107 callgsubr
          hintmask 1110001011100000
          -85 callgsubr
          hintmask 1100011011100000
          -7 156 -50 callsubr
          hintmask 1110001011000000
          -16 callgsubr
          408 173 rmoveto
          hintmask 1100101011000000
          40 callsubr
          -42 -101 35 callsubr
          hintmask 1110000111000000
          47 -28 rlineto
          0 25 42 24 vhcurveto
          43 99 -55 callgsubr
        </CharString>
        <CharString name="Euro">
          142 -15 89 150 65 -52 64 29 65 -52 64 171 89 hstemhm
          127 170 271 81 -63 74 hintmask 1010111100000000
          hintmask 1101011010000000
          37 328 rmoveto
          90 4 rlineto
          -7 vlineto
          -12 1 -11 -11 vvcurveto
          -88 -4 2 -65 95 4 rlineto
          -146 31 105 -95 176 hhcurveto
          82 70 17 16 63 hvcurveto
          -8 159 -70 -1 rlineto
          0 -2 -34 -1 -10 vhcurveto
          -8 -13 -32 -3 -7 vhcurveto
          -7 -38 -36 -4 -40 hhcurveto
          hintmask 1010111100000000
          -85 -47 65 95 -17 hvcurveto
          148 7 -2 64 -152 -7 rlineto
          -1 9 0 9 10 vvcurveto
          14 vlineto
          150 7 -2 64 -143 -6 rlineto
          101 15 47 72 90 hhcurveto
          36 32 -4 -6 35 hvcurveto
          4 -12 7 -21 -6 vvcurveto
          3 -45 72 -3 12 153 rlineto
          16 -62 -62 17 -82 hhcurveto
          hintmask 1011011100000000
          -186 -107 -108 -162 -24 hvcurveto
          -97 -4 rlineto
          endchar
        </CharString>
        <CharString name="F">
          7 0 74 231 82 236 82 -70 70 5 -5 callsubr
          130 65 17 68 hintmask 1110001100000000
          hintmask 1100011100000000
          533 715 rmoveto
          0 -94 -10 -20 vhcurveto
          hintmask 1110001100000000
          -268 -15 callsubr
          hintmask 1100101100000000
          -27 callgsubr
          hintmask 1101001100000000
          4 -14 5 -47 -50 vvcurveto
          hintmask 1110001100000000
          -349 vlineto
          -20 -6 -56 -3 -94 callgsubr
          -35 callgsubr
          111 -5 0 vhcurveto
          5 76 -95 6 rlineto
          -4 17 -5 46 50 vvcurveto
          114 vlineto
          1 8 11 0 6 hhcurveto
          37 hlineto
          20 44 -6 0 hvcurveto
          9 -60 64 6 rlineto
          0 -3 77 50 vvcurveto
          20 1 63 0 vhcurveto
          -62 5 -9 -64 rlineto
          0 -24 -9 -20 vhcurveto
          -58 hlineto
          -6 -7 0 1 -11 hvcurveto
          154 vlineto
          16 3 47 1 18 vhcurveto
          110 hlineto
          30 30 -3 -2 20 hvcurveto
          hintmask 1110001110000000
          34 callsubr
          3 -28 2 -16 72 5 rcurveline
          -7 156 rlineto
          endchar
        </CharString>
        <CharString name="G">
          -5 callgsubr
          hstemhm
          27 180 291 134 -104 88 hintmask 11111000
          -103 callsubr
          hintmask 11110100
          -51 callsubr
          hintmask 11111000
          39 callgsubr
          endchar
        </CharString>
        <CharString name="Gbreve">
          -5 callgsubr
          23 76 57 callgsubr
          32 80 callgsubr
          -49 134 -104 88 hintmask 1110110100000000
          -103 callsubr
          hintmask 1110110010000000
          -51 callsubr
          hintmask 1110110100000000
          39 callgsubr
          hintmask 1111111000000000
          87 178 -58 callgsubr
        </CharString>
        <CharString name="Gcircumflex">
          -5 callgsubr
          hstemhm
          27 180 291 134 -104 88 hintmask 11111000
          -103 callsubr
          hintmask 11110100
          -51 callsubr
          hintmask 11111000
          39 callgsubr
          -1 218 rmoveto
          -73 callgsubr
        </CharString>
        <CharString name="Gcommaaccent">
          -5 callgsubr
          hstemhm
          27 180 106 130 55 134 -104 88 hintmask 11111100
          -103 callsubr
          hintmask 11111010
          -51 callsubr
          hintmask 11111100
          39 callgsubr
          -81 -846 rmoveto
          -9 callsubr
          -84 callsubr
          endchar
        </CharString>
        <CharString name="Gdieresis">
          -5 callgsubr
          37 139 57 callgsubr
          0 30 callgsubr
          -81 134 -104 88 hintmask 1111100100000000
          -103 callsubr
          hintmask 1111100010000000
          -51 callsubr
          hintmask 1111100100000000
          39 callgsubr
          hintmask 1111011000000000
          -119 176 -92 callgsubr
        </CharString>
        <CharString name="Gdotaccent">
          -5 callgsubr
          26 159 57 callgsubr
          107 158 26 134 -104 88 hintmask 11101010
          -103 callsubr
          hintmask 11101001
          -51 callsubr
          hintmask 11101010
          39 callgsubr
          hintmask 11111110
          -1 185 -65 callgsubr
        </CharString>
        <CharString name="Gtilde">
          -5 callgsubr
          34 91 -53 91 57 callgsubr
          291 134 -104 88 hintmask 11110110
          -103 callsubr
          hintmask 11110101
          -51 callsubr
          hintmask 11110110
          39 callgsubr
          144 163 33 callsubr
          hintmask 11101110
          -26 callsubr
          hintmask 11110110
          43 99 -55 callgsubr
        </CharString>
        <CharString name="H">
          -78 callgsubr
          endchar
        </CharString>
        <CharString name="Hbar">
          265 0 74 228 89 96 64 75 -17 callgsubr
          277 155 hintmask 11110110
          hintmask 11101110
          777 -38 callsubr
          hintmask 11110110
          -93 callsubr
          hintmask 11101110
          -27 callgsubr
          hintmask 11110110
          1 -12 5 -27 2 -33 rrcurveto
          -276 hlineto
          1 22 5 37 3 13 66 6 rcurveline
          -5 81 rlineto
          -37 callsubr
          hintmask 11101110
          -93 callsubr
          hintmask 11110110
          65 -12 1 -12 5 -27 2 -33 rlinecurve
          hintmask 11101110
          -89 hlineto
          hintmask 11110110
          -64 90 -324 -106 callgsubr
          109 277 -139 -106 callgsubr
          294 90 64 -90 vlineto
          1 22 5 37 3 13 66 6 rcurveline
          -507 -240 rmoveto
          98 277 -94 vlineto
          endchar
        </CharString>
        <CharString name="Hcircumflex">
          -78 callgsubr
          -368 309 rmoveto
          -73 callgsubr
        </CharString>
        <CharString name="I">
          -15 callgsubr
          86 callgsubr
          51 callsubr
          350 -62 callgsubr
          hintmask 11010000
          -10 callsubr
        </CharString>
        <CharString name="IJ">
          164 0 74 553 77 6 -20 86 callgsubr
          183 155 hintmask 11011000
          hintmask 10111000
          688 -38 callsubr
          hintmask 11011000
          -338 -15 callsubr
          hintmask 10111000
          65 callgsubr
          4 -19 5 -42 -50 vvcurveto
          -349 vlineto
          -20 -8 -54 -1 -12 vhcurveto
          -66 -12 -87 callgsubr
          113 81 9 callgsubr
          9 -8 57 50 vvcurveto
          349 vlineto
          20 5 47 4 14 vhcurveto
          83 9 82 -9 rlineto
          3 -15 6 -46 -50 vvcurveto
          -501 vlineto
          -20 -76 -160 0 vhcurveto
          54 -31 rlineto
          96 89 81 78 33 vvcurveto
          542 vlineto
          20 7 52 2 9 71 callgsubr
          endchar
        </CharString>
        <CharString name="Iacute">
          -15 callgsubr
          86 callgsubr
          51 callsubr
          350 -62 callgsubr
          hintmask 11010000
          -95 callgsubr
          -32 269 rmoveto
          -77 callgsubr
        </CharString>
        <CharString name="Ibreve">
          -15 callgsubr
          53 76 hstemhm
          49 66 10 155 11 66 hintmask 11010100
          hintmask 10110100
          350 -38 callsubr
          hintmask 11010100
          -93 callsubr
          hintmask 10110100
          -27 callgsubr
          hintmask 11010100
          -95 callgsubr
          -64 269 28 callgsubr
        </CharString>
        <CharString name="Icircumflex">
          -15 callgsubr
          86 callgsubr
          51 callsubr
          350 -62 callgsubr
          hintmask 11010000
          -95 callgsubr
          -152 309 rmoveto
          -73 callgsubr
        </CharString>
        <CharString name="Idieresis">
          -15 callgsubr
          67 139 hstemhm
          50 130 -55 155 -55 129 hintmask 11010100
          hintmask 10111010
          115 896 rmoveto
          -42 -23 -29 -41 -41 23 32 callsubr
          hvcurveto
          174 hmoveto
          -42 -22 -29 -41 -41 22 32 callsubr
          hvcurveto
          61 -186 rmoveto
          hintmask 11010100
          89 callsubr
          hintmask 10110100
          -5 -75 rlineto
          hintmask 11010100
          -27 callgsubr
          -10 callsubr
        </CharString>
        <CharString name="Idotaccent">
          -15 callgsubr
          56 159 86 callgsubr
          hintmask 11001000
          hintmask 10101000
          350 -38 callsubr
          hintmask 11001000
          -93 callsubr
          hintmask 10101000
          65 callgsubr
          -95 callgsubr
          -152 276 -65 callgsubr
        </CharString>
        <CharString name="Igrave">
          -15 callgsubr
          86 callgsubr
          51 callsubr
          350 -62 callgsubr
          hintmask 11010000
          -95 callgsubr
          -36 37 callgsubr
        </CharString>
        <CharString name="Imacron">
          -15 callgsubr
          81 73 hstemhm
          117 155 hintmask 11011000
          339 771 rmoveto
          5 73 rlineto
          -278 -73 hlineto
          hintmask 10111000
          276 -61 rmoveto
          hintmask 11011000
          89 callsubr
          hintmask 10111000
          -5 -75 rlineto
          hintmask 11011000
          -27 callgsubr
          -10 callsubr
        </CharString>
        <CharString name="Iogonek">
          -157 -197 64 128 79 56 callgsubr
          hstemhm
          20 107 -2 155 hintmask 11100100
          125 163 rmoveto
          -184 -105 4 -91 vvcurveto
          hintmask 11101000
          -12 callgsubr
          hintmask 11100100
          87 -1 60 -4 0 vvcurveto
          5 76 -65 16 callsubr
          66 6 rlineto
          hintmask 11010100
          -5 81 rlineto
          -37 callsubr
          hintmask 11100100
          -93 callsubr
          hintmask 11010100
          -27 callgsubr
          hintmask 11100100
          2 -16 7 -45 -50 vvcurveto
          endchar
        </CharString>
        <CharString name="Itilde">
          -15 callgsubr
          64 48 callsubr
          135 155 hintmask 11010100
          hintmask 10110100
          360 -38 callsubr
          hintmask 11010100
          -93 callsubr
          hintmask 10110100
          -27 callgsubr
          hintmask 11010100
          -95 callgsubr
          -4 14 callsubr
          hintmask 11001100
          47 -28 rlineto
          0 25 42 24 vhcurveto
          43 99 -55 callgsubr
        </CharString>
        <CharString name="J">
          -36 callsubr
          endchar
        </CharString>
        <CharString name="Jcircumflex">
          -36 callsubr
          -86 315 rmoveto
          -73 callgsubr
        </CharString>
        <CharString name="K">
          189 0 74 552 -17 callgsubr
          -73 callsubr
          endchar
        </CharString>
        <CharString name="Kcommaaccent">
          189 0 74 552 -17 callgsubr
          38 130 -73 callsubr
          -34 -755 rmoveto
          hintmask 11011000
          -9 callsubr
          -84 callsubr
          endchar
        </CharString>
        <CharString name="L">
          3 0 87 539 -17 callgsubr
          210 62 51 callsubr
          345 -62 callgsubr
          hintmask 11011000
          -90 callgsubr
          endchar
        </CharString>
        <CharString name="Lacute">
          3 0 87 539 -17 callgsubr
          210 62 51 callsubr
          345 -62 callgsubr
          hintmask 11011000
          -90 callgsubr
          -57 269 rmoveto
          -77 callgsubr
        </CharString>
        <CharString name="Lcaron">
          3 0 87 248 241 50 -17 callgsubr
          116 94 0 62 hintmask 11101100
          373 577 20 callsubr
          hintmask 11011100
          -147 133 -29 callsubr
          hintmask 11101100
          -93 callsubr
          hintmask 11011100
          -27 callgsubr
          hintmask 11101010
          -90 callgsubr
          endchar
        </CharString>
        <CharString name="Lcommaaccent">
          3 0 87 539 -17 callgsubr
          -36 130 116 62 51 callsubr
          345 -62 callgsubr
          hintmask 11010100
          -90 callgsubr
          -111 -755 rmoveto
          -9 callsubr
          hintmask 11001000
          -84 callsubr
          endchar
        </CharString>
        <CharString name="Ldot">
          3 0 87 214 169 156 -17 callgsubr
          78 158 -26 62 hintmask 11101100
          432 470 -25 callgsubr
          hintmask 11011100
          -87 240 -29 callsubr
          hintmask 11101100
          -93 callsubr
          hintmask 11011100
          -27 callgsubr
          hintmask 11101010
          -90 callgsubr
          endchar
        </CharString>
        <CharString name="Lslash">
          3 0 87 407 -20 152 -17 callgsubr
          210 62 hintmask 11101000
          hintmask 11011000
          345 -38 callsubr
          hintmask 11101000
          -93 callsubr
          hintmask 11011000
          -27 callgsubr
          hintmask 11101100
          2 -16 7 -45 -50 vvcurveto
          -134 vlineto
          -94 -34 22 -60 72 26 rlineto
          -147 vlineto
          -72 callgsubr
          vhcurveto
          257 -91 callgsubr
          -1 -6 -9 -18 -9 -19 rrcurveto
          -4 -19 -29 -4 -29 hhcurveto
          -94 hlineto
          -3 21 -5 43 42 vvcurveto
          173 vlineto
          185 68 -22 60 -163 -60 rlineto
          108 -65 callsubr
          endchar
        </CharString>
        <CharString name="M">
          418 0 71 614 20 5 -20 hstemhm
          37 906 -904 191 hintmask 11010000
          665 705 rmoveto
          -20 -20 rlineto
          0 -33 -113 -8 -23 vhcurveto
          -112 -328 -103 313 rlineto
          -12 37 -31 114 0 vvcurveto
          -20 20 rlineto
          -141 hlineto
          -43 -63 -49 callsubr
          hintmask 10110000
          -5 -72 67 -12 rlineto
          3 -18 3 -27 -12 vvcurveto
          -28 -437 rlineto
          hintmask 10101000
          -3 -13 -6 -27 -5 -18 -68 -12 rcurveline
          5 -67 rlineto
          0 59 5 42 108 46 -5 0 vhcurveto
          6 73 -68 6 rlineto
          -2 23 -2 43 22 vvcurveto
          19 356 179 -518 rlineto
          92 hlineto
          184 518 16 -356 rlineto
          -22 -2 -43 -2 -23 vhcurveto
          -67 -12 5 -67 rlineto
          0 61 5 42 108 72 -5 0 vhcurveto
          5 73 -67 6 -4 18 -7 27 -2 13 rlinecurve
          -32 437 rlineto
          13 1 27 2 18 vhcurveto
          64 11 -4 72 rlineto
          0 -80 -5 -52 vhcurveto
          endchar
        </CharString>
        <CharString name="N">
          240 -97 callsubr
          135 542 hlineto
          25 callgsubr
          endchar
        </CharString>
        <CharString name="Nacute">
          240 -97 callsubr
          135 542 hlineto
          25 callgsubr
          -261 269 rmoveto
          -77 callgsubr
        </CharString>
        <CharString name="Ncaron">
          240 -97 callsubr
          135 542 hlineto
          25 callgsubr
          -230 270 rmoveto
          -68 callsubr
        </CharString>
        <CharString name="Ncommaaccent">
          240 0 74 549 82 -79 84 -25 20 85 callsubr
          86 130 117 127 hintmask 10101010
          40 callgsubr
          -85 -5 -81 vhcurveto
          hintmask 10011010
          -100 5 rlineto
          hintmask 10101010
          -5 -75 rlineto
          hintmask 11001010
          -27 callgsubr
          2 -16 7 -58 -37 vvcurveto
          -282 vlineto
          -220 307 rlineto
          -15 22 -73 126 0 vvcurveto
          hintmask 10011010
          -19 20 rlineto
          -102 -15 callsubr
          hintmask 10101010
          -27 callgsubr
          hintmask 11001010
          2 -11 7 -50 -50 vvcurveto
          -349 vlineto
          -20 -7 -55 -2 -11 vhcurveto
          -66 -12 -87 callgsubr
          113 53 9 callgsubr
          10 -8 56 50 vvcurveto
          257 vlineto
          325 -450 rlineto
          135 542 hlineto
          20 7 49 2 12 vhcurveto
          hintmask 10101110
          66 6 rlineto
          -449 -755 rmoveto
          -9 callsubr
          -84 callsubr
          endchar
        </CharString>
        <CharString name="Ntilde">
          240 0 74 549 82 -79 84 -25 20 49 91 -53 91 85 callsubr
          333 127 hintmask 10101011
          40 callgsubr
          -85 -5 -81 vhcurveto
          hintmask 10011011
          -100 5 rlineto
          hintmask 10101011
          -5 -75 rlineto
          hintmask 11001011
          -27 callgsubr
          2 -16 7 -58 -37 vvcurveto
          -282 vlineto
          -220 307 rlineto
          -15 22 -73 126 0 vvcurveto
          hintmask 10011011
          -19 20 rlineto
          -102 -15 callsubr
          hintmask 10101011
          -27 callgsubr
          hintmask 11001011
          2 -11 7 -50 -50 vvcurveto
          -349 vlineto
          -20 -7 -55 -2 -11 vhcurveto
          -66 -12 -87 callgsubr
          113 53 9 callgsubr
          10 -8 56 50 vvcurveto
          257 vlineto
          325 -450 rlineto
          135 542 hlineto
          20 7 49 2 12 vhcurveto
          hintmask 10101011
          66 6 rlineto
          -228 14 callsubr
          hintmask 10100111
          47 -28 rlineto
          0 25 42 24 vhcurveto
          43 99 -55 callgsubr
        </CharString>
        <CharString name="O">
          206 -19 97 549 97 hstem
          27 180 354 180 vstem
          -103 callgsubr
          endchar
        </CharString>
        <CharString name="OE">
          443 -19 97 -78 87 232 79 225 82 -78 97 -9 -20 57 callgsubr
          345 145 130 8 callgsubr
          hintmask 0111001110100000
          1003 190 rmoveto
          -69 callsubr
          -3 -10 -6 -15 -10 -18 -13 callsubr
          -125 hlineto
          -1 20 -2 48 38 vvcurveto
          125 vlineto
          1 7 21 0 3 hhcurveto
          31 15 callsubr
          -56 hlineto
          -5 -11 0 1 -10 hvcurveto
          143 vlineto
          16 3 47 1 18 vhcurveto
          hintmask 0111001111000000
          -85 callgsubr
          hintmask 0110011111000000
          -7 156 -50 callsubr
          hintmask 0111001110100000
          -268 hlineto
          -21 -30 2 1 -22 hvcurveto
          11 -35 -39 5 -42 hhcurveto
          hintmask 1010101110100000
          -217 -140 -146 -226 -225 140 -146 217 42 39 5 11 36 hvcurveto
          72 3 rlineto
          hintmask 0111001110100000
          282 hlineto
          20 94 -4 0 hvcurveto
          19 18 rlineto
          -436 182 rmoveto
          -72 -33 -36 -46 -99 hhcurveto
          hintmask 1010101110100000
          -120 -57 88 186 187 57 88 120 99 25 -34 -57 44 hvcurveto
          endchar
        </CharString>
        <CharString name="Oacute">
          206 -19 97 549 97 hstem
          27 180 354 180 vstem
          -103 callgsubr
          296 556 rmoveto
          -77 callgsubr
        </CharString>
        <CharString name="Obreve">
          64 callgsubr
          19 76 57 callgsubr
          22 80 callgsubr
          24 180 hintmask 11010010
          -103 callgsubr
          hintmask 11111110
          264 546 -58 callgsubr
        </CharString>
        <CharString name="Ocircumflex">
          206 -19 97 549 97 hstem
          27 180 354 180 vstem
          -103 callgsubr
          176 586 rmoveto
          -73 callgsubr
        </CharString>
        <CharString name="Odieresis">
          64 callgsubr
          33 139 57 callgsubr
          -10 30 callgsubr
          -8 180 hintmask 11010010
          -103 callgsubr
          hintmask 11101100
          58 544 -92 callgsubr
        </CharString>
        <CharString name="Ograve">
          206 -19 97 549 97 hstem
          27 180 354 180 vstem
          -103 callgsubr
          292 452 rmoveto
          -44 callgsubr
        </CharString>
        <CharString name="Ohungarumlaut">
          206 -19 97 549 97 hstem
          27 180 354 180 vstem
          -103 callgsubr
          207 566 -33 callgsubr
        </CharString>
        <CharString name="Omacron">
          64 callgsubr
          47 73 -14 callgsubr
          -103 callgsubr
          330 419 rmoveto
          -13 callgsubr
        </CharString>
        <CharString name="Omega">
          304 0 83 540 97 hstemhm
          91 180 324 180 1 62 hintmask 11110000
          379 128 rmoveto
          -78 30 -30 101 122 vvcurveto
          138 58 104 104 104 58 -104 -138 -122 -30 -101 -78 -30 vhcurveto
          13 -128 rlineto
          198 hlineto
          hintmask 11101000
          20 94 -4 -60 callgsubr
          -1 -6 -7 -17 -7 -19 -19 -4 -31 -5 -31 -2 -86 -3 rcurveline
          hintmask 11110000
          126 48 67 115 136 vvcurveto
          200 -123 139 -219 -219 -123 -139 -200 -136 67 -115 126 -48 vhcurveto
          -86 3 -32 2 -30 5 -19 4 rlinecurve
          -8 18 -6 18 -1 6 -4 15 -6 26 -2 16 -70 -5 rcurveline
          15 -176 19 -18 rlineto
          0 94 4 20 vhcurveto
          198 hlineto
          endchar
        </CharString>
        <CharString name="Oslash">
          -64 callsubr
          endchar
        </CharString>
        <CharString name="Oslashacute">
          -64 callsubr
          -58 546 rmoveto
          -77 callgsubr
        </CharString>
        <CharString name="Otilde">
          64 callgsubr
          30 91 -53 91 57 callgsubr
          354 180 hintmask 11001100
          -103 callgsubr
          hintmask 11101100
          308 531 33 callsubr
          hintmask 11011100
          -26 callsubr
          hintmask 11101100
          43 99 -55 callgsubr
        </CharString>
        <CharString name="P">
          54 0 74 197 82 280 82 -6 callsubr
          165 161 hintmask 11100110
          365 715 rmoveto
          -55 -106 -10 -54 hhcurveto
          hintmask 11010110
          -47 -52 -88 callsubr
          hintmask 11001110
          -27 callgsubr
          -62 callsubr
          113 91 -5 0 vhcurveto
          5 76 -75 15 callgsubr
          78 55 vlineto
          142 129 83 142 140 -96 79 -140 hvcurveto
          -90 -173 rmoveto
          hintmask 11100110
          16 2 48 2 26 vhcurveto
          12 10 1 6 hhcurveto
          93 40 -42 -94 -92 -57 -52 -91 hvcurveto
          -17 hlineto
          endchar
        </CharString>
        <CharString name="Q">
          212 29 callsubr
          683 -224 rmoveto
          90 124 rlineto
          0 -142 58 -16 10 vhcurveto
          -69 46 rlineto
          122 55 73 121 162 vvcurveto
          226 -140 146 -217 -217 -140 -146 -226 -225 140 -146 217 vhcurveto
          21 hlineto
          -198 371 rmoveto
          187 57 88 120 120 57 -88 -187 -186 -57 -88 -120 -120 -57 88 186 vhcurveto
          endchar
        </CharString>
        <CharString name="R">
          -93 callgsubr
          endchar
        </CharString>
        <CharString name="Racute">
          -93 callgsubr
          149 265 rmoveto
          -77 callgsubr
        </CharString>
        <CharString name="Rcaron">
          -93 callgsubr
          180 296 rmoveto
          -68 callsubr
        </CharString>
        <CharString name="Rcommaaccent">
          99 0 74 203 84 272 82 -6 callsubr
          38 130 -10 161 hintmask 11100101
          360 715 rmoveto
          -54 -95 -10 -57 hhcurveto
          hintmask 11010101
          -50 -53 -88 callsubr
          hintmask 11001101
          -27 callgsubr
          2 -19 7 -43 -49 vvcurveto
          -349 -106 callgsubr
          87 vlineto
          -2 17 16 -1 11 hhcurveto
          15 hlineto
          83 -161 rlineto
          13 -24 36 -92 0 vvcurveto
          113 78 -5 0 hvcurveto
          5 76 -48 4 -35 56 -5 8 -55 82 -47 93 rlinecurve
          72 38 50 67 85 vvcurveto
          132 -95 79 -139 vhcurveto
          -58 -82 rmoveto
          hintmask 11100101
          90 41 -43 -88 -92 -39 -49 -95 hvcurveto
          -24 181 hlineto
          14 3 46 3 30 vhcurveto
          1 9 7 0 5 hhcurveto
          11 -759 rmoveto
          -9 callsubr
          hintmask 11100110
          -84 callsubr
          endchar
        </CharString>
        <CharString name="S">
          -96 callsubr
          endchar
        </CharString>
        <CharString name="Sacute">
          -96 callsubr
          268 677 rmoveto
          -77 callgsubr
        </CharString>
        <CharString name="Scaron">
          -96 callsubr
          299 708 rmoveto
          -68 callsubr
        </CharString>
        <CharString name="Scedilla">
          11 75 callsubr
          729 93 hstemhm
          51 91 -91 165 94 90 -31 165 -125 90 hintmask 11101010
          hintmask 11110100
          59 226 rmoveto
          -15 -193 rlineto
          0 82 -40 118 -7 vhcurveto
          -8 -88 -76 callsubr
          9 46 rlineto
          hintmask 11101010
          129 11 97 79 127 230 -318 -22 134 vvcurveto
          51 40 30 60 vhcurveto
          hintmask 11101001
          36 23 -11 -12 22 hvcurveto
          7 -17 5 -13 -4 vvcurveto
          -74 vlineto
          83 -5 14 193 rlineto
          21 -70 -80 15 -70 hhcurveto
          -136 -99 -76 -123 hvcurveto
          hintmask 11101010
          -238 318 30 -147 vvcurveto
          -57 -47 -27 -57 vhcurveto
          hintmask 11110010
          -51 -36 17 11 -21 hvcurveto
          -7 17 -7 18 6 vvcurveto
          12 -1 58 0 vhcurveto
          endchar
        </CharString>
        <CharString name="Scircumflex">
          -96 callsubr
          148 717 rmoveto
          -73 callgsubr
        </CharString>
        <CharString name="Scommaaccent">
          11 -15 97 545 93 hstemhm
          51 91 -91 165 -3 130 26 165 -125 90 hintmask 11010100
          hintmask 11100100
          59 226 rmoveto
          -15 -193 rlineto
          0 98 -48 135 144 113 82 137 vhcurveto
          hintmask 11010100
          230 -318 -22 134 vvcurveto
          51 40 30 60 vhcurveto
          hintmask 11010010
          36 23 -11 -12 22 hvcurveto
          7 -17 5 -13 -4 vvcurveto
          -74 vlineto
          83 -5 14 193 rlineto
          21 -70 -80 15 -70 hhcurveto
          -136 -99 -76 -123 hvcurveto
          hintmask 11010100
          -238 318 30 -147 vvcurveto
          -57 -47 -27 -57 vhcurveto
          hintmask 11101100
          -51 -36 17 11 -21 hvcurveto
          -7 17 -7 18 6 vvcurveto
          12 -1 58 0 vhcurveto
          71 -347 rmoveto
          -9 callsubr
          -84 callsubr
          endchar
        </CharString>
        <CharString name="T">
          24 callsubr
          149 72 hintmask 11001100
          617 531 rmoveto
          hintmask 10101100
          -8 166 -50 callsubr
          hintmask 11011100
          12 callsubr
          hintmask 10111100
          -7 -166 rlineto
          hintmask 11011100
          -75 callgsubr
          endchar
        </CharString>
        <CharString name="Tbar">
          64 0 74 283 64 202 17 callgsubr
          149 72 hintmask 11100110
          617 531 rmoveto
          hintmask 11010110
          -8 166 -50 callsubr
          hintmask 11101110
          12 callsubr
          hintmask 11011110
          -7 -166 rlineto
          hintmask 11101110
          72 -5 1 15 4 39 4 15 rlinecurve
          1 4 4 9 4 10 rrcurveto
          2 20 30 3 30 hhcurveto
          47 hlineto
          2 -17 7 -45 -49 vvcurveto
          -91 -141 -64 141 -194 -106 callgsubr
          164 142 64 -142 121 19 callgsubr
        </CharString>
        <CharString name="Tcaron">
          24 callsubr
          149 72 hintmask 11001100
          617 531 rmoveto
          hintmask 10101100
          -8 166 -50 callsubr
          hintmask 11011100
          12 callsubr
          hintmask 10111100
          -7 -166 rlineto
          hintmask 11011100
          -75 callgsubr
          -81 403 rmoveto
          -68 callsubr
        </CharString>
        <CharString name="Tcedilla">
          64 75 callsubr
          97 79 549 17 callgsubr
          -46 90 105 72 hintmask 1111001010000000
          617 531 rmoveto
          hintmask 1110101010000000
          -8 166 -50 callsubr
          hintmask 1111011010000000
          12 callsubr
          hintmask 1110111010000000
          -7 -166 rlineto
          hintmask 1111011010000000
          72 -5 1 15 4 39 4 15 rlinecurve
          1 4 4 9 4 10 rrcurveto
          2 20 30 3 30 hhcurveto
          47 hlineto
          2 -17 7 -45 -56 callgsubr
          vhcurveto
          15 hlineto
          hintmask 1111000110000000
          -10 -102 -76 callsubr
          12 59 rlineto
          68 -2 46 -3 0 vvcurveto
          hintmask 1111001010000000
          5 76 -65 15 callgsubr
          349 19 callgsubr
        </CharString>
        <CharString name="Thorn">
          38 0 74 72 82 260 82 56 79 5 -20 hstemhm
          115 155 165 161 hintmask 11110110
          345 629 rmoveto
          hintmask 11101110
          -5 81 rlineto
          -37 callsubr
          hintmask 11110110
          -93 callsubr
          hintmask 11101110
          -27 callgsubr
          hintmask 11110110
          2 -16 7 -45 -50 vvcurveto
          -349 vlineto
          -105 callsubr
          -1 10 -4 27 -2 32 rlinecurve
          74 hlineto
          136 114 76 136 134 -96 78 -140 -23 -32 -2 -2 -34 hvcurveto
          2 21 4 26 2 10 rrcurveto
          -9 -136 rmoveto
          1 14 11 0 7 hhcurveto
          93 40 -42 -87 -86 -57 -45 -91 hvcurveto
          -17 hlineto
          endchar
        </CharString>
        <CharString name="U">
          -104 callgsubr
          endchar
        </CharString>
        <CharString name="Uacute">
          -104 callgsubr
          -244 269 rmoveto
          -77 callgsubr
        </CharString>
        <CharString name="Ubreve">
          -32 callsubr
          53 76 hstemhm
          100 160 -24 80 callgsubr
          3 132 hintmask 11011001
          hintmask 10111001
          749 56 callsubr
          -58 -57 callsubr
          hintmask 11011001
          -93 callsubr
          hintmask 10111001
          -27 callgsubr
          hintmask 11011001
          -92 callsubr
          hintmask 10111001
          -93 callsubr
          hintmask 11011001
          -30 callsubr
          hintmask 10111001
          -244 vlineto
          hintmask 11011001
          -82 callsubr
          -276 269 78 callsubr
          hintmask 11010110
          -48 callgsubr
        </CharString>
        <CharString name="Ucircumflex">
          -104 callgsubr
          -364 309 rmoveto
          -73 callgsubr
        </CharString>
        <CharString name="Udieresis">
          -32 callsubr
          67 139 hstemhm
          100 160 -56 30 callgsubr
          -29 132 hintmask 11011001
          hintmask 10111001
          749 56 callsubr
          -58 -57 callsubr
          hintmask 11011001
          -93 callsubr
          hintmask 10111001
          -27 callgsubr
          hintmask 11011001
          -92 callsubr
          hintmask 10111001
          -93 callsubr
          hintmask 11011001
          -30 callsubr
          hintmask 10111001
          -244 vlineto
          hintmask 11011001
          -82 callsubr
          -482 267 3 callgsubr
        </CharString>
        <CharString name="Ugrave">
          -104 callgsubr
          -248 37 callgsubr
        </CharString>
        <CharString name="Uhungarumlaut">
          -104 callgsubr
          -333 289 -33 callgsubr
        </CharString>
        <CharString name="Umacron">
          -32 callsubr
          81 73 hstemhm
          100 160 -31 103 215 132 hintmask 11011010
          hintmask 10111010
          749 56 callsubr
          -58 -57 callsubr
          hintmask 11011010
          -93 callsubr
          hintmask 10111010
          -27 callgsubr
          hintmask 11011010
          2 -15 7 -46 -50 vvcurveto
          -252 vlineto
          -100 -36 -61 -105 -95 -51 71 90 vhcurveto
          282 vlineto
          20 6 50 3 11 vhcurveto
          66 6 -5 81 rlineto
          hintmask 11010110
          0 -86 -57 callsubr
          hintmask 10110110
          -93 callsubr
          hintmask 11011010
          -30 callsubr
          hintmask 10111010
          -244 vlineto
          hintmask 11011010
          -82 callsubr
          -210 142 rmoveto
          -13 callgsubr
        </CharString>
        <CharString name="Uogonek">
          217 -197 64 118 114 527 79 5 -20 hstemhm
          100 160 59 107 121 132 hintmask 11101010
          hintmask 11011010
          749 56 callsubr
          -58 -57 callsubr
          hintmask 11101010
          -93 callsubr
          hintmask 11011010
          -27 callgsubr
          hintmask 11101010
          -92 callsubr
          hintmask 11011010
          -93 callsubr
          hintmask 11101010
          -30 callsubr
          hintmask 11011010
          -244 vlineto
          hintmask 11101110
          -167 93 -110 180 -6 vhcurveto
          -29 -22 -25 -29 -42 -42 callsubr
          30 14 25 32 24 hvcurveto
          136 28 71 102 144 vvcurveto
          274 vlineto
          20 6 47 3 14 71 callgsubr
          endchar
        </CharString>
        <CharString name="Uring">
          -32 callsubr
          45 58 75 58 hstemhm
          100 160 30 69 63 67 58 132 hintmask 1100110010000000
          hintmask 1010110010000000
          749 56 callsubr
          -58 -57 callsubr
          hintmask 1100110010000000
          -93 callsubr
          hintmask 1010110010000000
          -27 callgsubr
          hintmask 1100110010000000
          -92 callsubr
          hintmask 1010110010000000
          -93 callsubr
          hintmask 1100110010000000
          -30 callsubr
          hintmask 1010110010000000
          -244 vlineto
          hintmask 1100110010000000
          -82 callsubr
          -364 297 rmoveto
          -66 -34 -38 -58 -57 34 -38 66 66 33 38 57 hvcurveto
          hintmask 1101111110000000
          46 callsubr
          -19 -9 -18 -23 -22 -9 18 19 20 9 18 22 hvcurveto
          endchar
        </CharString>
        <CharString name="Utilde">
          -32 callsubr
          64 48 callsubr
          100 160 287 132 hintmask 11000110
          hintmask 10100110
          749 56 callsubr
          -58 -57 callsubr
          hintmask 11000110
          -93 callsubr
          hintmask 10100110
          -27 callgsubr
          hintmask 11000110
          -92 callsubr
          hintmask 10100110
          -93 callsubr
          hintmask 11000110
          -30 callsubr
          hintmask 10100110
          -244 vlineto
          hintmask 11010110
          -82 callsubr
          -224 254 rmoveto
          0 -22 -38 -24 vhcurveto
          -26 callsubr
          hintmask 11001110
          43 99 -55 callgsubr
        </CharString>
        <CharString name="V">
          145 628 77 -73 72 6 -20 hstemhm
          -1 706 -50 47 hintmask 01010000
          295 hmoveto
          115 hlineto
          hintmask 01001000
          200 544 rlineto
          11 30 34 56 0 vvcurveto
          50 7 rlineto
          hintmask 00101000
          -5 73 rlineto
          0 -64 -5 -83 vhcurveto
          hintmask 01010000
          -47 -63 -49 callsubr
          -5 -70 rlineto
          hintmask 00110000
          64 -12 rlineto
          hintmask 10010000
          0 0 -18 -7 -20 vhcurveto
          -127 -383 -116 369 rlineto
          -6 18 -2 34 0 vvcurveto
          hintmask 01010000
          65 9 -5 73 rlineto
          0 -95 -57 callsubr
          hintmask 00110000
          -37 -55 -49 callsubr
          -5 -70 rlineto
          hintmask 01010000
          60 -9 rlineto
          0 18 -29 9 -25 vhcurveto
          endchar
        </CharString>
        <CharString name="W">
          -102 callsubr
          endchar
        </CharString>
        <CharString name="Wacute">
          -102 callsubr
          -339 268 rmoveto
          -237 -104 rlineto
          hintmask 01000100
          37 -64 74 38 rlineto
          19 6 143 40 0 vvcurveto
          endchar
        </CharString>
        <CharString name="Wcircumflex">
          -102 callsubr
          -459 278 rmoveto
          -198 -133 rlineto
          hintmask 01000100
          47 -58 67 49 84 41 84 -41 67 -49 60 callgsubr
        </CharString>
        <CharString name="Wdieresis">
          467 628 77 -73 72 -69 69 6 -20 67 139 hstemhm
          329 30 callgsubr
          273 47 hintmask 01001111
          1024 637 rmoveto
          hintmask 00011111
          -5 73 rlineto
          0 -64 -5 -83 vhcurveto
          hintmask 01001111
          -47 -63 -49 callsubr
          -5 -70 rlineto
          hintmask 00011111
          64 -12 rlineto
          hintmask 10001111
          0 4 -16 -6 -22 vhcurveto
          -101 -383 -131 468 rlineto
          -113 hlineto
          -133 -468 -90 369 rlineto
          -6 26 2 26 0 vvcurveto
          hintmask 01001111
          65 9 -5 73 rlineto
          0 -95 -57 callsubr
          hintmask 00011111
          -37 -55 -49 callsubr
          -5 -70 rlineto
          hintmask 01001111
          60 -9 rlineto
          0 13 -23 10 -31 vhcurveto
          hintmask 00011111
          183 -577 rlineto
          hintmask 00101111
          115 hlineto
          134 423 128 -423 rlineto
          115 hlineto
          174 544 rlineto
          13 40 27 46 0 vvcurveto
          -577 266 7 callsubr
          hvcurveto
          hintmask 01001111
          -26 callgsubr
        </CharString>
        <CharString name="Wgrave">
          -102 callsubr
          -343 174 rmoveto
          -237 104 rlineto
          hintmask 01000100
          -36 -84 rlineto
          0 143 -40 19 -6 vhcurveto
          74 -38 rlineto
          endchar
        </CharString>
        <CharString name="X">
          135 0 73 559 73 5 -20 hstemhm
          7 694 hintmask 11010000
          265 343 rmoveto
          -124 -179 -14 -20 -41 -42 -27 -28 rlinecurve
          -52 -9 4 -70 rlineto
          0 53 5 47 83 64 -5 0 vhcurveto
          6 76 -49 4 10 21 12 23 9 13 rlinecurve
          82 121 78 -111 12 -15 15 -30 12 -25 rlinecurve
          -37 -7 4 -70 rlineto
          0 51 5 37 113 82 -5 0 vhcurveto
          6 76 -51 5 -19 20 -19 23 -11 13 rlinecurve
          -174 246 125 191 11 14 27 25 21 20 rlinecurve
          65 8 rlineto
          hintmask 10110000
          -4 74 rlineto
          0 -64 -5 -83 vhcurveto
          hintmask 11010000
          -47 -53 -49 callsubr
          -6 -70 rlineto
          hintmask 10110000
          41 -8 rlineto
          hintmask 11010000
          -9 -20 -11 -21 -9 -13 -68 -109 rcurveline
          -57 86 -12 17 -18 35 -11 24 rlinecurve
          42 5 -3 74 rlineto
          0 -82 -57 callsubr
          hintmask 10110000
          -37 -57 -49 callsubr
          -6 -70 rlineto
          hintmask 11010000
          53 -8 53 -74 rlineto
          endchar
        </CharString>
        <CharString name="Y">
          -102 callgsubr
          endchar
        </CharString>
        <CharString name="Yacute">
          -102 callgsubr
          -174 268 rmoveto
          -77 callgsubr
        </CharString>
        <CharString name="Ycircumflex">
          -102 callgsubr
          -294 308 rmoveto
          -73 callgsubr
        </CharString>
        <CharString name="Ydieresis">
          150 0 74 554 77 -72 71 -64 65 5 -20 67 139 hstemhm
          170 135 -25 155 -27 134 108 57 hintmask 1010010101000000
          710 637 rmoveto
          hintmask 1000110101000000
          -5 73 rlineto
          0 -64 -5 -83 vhcurveto
          hintmask 1010010101000000
          -47 -63 -49 callsubr
          -5 -70 rlineto
          hintmask 1000110101000000
          44 -12 rlineto
          hintmask 1001010101000000
          0 0 -30 -4 -8 vhcurveto
          hintmask 1100010101000000
          -110 -221 -105 207 rlineto
          -10 19 -7 33 0 vvcurveto
          53 9 -5 73 rlineto
          hintmask 1010010101000000
          0 -95 -57 callsubr
          hintmask 1000110101000000
          -37 -55 -49 callsubr
          -5 -70 rlineto
          hintmask 1010010101000000
          60 -9 rlineto
          0 34 -30 14 -24 vhcurveto
          hintmask 1000110101000000
          178 -328 rlineto
          hintmask 1010010101000000
          -82 callgsubr
          -412 266 34 callgsubr
          hvcurveto
          hintmask 1010011011000000
          -59 callsubr
        </CharString>
        <CharString name="Ygrave">
          -102 callgsubr
          -178 174 rmoveto
          -44 callgsubr
        </CharString>
        <CharString name="Ytilde">
          150 0 74 554 77 -72 71 -64 65 5 -20 64 48 callsubr
          280 155 215 57 hintmask 1010010110000000
          710 637 rmoveto
          hintmask 1000110110000000
          -5 73 rlineto
          0 -64 -5 -83 vhcurveto
          hintmask 1010010110000000
          -47 -63 -49 callsubr
          -5 -70 rlineto
          hintmask 1000110110000000
          44 -12 rlineto
          hintmask 1001010110000000
          0 0 -30 -4 -8 vhcurveto
          hintmask 1100010110000000
          -110 -221 -105 207 rlineto
          -10 19 -7 33 0 vvcurveto
          53 9 -5 73 rlineto
          hintmask 1010010110000000
          0 -95 -57 callsubr
          hintmask 1000110110000000
          -37 -55 -49 callsubr
          -5 -70 rlineto
          hintmask 1010010110000000
          60 -9 rlineto
          0 34 -30 14 -24 vhcurveto
          hintmask 1000110110000000
          178 -328 rlineto
          hintmask 1010010110000000
          -82 callgsubr
          -153 253 33 callsubr
          -26 callsubr
          hintmask 1010001110000000
          43 99 -55 callgsubr
        </CharString>
        <CharString name="Z">
          -87 callsubr
          endchar
        </CharString>
        <CharString name="Zacute">
          -87 callsubr
          211 282 rmoveto
          -77 callgsubr
        </CharString>
        <CharString name="Zcaron">
          -87 callsubr
          242 313 rmoveto
          -68 callsubr
        </CharString>
        <CharString name="Zdotaccent">
          49 0 89 527 89 10 -20 51 159 hstemhm
          35 68 124 158 125 60 hintmask 11001110
          368 616 rmoveto
          -50 -100 -175 -279 rlineto
          -24 -41 -87 -116 0 vvcurveto
          10 -80 rlineto
          386 hlineto
          20 95 -4 0 hvcurveto
          20 18 15 184 -68 5 -2 -16 -7 -28 79 callsubr
          -20 -10 -21 rrcurveto
          -4 -21 -34 -4 -29 hhcurveto
          -157 hlineto
          64 123 156 252 107 161 -10 80 rlineto
          -379 hlineto
          -20 -95 10 0 hvcurveto
          hintmask 10101110
          -20 -18 -7 -185 72 -5 2 17 9 44 4 15 rlinecurve
          hintmask 11011110
          13 28 rlineto
          2 20 32 3 31 hhcurveto
          91 289 -65 callgsubr
        </CharString>
        <CharString name="a">
          -11 callsubr
          35 callgsubr
          hintmask 11110000
          -66 callgsubr
          hintmask 11101000
          -101 callsubr
          endchar
        </CharString>
        <CharString name="a.sups">
          -61 callsubr
        </CharString>
        <CharString name="aacute">
          -11 callsubr
          35 callgsubr
          hintmask 11110000
          -66 callgsubr
          hintmask 11101000
          -101 callsubr
          168 565 rmoveto
          -80 callgsubr
          endchar
        </CharString>
        <CharString name="abreve">
          -11 callsubr
          49 76 hstemhm
          3 203 -87 80 callgsubr
          hintmask 11100110
          -66 callgsubr
          hintmask 11111010
          -101 callsubr
          159 539 rmoveto
          59 callsubr
          vhcurveto
          hintmask 11110110
          59 callgsubr
          hvcurveto
          -43 callgsubr
        </CharString>
        <CharString name="acircumflex">
          -11 callsubr
          35 callgsubr
          hintmask 11110000
          -66 callgsubr
          hintmask 11101000
          -149 -413 -32 -60 -28 -1 4 -66 rlineto
          0 24 4 85 43 47 -6 0 vhcurveto
          4 60 -40 10 3 18 7 32 rlineto
          133 hlineto
          8 -34 -5 -16 -40 -2 4 -66 rlineto
          0 55 4 127 28 30 -6 0 vhcurveto
          -245 771 rmoveto
          -84 callgsubr
          -220 -268 rmoveto
          37 -164 rlineto
          -86 hlineto
          endchar
        </CharString>
        <CharString name="acute">
          565 190 hstem
          53 254 vstem
          260 755 rmoveto
          -80 callgsubr
          endchar
        </CharString>
        <CharString name="acute.cap">
          519 168 hstem
          43 273 vstem
          280 687 rmoveto
          -77 callgsubr
        </CharString>
        <CharString name="adieresis">
          -11 callsubr
          61 139 hstemhm
          3 203 -119 30 callgsubr
          hintmask 11110110
          -66 callgsubr
          hintmask 11111010
          -101 callsubr
          hintmask 11110110
          -47 535 -92 callgsubr
        </CharString>
        <CharString name="ae">
          -90 callsubr
          endchar
        </CharString>
        <CharString name="aeacute">
          -90 callsubr
          170 566 rmoveto
          -80 callgsubr
          endchar
        </CharString>
        <CharString name="agrave">
          -11 callsubr
          35 callgsubr
          hintmask 11110000
          -66 callgsubr
          hintmask 11101000
          -101 callsubr
          182 433 rmoveto
          -56 callsubr
        </CharString>
        <CharString name="amacron">
          -11 callsubr
          71 73 35 callgsubr
          hintmask 11111000
          -66 callgsubr
          hintmask 11110100
          -101 callsubr
          226 406 rmoveto
          -13 callgsubr
        </CharString>
        <CharString name="ampersand">
          38 -8 94 -85 62 204 67 127 81 0 -20 hstemhm
          31 147 -97 136 106 76 -32 192 -150 97 hintmask 0111001100000000
          247 542 rmoveto
          -94 -72 -44 -87 -41 24 -50 34 -40 hvcurveto
          hintmask 1011010100000000
          -64 -30 -44 -35 -79 vvcurveto
          -93 95 -51 122 57 56 13 34 40 vhcurveto
          hintmask 0111001101000000
          30 -35 6 -3 rlineto
          11 hlineto
          102 48 -5 0 hvcurveto
          3 66 -36 3 -6 6 -44 27 -16 13 rlinecurve
          -19 19 11 25 9 33 4 31 rlinecurve
          5 47 rlineto
          hintmask 0111001010000000
          53 3 -5 70 -10 -1 -19 -2 -48 -1 rlinecurve
          -51 -50 5 1 -10 hvcurveto
          -3 -70 rlineto
          hintmask 0111001101000000
          41 -5 rlineto
          2 -12 0 -7 -11 vvcurveto
          -12 -5 -20 -3 -8 vhcurveto
          -133 109 -51 56 52 vvcurveto
          23 17 25 33 vhcurveto
          hintmask 0111001100000000
          21 16 -5 -4 9 hvcurveto
          0 9 -25 -3 vvcurveto
          1 -14 0 -20 -14 vvcurveto
          72 -4 rlineto
          hintmask 0110101100000000
          9 151 rlineto
          hintmask 0111001100000000
          8 -27 -62 11 -68 hhcurveto
          hintmask 1011010100000000
          -44 -329 rmoveto
          125 -108 rlineto
          -12 -15 -31 -7 -28 hhcurveto
          -44 -32 30 37 18 6 22 19 20 hvcurveto
          endchar
        </CharString>
        <CharString name="aogonek">
          -39 -197 64 133 57 -57 62 52 76 355 -20 hstemhm
          3 203 -3 107 hintmask 10111010
          hintmask 11011010
          -66 callgsubr
          hintmask 10111100
          -149 -413 -32 -60 -28 -1 4 -66 rlineto
          0 24 4 85 43 47 -6 0 vhcurveto
          4 60 -40 10 3 18 7 32 rlineto
          133 hlineto
          7 -33 rlineto
          hintmask 10111010
          -7 -92 -108 -6 -91 -42 callsubr
          hvcurveto
          hintmask 11011010
          35 26 42 49 8 vhcurveto
          75 hlineto
          28 30 -6 0 hvcurveto
          -267 360 rmoveto
          37 -164 rlineto
          -86 hlineto
          endchar
        </CharString>
        <CharString name="approxequal">
          42 64 112 -52 112 28 112 -52 112 hstemhm
          60 484 hintmask 01011000
          hintmask 10011000
          426 64 rmoveto
          29 callgsubr
          hintmask 01011000
          10 callsubr
          hintmask 10011000
          54 131 -60 60 hhcurveto
          hintmask 01101000
          200 vmoveto
          29 callgsubr
          hintmask 01011000
          10 callsubr
          hintmask 01101000
          54 131 -60 60 hhcurveto
          endchar
        </CharString>
        <CharString name="aring">
          -11 callsubr
          45 58 75 58 hstemhm
          3 203 -42 69 63 67 hintmask 11101011
          -66 callgsubr
          hintmask 11101101
          -101 callsubr
          hintmask 11111011
          62 571 -33 callsubr
        </CharString>
        <CharString name="aringacute">
          -11 callsubr
          45 50 64 49 hstemhm
          3 203 -42 59 53 57 hintmask 11101011
          -66 callgsubr
          hintmask 11101101
          -101 callsubr
          hintmask 11111011
          47 543 rmoveto
          -56 -29 -32 -50 -48 29 -33 56 56 28 33 48 50 -28 32 -56 hvcurveto
          -49 vmoveto
          20 7 -16 -17 -16 -7 -15 -20 -19 -7 15 16 17 7 16 19 hvcurveto
          82 43 callsubr
        </CharString>
        <CharString name="asciicircum">
          26 264 21 hstem
          294 732 rmoveto
          -274 -359 89 -59 185 264 185 -264 89 59 rlineto
          endchar
        </CharString>
        <CharString name="asciitilde">
          42 160 112 -52 112 hstemhm
          60 484 hintmask 01100000
          hintmask 10100000
          426 160 rmoveto
          29 callgsubr
          hintmask 01100000
          10 callsubr
          hintmask 10100000
          54 131 -60 60 hhcurveto
          endchar
        </CharString>
        <CharString name="asterisk">
          -153 396 350 hstem
          166 78 vstem
          339 455 rmoveto
          30 67 -45 26 -3 2 -14 10 -15 12 rlinecurve
          80 58 -43 59 -45 -26 -3 -2 -17 -6 -17 -7 rlinecurve
          -10 98 -73 -8 rlineto
          -53 vlineto
          -4 -3 -17 -2 -18 vhcurveto
          -90 41 -30 -67 46 -27 3 -2 13 -10 14 -12 rlinecurve
          -79 -57 43 -59 46 26 3 2 15 6 18 7 rlinecurve
          10 -98 73 8 rlineto
          52 vlineto
          3 2 17 3 19 vhcurveto
          endchar
        </CharString>
        <CharString name="at">
          392 -213 82 121 103 329 81 95 69 hstemhm
          30 121 122 148 -109 82 153 140 122 115 hintmask 1111101110000000
          639 hmoveto
          184 14 101 149 124 vvcurveto
          240 -174 140 -268 -330 -122 -220 -215 -207 97 -238 360 55 159 86 0 vhcurveto
          -16 38 rlineto
          0 -161 -42 -37 vhcurveto
          -242 -1 -94 155 209 vvcurveto
          130 49 236 282 204 123 -127 -184 -86 -31 -114 -83 -21 vhcurveto
          1 1 rlineto
          0 -9 76 50 vvcurveto
          130 vlineto
          109 -69 71 -135 -79 -99 -27 0 vhcurveto
          15 -167 75 3 -1 49 4 39 rlineto
          7 14 35 15 30 hhcurveto
          58 12 -45 -54 hvcurveto
          -30 vlineto
          -142 -23 rlineto
          hintmask 1111110110000000
          -92 -16 -40 -47 -75 vvcurveto
          -89 57 -53 90 57 47 21 61 34 vhcurveto
          8 -72 rlineto
          -93 214 rmoveto
          74 14 rlineto
          -55 vlineto
          -54 -3 -26 -26 -43 hhcurveto
          -37 -17 18 41 38 15 17 37 7 hvcurveto
          endchar
        </CharString>
        <CharString name="atilde">
          -11 callsubr
          69 91 -53 91 35 callgsubr
          hintmask 11100100
          -66 callgsubr
          hintmask 11110010
          -101 callsubr
          182 533 33 callsubr
          hintmask 11101100
          -42 -81 -60 callsubr
          hintmask 11110100
          43 79 -55 callgsubr
        </CharString>
        <CharString name="b">
          -53 -4 73 -69 61 175 79 154 74 -3 -20 5 callgsubr
          24 102 -25 132 -114 138 hintmask 1001010100000000
          283 543 rmoveto
          -27 -114 -8 1 -26 hvcurveto
          hintmask 0100110100000000
          -44 -1 -23 5 0 vvcurveto
          -4 -66 40 -9 rlineto
          6 -22 1 -37 -40 -36 callgsubr
          -4 -42 -3 -11 vhcurveto
          -41 -7 rlineto
          hintmask 1001010010000000
          4 -62 rlineto
          0 23 4 43 vhcurveto
          37 93 -4 52 hhcurveto
          106 92 42 108 hvcurveto
          hintmask 1001011000000000
          79 -56 41 -75 11 vhcurveto
          5 vlineto
          hintmask 1001010100000000
          63 16 44 48 67 vvcurveto
          83 -88 47 -99 vhcurveto
          -45 -76 rmoveto
          1 9 7 1 8 hhcurveto
          45 31 -32 -33 hvcurveto
          hintmask 1011010100000000
          -61 -32 -28 -38 vhcurveto
          -4 hlineto
          hintmask 1011011000000000
          -6 -79 rlineto
          8 hlineto
          hintmask 1011010010000000
          47 43 -14 -63 -55 -36 -35 -52 -9 -9 -1 2 -11 hvcurveto
          -1 11 -1 43 34 48 callgsubr
          hintmask 1001010100000000
          4 1 45 4 vvcurveto
          endchar
        </CharString>
        <CharString name="b.sups">
          -172 443 67 187 80 153 11 hstem
          53 100 105 113 vstem
          -3 6 callgsubr
          -7 -79 0 vhcurveto
          -20 69 48 -4 40 hhcurveto
          111 57 62 110 90 -32 72 -92 -43 -28 -16 -29 -23 hvcurveto
          76 13 callgsubr
          -31 -50 8 0 hvcurveto
          203 -252 rmoveto
          46 6 -47 -45 -54 -8 -41 -56 -12 -14 4 5 -14 hvcurveto
          19 -1 23 18 vvcurveto
          38 vlineto
          45 3 12 35 38 hhcurveto
          endchar
        </CharString>
        <CharString name="backslash">
          -164 -65 838 hstem
          -7 399 vstem
          392 -35 rmoveto
          -306 808 -93 -30 305 -808 rlineto
          endchar
        </CharString>
        <CharString name="bar">
          78 callgsubr
          -122 rmoveto
          874 vlineto
          -95 8 rlineto
          -873 vlineto
          endchar
        </CharString>
        <CharString name="braceleft">
          -273 -121 66 750 66 hstemhm
          30 239 -237 159 9 67 hintmask 11100000
          hintmask 11010000
          201 274 rmoveto
          -30 28 -39 14 0 vvcurveto
          9 vlineto
          0 39 14 30 28 vhcurveto
          -10 234 rlineto
          45 callsubr
          12 -135 18 -215 vhcurveto
          -19 -17 -44 -19 -9 hhcurveto
          -4 -49 rlineto
          12 44 -20 -18 17 hvcurveto
          -29 -350 24 -29 rlineto
          hintmask 11001000
          90 callgsubr
          hintmask 11010000
          0 -9 50 40 vvcurveto
          endchar
        </CharString>
        <CharString name="braceright">
          -273 -121 66 351 49 350 66 hstemhm
          20 239 -161 159 hintmask 10110000
          hintmask 11101000
          88 367 rmoveto
          30 -28 39 -14 0 vvcurveto
          -9 vlineto
          0 -39 -14 -30 -28 vhcurveto
          10 -234 rlineto
          45 callgsubr
          -13 135 -17 215 vhcurveto
          18 17 44 20 9 hhcurveto
          4 49 rlineto
          -13 -44 19 19 -17 hvcurveto
          30 350 43 callgsubr
        </CharString>
        <CharString name="bracketleft">
          -297 -121 66 750 66 hstemhm
          45 112 9 67 hintmask 11100000
          157 601 rmoveto
          45 callsubr
          5 -162 -20 vvcurveto
          -457 vlineto
          -20 -5 -166 0 vhcurveto
          24 -29 rlineto
          hintmask 11110000
          90 callgsubr
          hintmask 11100000
          0 -9 50 40 vvcurveto
          endchar
        </CharString>
        <CharString name="bracketright">
          -297 -121 66 750 66 hstem
          108 112 vstem
          108 40 rmoveto
          45 callgsubr
          -5 166 20 vvcurveto
          457 vlineto
          20 5 162 0 vhcurveto
          43 callgsubr
        </CharString>
        <CharString name="breve">
          572 76 hstem
          26 80 callgsubr
          vstem
          268 727 -58 callgsubr
        </CharString>
        <CharString name="breve.cap">
          532 76 hstem
          26 80 callgsubr
          vstem
          268 687 -58 callgsubr
        </CharString>
        <CharString name="brokenbar">
          78 callgsubr
          392 rmoveto
          360 vlineto
          -95 8 rlineto
          -360 vlineto
          -188 vmoveto
          -325 vlineto
          95 -9 rlineto
          327 vlineto
          endchar
        </CharString>
        <CharString name="bullet">
          -332 152 203 hstem
          20 190 vstem
          115 355 rmoveto
          -61 -34 -42 -60 -60 34 -41 61 61 34 41 60 64 -36 38 -59 hvcurveto
          endchar
        </CharString>
        <CharString name="c">
          -79 callsubr
          endchar
        </CharString>
        <CharString name="c.sups">
          -247 440 67 216 54 hstem
          19 113 99 65 vstem
          182 777 rmoveto
          -100 -63 -63 -105 -112 58 -57 109 37 44 13 35 40 hvcurveto
          -24 39 rlineto
          0 -30 -20 -44 -50 -27 30 72 83 19 31 38 13 18 -7 -10 10 vhcurveto
          2 -26 -1 -37 60 -2 11 121 rlineto
          -5 -59 15 -56 hhcurveto
          120 -14 rmoveto
          -1 vlineto
          endchar
        </CharString>
        <CharString name="cacute">
          -79 callsubr
          -77 741 rmoveto
          -80 callgsubr
          endchar
        </CharString>
        <CharString name="caron">
          707 -20 hstem
          -18 396 vstem
          34 765 rmoveto
          -80 callsubr
          endchar
        </CharString>
        <CharString name="caron.cap">
          497 191 hstem
          -18 396 vstem
          331 688 rmoveto
          -68 callsubr
        </CharString>
        <CharString name="ccaron">
          -53 -11 85 388 85 160 -20 hstemhm
          19 169 203 75 -61 69 hintmask 11110100
          -72 callsubr
          hintmask 11111000
          30 18 -2 -5 32 hvcurveto
          4 -7 5 -17 -3 vvcurveto
          4 -53 66 -3 10 149 rlineto
          13 -50 -52 13 -67 hhcurveto
          -188 -95 -114 -165 -166 95 -113 188 hvcurveto
          hintmask 11110100
          67 59 13 12 50 hvcurveto
          -320 751 rmoveto
          -80 callsubr
          endchar
        </CharString>
        <CharString name="ccedilla">
          -53 75 callsubr
          92 84 388 85 hstemhm
          19 169 138 90 -25 75 -61 69 hintmask 11111001
          -72 callsubr
          hintmask 11111010
          30 18 -2 -5 32 hvcurveto
          4 -7 5 -17 -3 vvcurveto
          4 -53 66 -3 10 149 rlineto
          13 -50 -52 13 -67 hhcurveto
          -188 -95 -114 -165 -154 81 -108 161 -15 hvcurveto
          hintmask 11111100
          -9 -93 -76 callsubr
          10 49 rlineto
          hintmask 11111001
          57 2 52 11 44 11 rrcurveto
          endchar
        </CharString>
        <CharString name="ccircumflex">
          -79 callsubr
          -175 751 rmoveto
          -84 callgsubr
          endchar
        </CharString>
        <CharString name="cdotaccent">
          -53 -11 85 388 85 29 159 hstemhm
          19 169 37 158 8 75 -61 69 hintmask 11010010
          -72 callsubr
          hintmask 11010100
          30 18 -2 -5 32 hvcurveto
          4 -7 5 -17 -3 vvcurveto
          4 -53 66 -3 10 149 rlineto
          13 -50 -52 13 -67 hhcurveto
          -188 -95 -114 -165 -166 95 -113 188 hvcurveto
          hintmask 11010010
          67 59 13 12 50 hvcurveto
          hintmask 11111010
          -174 721 -65 callgsubr
        </CharString>
        <CharString name="cedilla">
          -235 56 64 125 hstem
          212 90 vstem
          215 10 rmoveto
          -66 hlineto
          -11 -112 -76 callsubr
          endchar
        </CharString>
        <CharString name="cent">
          -56 65 97 342 183 hstemhm
          40 159 41 65 -40 64 43 82 hintmask 11110100
          hintmask 11101100
          332 686 rmoveto
          -64 3 -5 -107 rlineto
          -147 -10 -76 -104 -143 vvcurveto
          hintmask 11110100
          -150 68 -91 134 -16 vhcurveto
          -4 -107 65 -3 4 107 59 4 58 26 47 41 rlinecurve
          -35 58 rlineto
          0 -48 -32 -69 -95 -25 74 89 95 10 84 95 25 25 -13 -13 15 vhcurveto
          4 -39 -1 -54 75 -3 15 177 rlineto
          hintmask 11101100
          0 -62 16 -72 6 vhcurveto
          endchar
        </CharString>
        <CharString name="circumflex">
          564 201 hstem
          -18 396 vstem
          180 765 rmoveto
          -84 callgsubr
          endchar
        </CharString>
        <CharString name="circumflex.cap">
          506 191 hstem
          -18 396 vstem
          180 697 rmoveto
          -73 callgsubr
        </CharString>
        <CharString name="colon">
          -324 -15 159 184 159 hstem
          45 148 vstem
          119 487 50 callgsubr
          -343 vmoveto
          -58 callsubr
          endchar
        </CharString>
        <CharString name="comma">
          -323 -136 290 -164 164 hstemhm
          45 151 hintmask 10100000
          hintmask 01100000
          14 callgsubr
          endchar
        </CharString>
        <CharString name="copyright">
          283 -115 69 90 61 8 53 236 61 83 69 hstemhm
          57 69 96 123 159 56 -43 49 152 70 hintmask 1101111101000000
          -30 callgsubr
          hintmask 1111111011000000
          -154 -83 rmoveto
          -47 -1 rlineto
          0 -2 -21 -1 -7 vhcurveto
          -3 -9 -22 0 vhcurveto
          hintmask 1101111101000000
          -6 -28 -17 -2 -26 hhcurveto
          -66 -23 67 82 83 23 65 67 23 15 -2 -4 24 hvcurveto
          3 -6 4 -14 -1 vvcurveto
          3 -39 49 -2 9 109 rlineto
          9 -39 -39 11 -52 hhcurveto
          -142 -71 -86 -124 -123 71 -86 142 hvcurveto
          hintmask 1101111011000000
          51 44 11 9 39 hvcurveto
          endchar
        </CharString>
        <CharString name="d">
          22 -5 74 402 72 -3 -20 5 callgsubr
          173 155 hintmask 11011000
          292 543 rmoveto
          -31 -109 -8 1 -30 hvcurveto
          hintmask 10111000
          -3 callgsubr
          hintmask 11011000
          -1 callgsubr
          endchar
        </CharString>
        <CharString name="d.sups">
          -162 450 52 -52 73 -25 -20 233 66 153 11 hstemhm
          18 113 105 100 hintmask 10011110
          hintmask 00111110
          381 498 rmoveto
          hintmask 10011110
          -39 0 callgsubr
          229 13 callgsubr
          -30 -49 8 0 hvcurveto
          -6 -52 48 -11 rlineto
          0 6 -45 -13 vvcurveto
          -52 vlineto
          -16 -18 1 -13 hhcurveto
          -110 -61 -62 -111 hvcurveto
          hintmask 01011110
          -103 44 -58 80 44 27 14 41 31 vhcurveto
          hintmask 10011110
          4 -48 rlineto
          96 33 -3 0 hvcurveto
          hintmask 01011110
          -141 158 rmoveto
          -55 -4 -17 -27 -32 hhcurveto
          -36 -16 28 64 69 19 27 47 9 13 -2 -4 17 hvcurveto
          endchar
        </CharString>
        <CharString name="dagger">
          -30 509 -20 25 247 hstemhm
          40 181 5 80 5 181 hintmask 10101000
          hintmask 01010000
          306 514 rmoveto
          41 callgsubr
          -91 vmoveto
          -50 -33 -455 77 callgsubr
          487 20 vvcurveto
          hintmask 10101000
          -85 86 rmoveto
          42 callgsubr
          90 hmoveto
          41 callsubr
          endchar
        </CharString>
        <CharString name="daggerdbl">
          -30 313 110 86 -20 25 247 hstemhm
          40 181 -151 151 5 80 5 151 -151 181 hintmask 11000100
          226 223 rmoveto
          -50 -33 -255 77 callgsubr
          287 20 vvcurveto
          hintmask 00100100
          291 vmoveto
          41 callgsubr
          hintmask 01010001
          85 -86 rmoveto
          41 callsubr
          -90 hmoveto
          42 callgsubr
          hintmask 10001010
          90 -198 rmoveto
          63 -4 75 -11 0 vvcurveto
          18 19 -10 90 -6 6 rlineto
          0 -115 -18 -25 -1 vhcurveto
          -90 hmoveto
          -63 4 -75 11 0 vvcurveto
          -18 -19 10 -90 6 -6 rlineto
          0 115 18 25 1 vhcurveto
          hintmask 10000100
          85 83 rmoveto
          110 -80 -110 vlineto
          endchar
        </CharString>
        <CharString name="dcaron">
          22 -5 74 402 72 -3 -20 187 -20 5 callgsubr
          173 155 hintmask 11011100
          292 543 rmoveto
          -31 -109 -8 1 -30 hvcurveto
          hintmask 10111100
          -3 callgsubr
          hintmask 11011100
          -1 callgsubr
          -140 294 rmoveto
          -80 callsubr
          endchar
        </CharString>
        <CharString name="dcroat">
          -42 -67 callsubr
        </CharString>
        <CharString name="degree">
          -181 368 61 176 61 hstem
          30 97 127 97 vstem
          351 517 rmoveto
          92 -62 57 -99 -98 -62 -57 -92 -92 62 -57 98 99 62 57 92 vhcurveto
          -224 hmoveto
          47 18 41 46 45 18 -41 -47 -47 -18 -41 -45 -46 -18 41 47 vhcurveto
          endchar
        </CharString>
        <CharString name="dieresis">
          586 81 callgsubr
          725 -92 callgsubr
        </CharString>
        <CharString name="dieresis.cap">
          546 81 callgsubr
          685 -92 callgsubr
        </CharString>
        <CharString name="divide">
          29 -6 159 52 102 50 159 hstem
          221 148 vstem
          523 208 rmoveto
          100 -455 -105 vlineto
          227 313 50 callgsubr
          -363 vmoveto
          -58 callsubr
          endchar
        </CharString>
        <CharString name="dollar">
          -20 -91 168 503 87 hstemhm
          45 160 -154 78 97 65 -33 64 20 161 -117 79 hintmask 11100101
          hintmask 11100110
          342 148 rmoveto
          -49 -43 -21 -47 vhcurveto
          hintmask 11011010
          -74 -36 22 4 -5 hvcurveto
          -4 17 -3 18 1 4 rrcurveto
          -1 10 0 34 0 vvcurveto
          -71 5 -15 -158 rlineto
          0 71 -40 113 -7 vhcurveto
          -3 -76 65 -3 3 78 rlineto
          118 10 92 67 118 vvcurveto
          hintmask 11100110
          223 -298 -12 119 vvcurveto
          43 37 26 51 vhcurveto
          hintmask 11100101
          45 26 -9 -18 20 hvcurveto
          1 -5 1 -4 -2 vvcurveto
          -54 vlineto
          73 -4 13 152 -47 11 -54 12 -51 5 rlinecurve
          4 92 -64 3 -4 -92 rlineto
          -121 -3 -90 -60 -112 vvcurveto
          hintmask 11100110
          -233 297 21 -132 vvcurveto
          endchar
        </CharString>
        <CharString name="dotaccent">
          576 159 hstem
          101 158 vstem
          180 735 -65 callgsubr
        </CharString>
        <CharString name="dotaccent.cap">
          536 159 hstem
          101 158 vstem
          180 695 -65 callgsubr
        </CharString>
        <CharString name="dotbelowcomb">
          -220 155 hstem
          103 154 vstem
          180 -65 rmoveto
          -50 -27 -32 -46 -46 27 -31 50 50 27 31 46 49 -29 29 -48 hvcurveto
          endchar
        </CharString>
        <CharString name="dotlessi">
          -23 callgsubr
          hstemhm
          96 38 callsubr
          55 callgsubr
          hintmask 11010000
          -47 -23 -64 callgsubr
          hintmask 10110000
          5 callsubr
          hintmask 11010000
          -99 callsubr
          endchar
        </CharString>
        <CharString name="dotlessj">
          -71 callgsubr
          endchar
        </CharString>
        <CharString name="e">
          -68 0 79 152 73 7 46 106 73 -62 62 7 -20 22 callsubr
          hintmask 1101001100000000
          hintmask 1100101100000000
          -106 callsubr
          hintmask 1011001100000000
          -46 callsubr
          hintmask 1101001100000000
          7 callgsubr
          -50 110 hlineto
          30 callsubr
          hintmask 1101001010000000
          -81 callsubr
          hintmask 1100011010000000
          -42 callgsubr
          hintmask 1101001010000000
          -17 callsubr
          endchar
        </CharString>
        <CharString name="e.sups">
          -219 440 66 86 52 78 55 hstem
          19 113 77 112 vstem
          181 777 rmoveto
          -95 -67 -59 -111 -108 62 -59 101 47 44 10 37 41 hvcurveto
          -24 39 rlineto
          0 -30 -20 -46 -51 -26 18 68 -5 vhcurveto
          174 hlineto
          15 26 rlineto
          100 7 -53 59 -94 hhcurveto
          -9 -55 rmoveto
          25 12 -22 -50 -1 -1 -3 0 hvcurveto
          -76 -4 rlineto
          48 2 8 32 30 hhcurveto
          endchar
        </CharString>
        <CharString name="eacute">
          -97 callgsubr
          296 215 rmoveto
          hintmask 1100010110000000
          -80 callgsubr
          endchar
        </CharString>
        <CharString name="ebreve">
          -55 callsubr
          51 76 hstemhm
          89 66 -63 145 80 57 -43 66 -18 64 hintmask 1101000101100000
          hintmask 1100100101100000
          -106 callsubr
          hintmask 1011000101100000
          -46 callsubr
          hintmask 1101000101100000
          7 callgsubr
          -50 110 hlineto
          30 callsubr
          hintmask 1101000101001000
          -81 callsubr
          hintmask 1100001101001000
          -42 callgsubr
          hintmask 1101000101001000
          -17 callsubr
          287 189 rmoveto
          hintmask 1100010101010000
          26 callgsubr
          hintmask 1101000110010000
          -48 callgsubr
        </CharString>
        <CharString name="ecaron">
          -55 callsubr
          184 -20 22 callsubr
          hintmask 1101000111000000
          hintmask 1100100111000000
          -106 callsubr
          hintmask 1011000111000000
          -46 callsubr
          hintmask 1101000111000000
          7 callgsubr
          -50 110 hlineto
          30 callsubr
          hintmask 1101000110100000
          -81 callsubr
          hintmask 1100001110100000
          -42 callgsubr
          hintmask 1101000110100000
          -17 callsubr
          57 225 rmoveto
          hintmask 1100010111000000
          -80 callsubr
          endchar
        </CharString>
        <CharString name="ecircumflex">
          -97 callgsubr
          199 225 rmoveto
          hintmask 1100010110000000
          -84 callgsubr
          endchar
        </CharString>
        <CharString name="edieresis">
          -55 callsubr
          63 139 hstemhm
          57 135 -100 145 58 134 -112 57 5 64 hintmask 1101000101010000
          hintmask 1100100101010000
          -106 callsubr
          hintmask 1011000101010000
          -46 callsubr
          hintmask 1101000101010000
          7 callgsubr
          -50 110 hlineto
          30 callsubr
          hintmask 1101000101001000
          -81 callsubr
          hintmask 1100001101001000
          -42 callgsubr
          hintmask 1101000101001000
          -17 callsubr
          81 185 rmoveto
          hintmask 1100010101010000
          -44 -24 -29 -41 hvcurveto
          hintmask 1101000110100000
          -26 callgsubr
        </CharString>
        <CharString name="edotaccent">
          -55 callsubr
          53 159 5 callgsubr
          -69 158 -9 57 5 64 hintmask 1101000110100000
          hintmask 1100100110100000
          -106 callsubr
          hintmask 1011000110100000
          -46 callsubr
          hintmask 1101000110100000
          7 callgsubr
          -50 110 hlineto
          30 callsubr
          hintmask 1101000110010000
          -81 callsubr
          hintmask 1100001110010000
          -42 callgsubr
          hintmask 1101000110010000
          -17 callsubr
          203 195 rmoveto
          hintmask 1100010110100000
          -51 -28 -33 -47 hvcurveto
          hintmask 1101000101000000
          -47 28 -32 51 51 28 32 47 50 -30 30 -49 vhcurveto
          endchar
        </CharString>
        <CharString name="egrave">
          -97 callgsubr
          309 83 rmoveto
          hintmask 1100010110000000
          -56 callsubr
        </CharString>
        <CharString name="eight">
          -19 -10 82 528 82 hstemhm
          30 147 -125 144 149 144 -126 148 hintmask 11100100
          hintmask 11010100
          52 522 rmoveto
          -89 47 -52 58 -39 vhcurveto
          hintmask 11100100
          -59 -37 -68 -59 -82 vvcurveto
          -121 119 -53 121 115 126 52 114 99 -60 53 -68 41 vhcurveto
          hintmask 11101000
          49 37 57 59 74 vvcurveto
          107 -111 56 -107 vhcurveto
          hintmask 11010100
          -107 -112 -54 -106 hvcurveto
          hintmask 11100100
          125 -357 rmoveto
          52 35 42 38 29 vhcurveto
          61 -33 52 -33 -60 vvcurveto
          -58 -35 -32 -57 -58 -36 36 57 vhcurveto
          hintmask 11011000
          168 353 rmoveto
          -47 -25 -40 -28 -31 vhcurveto
          -54 31 -42 34 56 vvcurveto
          44 30 35 45 48 26 -35 -47 vhcurveto
          endchar
        </CharString>
        <CharString name="eight.dnom">
          -165 -7 49 callgsubr
          349 -48 callsubr
        </CharString>
        <CharString name="eight.numr">
          -193 293 57 337 56 hstemhm
          23 102 -88 101 92 101 -89 103 hintmask 11100100
          hintmask 11010100
          37 639 rmoveto
          -57 35 -35 40 -26 vhcurveto
          hintmask 11100100
          42 callsubr
          hintmask 11101000
          36 24 38 36 48 vvcurveto
          69 -72 37 -75 vhcurveto
          hintmask 11010100
          -77 -70 -38 -66 hvcurveto
          hintmask 11100100
          28 callsubr
          hintmask 11011000
          24 callgsubr
        </CharString>
        <CharString name="eight.osf">
          -19 -10 80 532 80 hstemhm
          30 145 -123 142 153 142 -124 146 hintmask 11100100
          hintmask 11010100
          52 521 rmoveto
          -88 53 -53 61 -39 vhcurveto
          hintmask 11100100
          -64 -37 -72 -59 -81 vvcurveto
          -122 118 -52 123 124 116 51 121 94 -66 55 -70 40 vhcurveto
          hintmask 11101000
          53 37 61 58 73 vvcurveto
          105 -107 58 -111 vhcurveto
          hintmask 11010100
          -115 -104 -59 -102 hvcurveto
          hintmask 11100100
          123 -357 rmoveto
          56 37 44 38 30 vhcurveto
          63 -35 52 -33 -66 vvcurveto
          -58 -35 -32 -59 -61 -35 36 58 vhcurveto
          hintmask 11011000
          172 355 rmoveto
          -50 -26 -43 -27 -31 vhcurveto
          -56 32 -44 31 65 vvcurveto
          48 37 31 40 43 33 -31 -52 vhcurveto
          endchar
        </CharString>
        <CharString name="eight.sinf">
          -165 -107 49 callgsubr
          249 -48 callsubr
        </CharString>
        <CharString name="eight.sups">
          -193 443 57 210 -20 147 56 hstemhm
          23 102 -88 101 92 101 -89 103 hintmask 11110010
          hintmask 11101010
          37 789 rmoveto
          -57 35 -35 40 -26 vhcurveto
          hintmask 11110010
          42 callsubr
          hintmask 11110100
          36 24 38 36 48 vvcurveto
          69 -72 37 -75 vhcurveto
          hintmask 11101010
          -77 -70 -38 -66 hvcurveto
          hintmask 11110010
          28 callsubr
          hintmask 11101100
          24 callgsubr
        </CharString>
        <CharString name="eight.tf">
          -68 callgsubr
        </CharString>
        <CharString name="eight.tosf">
          -68 callgsubr
        </CharString>
        <CharString name="ellipsis">
          71 88 callsubr
          46 152 cntrmask 01110000
          3 callsubr
          198 hmoveto
          -49 -27 -34 -48 -48 27 -33 49 49 27 33 48 51 -29 31 -47 hvcurveto
          endchar
        </CharString>
        <CharString name="emacron">
          -55 callsubr
          73 73 22 callsubr
          hintmask 1101000111000000
          hintmask 1100100111000000
          -106 callsubr
          hintmask 1011000111000000
          -46 callsubr
          hintmask 1101000111000000
          7 callgsubr
          -50 110 hlineto
          30 callsubr
          hintmask 1101000110100000
          -81 callsubr
          hintmask 1100001110100000
          -42 callgsubr
          hintmask 1101000110100000
          -17 callsubr
          357 56 rmoveto
          hintmask 1100010111000000
          -13 callgsubr
        </CharString>
        <CharString name="emdash">
          444 206 95 hstem
          0 1006 vstem
          2 206 rmoveto
          999 hlineto
          5 95 rlineto
          -1006 hlineto
          endchar
        </CharString>
        <CharString name="endash">
          -58 206 95 hstem
          0 504 vstem
          2 206 79 callgsubr
        </CharString>
        <CharString name="eng">
          -68 -197 64 133 79 152 73 7 46 106 73 -62 62 7 -20 5 callgsubr
          -8 107 -19 57 5 64 hintmask 1110100101000000
          hintmask 1110010101000000
          40 474 rmoveto
          5 callsubr
          6 -20 1 -27 -54 callsubr
          -4 -46 -3 -63 callgsubr
          3 49 1 vhcurveto
          hintmask 1110100010000000
          184 hlineto
          -32 -30 -38 -24 -54 -42 callsubr
          65 72 17 30 hvcurveto
          14 14 12 144 -60 4 -2 -13 -3 -15 -3 -11 rlinecurve
          -3 -8 -3 -12 -8 -16 rrcurveto
          hintmask 1110100101000000
          -3 -15 -19 -2 -21 hhcurveto
          -89 hlineto
          15 -1 36 28 vvcurveto
          73 35 vlineto
          15 27 -5 0 hvcurveto
          7 -42 56 4 rlineto
          hintmask 1101100101000000
          -46 callsubr
          hintmask 1110100101000000
          7 callgsubr
          -50 110 hlineto
          30 callsubr
          hintmask 1110100100100000
          -81 callsubr
          hintmask 1110001100100000
          -42 callgsubr
          hintmask 1110100100100000
          -17 callsubr
          endchar
        </CharString>
        <CharString name="eogonek">
          90 52 callsubr
          14 51 callgsubr
          hintmask 11011000
          4 callgsubr
          -84 5 -4 -63 45 -12 rlineto
          1 -11 6 -48 -37 vvcurveto
          -167 vlineto
          -153 208 rlineto
          hintmask 10111000
          -11 17 -53 93 0 vvcurveto
          -14 14 rlineto
          -102 hlineto
          hintmask 11011000
          -47 1 -24 4 0 vvcurveto
          -4 -66 44 -9 rlineto
          2 -7 5 -40 -54 callsubr
          -5 -45 -2 -8 vhcurveto
          -74 callsubr
          26 4 47 101 45 -39 callgsubr
          -44 4 rlineto
          6 -8 45 42 vvcurveto
          140 vlineto
          226 -300 rlineto
          -6 -58 -117 0 vhcurveto
          50 -27 83 76 60 54 -4 25 rlinecurve
          0 -1 58 42 vvcurveto
          315 vlineto
          7 4 35 1 6 vhcurveto
          46 hlineto
          endchar
        </CharString>
        <CharString name="equal">
          23 100 103 87 103 hstem
          65 455 vstem
          520 293 rmoveto
          101 -455 -106 vlineto
          455 -185 rmoveto
          101 -455 -106 vlineto
          endchar
        </CharString>
        <CharString name="estimated">
          235 -12 20 303 18 302 20 hstem
          40 135 468 134 vstem
          180 311 rmoveto
          597 8 hlineto
          184 -165 148 -203 -203 -166 -148 -184 -183 166 -148 203 118 107 51 78 67 vhcurveto
          -54 hlineto
          -67 -57 -85 -42 -95 hhcurveto
          -89 -81 37 60 -56 hvcurveto
          -5 6 -4 7 8 vvcurveto
          181 vlineto
          3 2 1 3 vhcurveto
          463 205 rmoveto
          -182 vlineto
          -3 -2 -2 -3 vhcurveto
          -458 hlineto
          -3 -2 2 3 hvcurveto
          178 vlineto
          9 4 8 6 6 vhcurveto
          59 57 79 37 89 hhcurveto
          87 79 -36 -57 57 hvcurveto
          6 -6 4 -7 -9 vvcurveto
          endchar
        </CharString>
        <CharString name="eth">
          12 -67 callsubr
        </CharString>
        <CharString name="etilde">
          -55 callsubr
          71 91 -53 91 22 callsubr
          hintmask 1101000101100000
          hintmask 1100100101100000
          -106 callsubr
          hintmask 1011000101100000
          -46 callsubr
          hintmask 1101000101100000
          7 callgsubr
          -50 110 hlineto
          30 callsubr
          hintmask 1101000101010000
          -81 callsubr
          hintmask 1100001101010000
          -42 callgsubr
          hintmask 1101000101010000
          -17 callsubr
          311 183 rmoveto
          hintmask 1100010101100000
          40 callsubr
          90 callsubr
          hintmask 1101000011100000
          47 -28 rlineto
          0 25 42 24 vhcurveto
          43 79 -55 callgsubr
        </CharString>
        <CharString name="exclam">
          -323 -15 159 577 -20 hstemhm
          55 148 -130 115 hintmask 11010000
          191 241 rmoveto
          0 -3 47 30 vvcurveto
          157 25 218 0 vhcurveto
          -29 28 -120 -9 9 -416 rlineto
          -30 -1 -36 0 39 57 -4 -1 6 vhcurveto
          hintmask 11100000
          -45 -81 50 callgsubr
          endchar
        </CharString>
        <CharString name="exclamdown">
          -323 349 159 hstemhm
          36 148 -133 115 hintmask 10100000
          48 252 rmoveto
          0 3 -47 -30 vvcurveto
          -157 -25 -218 0 vhcurveto
          29 -28 120 9 -9 416 rlineto
          30 1 36 0 -39 -57 4 1 -6 vhcurveto
          hintmask 11000000
          45 240 50 callgsubr
          endchar
        </CharString>
        <CharString name="f">
          -110 0 63 158 74 6 46 116 73 84 callgsubr
          92 145 80 57 3 66 hintmask 1101000110000000
          hintmask 1100001101000000
          426 543 rmoveto
          0 -72 -7 -15 vhcurveto
          hintmask 1101000101000000
          -224 hlineto
          -47 -24 -64 callgsubr
          hintmask 1100010110000000
          5 callsubr
          hintmask 1100100110000000
          4 -11 3 -36 -54 callsubr
          -4 -46 -3 -63 callgsubr
          4 47 101 99 -39 callgsubr
          -71 4 rlineto
          -4 14 -4 34 41 vvcurveto
          67 vlineto
          1 3 6 -1 3 hhcurveto
          23 hlineto
          15 27 -4 0 hvcurveto
          7 -43 56 5 rlineto
          0 -2 66 38 vvcurveto
          62 vlineto
          hintmask 1011000110000000
          -54 4 -7 -48 rlineto
          0 -12 -6 -15 vhcurveto
          -39 hlineto
          hintmask 1101000110000000
          -4 -1 -1 1 -6 hvcurveto
          119 vlineto
          30 callsubr
          77 hlineto
          23 23 -3 -1 15 hvcurveto
          hintmask 1101000101000000
          -7 2 -4 -2 vvcurveto
          3 -11 2 -24 1 -12 61 4 rcurveline
          -5 127 rlineto
          endchar
        </CharString>
        <CharString name="f.sups">
          -314 18 callsubr
          242 51 123 57 hstemhm
          67 100 61 57 hintmask 10011110
          187 951 rmoveto
          -72 -48 -54 -72 hvcurveto
          -51 vlineto
          -10 -3 -12 -3 -15 -5 2 -43 rcurveline
          35 -161 hlineto
          -13 -6 -44 0 vhcurveto
          hintmask 01011110
          -34 -7 rlineto
          hintmask 10011110
          44 callgsubr
          30 3 35 79 51 54 callsubr
          -55 0 callgsubr
          141 63 vlineto
          7 51 rlineto
          -70 50 hlineto
          51 6 22 28 11 8 -3 -3 6 vhcurveto
          1 -9 1 -13 -6 vvcurveto
          -30 vlineto
          52 -2 10 113 rlineto
          0 -54 10 -49 vhcurveto
          endchar
        </CharString>
        <CharString name="five">
          -76 280 103 138 131 hstem
          294 156 vstem
          174 652 -23 callsubr
          91 callsubr
        </CharString>
        <CharString name="five.dnom">
          -204 185 83 callgsubr
          437 -28 callgsubr
        </CharString>
        <CharString name="five.numr">
          -230 480 71 -41 -20 142 92 hstemhm
          193 111 hintmask 10110000
          121 724 rmoveto
          -61 hlineto
          -12 -12 rlineto
          hintmask 01110000
          0 -11 -103 -7 -99 vhcurveto
          hintmask 10110000
          -16 callsubr
        </CharString>
        <CharString name="five.osf">
          -76 167 103 138 131 10 -20 hstemhm
          294 156 hintmask 11010000
          174 539 -23 callsubr
          hintmask 10110000
          91 callsubr
        </CharString>
        <CharString name="five.sinf">
          -204 85 83 callgsubr
          337 -28 callgsubr
        </CharString>
        <CharString name="five.sups">
          -230 630 71 81 92 hstem
          193 111 vstem
          121 874 rmoveto
          -61 hlineto
          -12 -12 rlineto
          0 -11 -103 -7 -99 vhcurveto
          -16 callsubr
        </CharString>
        <CharString name="five.tf">
          -52 280 103 138 131 hstem
          311 156 vstem
          181 652 19 callsubr
          40 30 3 23 hhcurveto
          85 37 -43 -73 -99 -77 -56 -184 -40 hvcurveto
          22 -74 rlineto
          260 39 135 97 156 vvcurveto
          121 -82 75 -152 -17 -26 -1 -3 -21 vhcurveto
          9 142 rlineto
          94 hlineto
          30 137 14 0 hvcurveto
          91 callsubr
        </CharString>
        <CharString name="five.tosf">
          -52 167 103 138 131 10 -20 hstemhm
          310 156 hintmask 11010000
          180 539 19 callsubr
          40 30 3 23 hhcurveto
          85 37 -43 -73 -99 -77 -56 -184 -40 hvcurveto
          22 -74 rlineto
          260 39 135 97 156 vvcurveto
          121 -82 75 -152 -17 -26 -1 -3 -21 vhcurveto
          9 142 rlineto
          94 hlineto
          30 137 14 0 hvcurveto
          hintmask 10110000
          91 callsubr
        </CharString>
        <CharString name="florin">
          -177 -194 78 535 75 8 -20 207 81 hstemhm
          83 140 -127 138 100 82 hintmask 11011000
          hintmask 10110110
          236 560 rmoveto
          80 3 5 49 50 hhcurveto
          15 13 -4 -4 9 hvcurveto
          4 -44 -1 -45 75 -3 15 167 rlineto
          0 -78 14 -69 -110 -65 -67 -106 -4 vhcurveto
          -4 -95 rlineto
          hintmask 10111000
          -18 -8 -20 -4 -24 -8 rrcurveto
          hintmask 11011000
          3 -63 rlineto
          56 hlineto
          -15 -409 rlineto
          -75 -2 -5 -51 -62 hhcurveto
          -2 -78 rlineto
          133 73 68 105 5 hvcurveto
          15 440 rlineto
          113 hlineto
          9 75 rlineto
          hintmask 11010100
          -120 hlineto
          endchar
        </CharString>
        <CharString name="foundryicon">
          162 61 152 52 157 135 87 hstem
          88 91 74 67 74 65 142 70 vstem
          591 61 rmoveto
          52 28 28 52 hvcurveto
          423 vlineto
          52 -28 28 -52 vhcurveto
          -423 hlineto
          -52 -28 -28 -52 hvcurveto
          -423 vlineto
          -52 28 -28 52 vhcurveto
          148 403 rmoveto
          45 33 -31 -42 hvcurveto
          -178 -74 136 vlineto
          38 -14 18 -29 -18 -6 -3 -9 vhcurveto
          -180 -74 344 74 -116 vlineto
          -6 2 -3 4 3 3 2 2 3 vhcurveto
          155 -14 rmoveto
          18 vlineto
          89 56 rlineto
          21 -28 hlineto
          -6 4 -4 6 vhcurveto
          58 -36 -58 hlineto
          -7 -3 -4 -6 hvcurveto
          -90 vlineto
          -40 12 -17 29 8 9 1 3 9 vhcurveto
          -25 vlineto
          -63 -37 rlineto
          -45 -33 31 42 hvcurveto
          132 vlineto
          7 -3 3 -7 vhcurveto
          endchar
        </CharString>
        <CharString name="four">
          1 0 74 108 91 hstem
          294 140 vstem
          364 739 rmoveto
          -354 -465 74 -92 rlineto
          210 -21 hlineto
          -19 -9 -64 -1 vvcurveto
          -106 -12 5 -70 rlineto
          0 82 5 45 110 104 -5 0 vhcurveto
          5 76 -87 6 rlineto
          1 -9 40 42 vvcurveto
          22 94 105 vlineto
          -94 -5 rlineto
          136 vlineto
          -140 -48 rlineto
          -97 -139 vlineto
          190 257 rlineto
          15 23 104 102 0 vvcurveto
          endchar
        </CharString>
        <CharString name="four.dnom">
          -150 0 51 69 65 310 -20 hstem
          211 104 vstem
          261 495 -78 callsubr
        </CharString>
        <CharString name="four.numr">
          -178 300 49 67 64 57 -20 hstem
          196 101 vstem
          244 780 54 callgsubr
          -62 -7 3 -47 rlineto
          0 42 3 33 76 60 -3 0 vhcurveto
          3 51 11 callgsubr
        </CharString>
        <CharString name="four.osf">
          1 0 91 hstem
          299 141 vstem
          344 571 rmoveto
          -333 -479 73 -92 rlineto
          215 -218 hlineto
          141 47 rlineto
          171 83 vlineto
          5 96 -88 80 callsubr
          -146 hlineto
          180 271 70 callgsubr
        </CharString>
        <CharString name="four.sinf">
          -150 -100 51 69 65 hstem
          211 104 vstem
          261 395 -78 callsubr
        </CharString>
        <CharString name="four.sups">
          -178 450 51 -7 7 -3 -20 88 64 91 -20 hstemhm
          196 101 hintmask 10011100
          244 930 54 callgsubr
          hintmask 01011100
          -62 -7 rlineto
          hintmask 10011100
          3 -47 rlineto
          0 42 3 33 76 60 -3 0 vhcurveto
          hintmask 00111100
          3 51 rlineto
          hintmask 10011100
          11 callgsubr
        </CharString>
        <CharString name="four.tf">
          -52 0 74 108 91 hstem
          264 141 vstem
          335 739 rmoveto
          -333 -465 73 -92 rlineto
          188 -21 hlineto
          -19 -9 -64 -1 vvcurveto
          -109 -12 4 -70 rlineto
          0 80 5 46 108 109 -5 0 vhcurveto
          5 76 -85 6 rlineto
          1 -9 40 1 42 vhcurveto
          22 88 vlineto
          1 105 -88 -5 1 136 -141 -48 -1 -97 rlineto
          -120 hlineto
          180 257 70 callgsubr
        </CharString>
        <CharString name="four.tosf">
          -52 0 91 hstem
          272 141 vstem
          334 571 rmoveto
          -333 -479 73 -92 rlineto
          198 -218 hlineto
          141 47 rlineto
          171 74 vlineto
          5 96 -79 80 callsubr
          -129 hlineto
          180 271 70 callgsubr
        </CharString>
        <CharString name="fraction">
          -462 720 -20 hstem
          -217 495 vstem
          208 720 -6 callgsubr
          endchar
        </CharString>
        <CharString name="g">
          2 callgsubr
          hstemhm
          19 170 188 124 -90 78 hintmask 11111000
          -100 callsubr
          hintmask 11110100
          -51 callgsubr
          hintmask 11111000
          39 callsubr
          endchar
        </CharString>
        <CharString name="g.sups">
          -206 297 55 190 45 131 -20 34 45 hstemhm
          21 94 -82 109 -87 67 89 109 -57 85 hintmask 1110010100000000
          hintmask 1111010100000000
          341 719 rmoveto
          -3 59 -87 -14 rlineto
          9 -21 -25 4 -27 hhcurveto
          -87 -58 -48 -71 -44 23 -35 38 -19 hvcurveto
          hintmask 1110001100000000
          -27 -26 -12 -17 -9 vvcurveto
          -29 8 -19 19 -15 vhcurveto
          hintmask 1110100010000000
          -36 -18 -25 -22 -15 vvcurveto
          -61 50 -32 98 100 79 56 72 32 -12 21 -23 9 vhcurveto
          hintmask 1110001010000000
          -15 5 -23 4 -99 10 rrcurveto
          -38 4 -16 7 14 vvcurveto
          4 3 5 5 7 vhcurveto
          -3 13 15 -2 17 hhcurveto
          hintmask 1110010100000000
          87 58 47 72 25 -5 15 -10 17 hvcurveto
          hintmask 1111010100000000
          -127 14 rmoveto
          22 11 -22 -48 -51 -11 -24 -24 -23 -11 22 47 52 12 24 24 hvcurveto
          hintmask 1110100010000000
          -54 -304 rmoveto
          32 -6 86 -13 rlineto
          12 -2 9 -9 -10 vvcurveto
          -22 -24 -14 -39 -54 -31 18 31 8 4 12 5 7 vhcurveto
          endchar
        </CharString>
        <CharString name="gbreve">
          2 callgsubr
          27 76 hstemhm
          19 170 -32 66 154 124 -102 66 -54 78 hintmask 1110101000000000
          -100 callsubr
          hintmask 1110100010000000
          -51 callgsubr
          hintmask 1110101000000000
          39 callsubr
          hintmask 1111010100000000
          84 182 -58 callgsubr
        </CharString>
        <CharString name="gcircumflex">
          2 callgsubr
          hstemhm
          19 170 188 124 -90 78 hintmask 11111000
          -100 callsubr
          hintmask 11110100
          -51 callgsubr
          hintmask 11111000
          39 callsubr
          -4 218 rmoveto
          -84 callgsubr
          endchar
        </CharString>
        <CharString name="gcommaaccent">
          2 callgsubr
          hstemhm
          19 170 65 130 -7 124 -90 78 hintmask 11110100
          -100 callsubr
          hintmask 11110010
          -51 callgsubr
          hintmask 11110100
          39 callsubr
          hintmask 11111000
          -61 -673 rmoveto
          -9 callsubr
          -84 callsubr
          endchar
        </CharString>
        <CharString name="gdieresis">
          2 callgsubr
          39 139 hstemhm
          19 170 -64 30 callgsubr
          -120 124 -90 78 hintmask 1111100100000000
          -100 callsubr
          hintmask 1111100010000000
          -51 callgsubr
          hintmask 1111100100000000
          39 callsubr
          hintmask 1111011000000000
          -122 178 -92 callgsubr
        </CharString>
        <CharString name="gdotaccent">
          2 callgsubr
          29 159 hstemhm
          19 170 44 158 -14 124 -90 78 hintmask 11101010
          -100 callsubr
          hintmask 11101001
          -51 callgsubr
          hintmask 11101010
          39 callsubr
          hintmask 11111100
          -3 188 -65 callgsubr
        </CharString>
        <CharString name="germandbls">
          42 -13 88 -75 61 379 107 hstemhm
          79 148 36 74 100 144 hintmask 10111100
          272 247 rmoveto
          145 -82 20 -16 -39 vvcurveto
          -25 -15 -10 -27 -19 -15 6 10 -11 vhcurveto
          -11 19 rlineto
          -1 64 0 -10 0 vvcurveto
          -69 4 rlineto
          hintmask 01111100
          -11 -150 rlineto
          hintmask 10111100
          0 57 -31 78 108 80 65 87 60 -28 32 -128 67 vhcurveto
          132 185 rlineto
          38 -60 -100 26 -85 hhcurveto
          -144 -89 -83 -130 hvcurveto
          hintmask 01111100
          -204 vlineto
          -8 -5 -33 -3 -24 vhcurveto
          -46 -31 callsubr
          0 12 4 86 vhcurveto
          110 hlineto
          -5 38 -4 108 12 vvcurveto
          -1 180 rlineto
          58 39 44 53 37 30 -9 -11 9 vhcurveto
          endchar
        </CharString>
        <CharString name="grave">
          565 190 hstem
          53 254 vstem
          307 623 rmoveto
          -56 callsubr
        </CharString>
        <CharString name="grave.cap">
          529 168 hstem
          43 273 vstem
          316 593 rmoveto
          -44 callgsubr
        </CharString>
        <CharString name="greater">
          -81 -16 528 hstem
          80 361 vstem
          145 512 rmoveto
          -65 -75 215 -189 -215 -189 65 -75 296 264 rlineto
          endchar
        </CharString>
        <CharString name="greaterequal">
          19 0 93 403 69 callsubr
          -212 257 rmoveto
          -202 -143 62 -83 311 226 -311 226 -62 -83 rlineto
          endchar
        </CharString>
        <CharString name="gtilde">
          2 callgsubr
          47 48 callsubr
          19 170 188 124 -90 78 hintmask 11110110
          -100 callsubr
          hintmask 11110101
          -51 callgsubr
          hintmask 11110110
          39 callsubr
          121 176 33 callsubr
          hintmask 11101110
          -42 -81 -60 callsubr
          hintmask 11110110
          43 79 -55 callgsubr
        </CharString>
        <CharString name="guillemotleft">
          -118 10 464 hstem
          20 394 vstem
          20 242 21 callgsubr
          21 -232 21 callgsubr
          endchar
        </CharString>
        <CharString name="guillemotright">
          -118 10 464 hstem
          30 394 vstem
          250 242 21 callsubr
          327 232 21 callsubr
          endchar
        </CharString>
        <CharString name="guilsinglleft">
          -292 10 464 hstem
          20 220 vstem
          20 242 21 callgsubr
          endchar
        </CharString>
        <CharString name="guilsinglright">
          -292 10 464 hstem
          30 220 vstem
          250 242 21 callsubr
          endchar
        </CharString>
        <CharString name="h">
          -76 callgsubr
          endchar
        </CharString>
        <CharString name="h.sups">
          -133 18 callsubr
          229 70 153 11 hstemhm
          67 100 107 100 hintmask 10011110
          11 6 callgsubr
          -5 -36 -1 -8 vhcurveto
          hintmask 01011110
          -42 -7 rlineto
          hintmask 10011110
          44 callgsubr
          30 3 35 79 45 54 callsubr
          75 callgsubr
          42 vlineto
          58 32 28 29 31 15 -21 -29 vhcurveto
          74 callsubr
          hintmask 01011110
          -36 -7 rlineto
          hintmask 10011110
          4 -48 rlineto
          0 20 3 34 79 46 54 callsubr
          -41 0 callgsubr
          89 vlineto
          72 -45 37 -73 -38 -28 -16 -27 -23 vhcurveto
          74 46 callgsubr
        </CharString>
        <CharString name="hbar">
          105 0 63 156 82 58 57 51 69 -69 73 5 callgsubr
          192 145 hintmask 11110110
          hintmask 11101110
          624 540 rmoveto
          0 -72 -4 -101 vhcurveto
          hintmask 11110110
          -47 -23 -64 callgsubr
          hintmask 11101110
          5 callsubr
          hintmask 11110110
          1 -9 3 -16 1 -24 rrcurveto
          -190 hlineto
          9 5 29 3 11 vhcurveto
          46 4 -4 18 callgsubr
          hintmask 11101110
          -47 -24 -64 callgsubr
          hintmask 11110110
          45 -9 1 -9 3 -16 1 -24 rlinecurve
          hintmask 11101110
          -68 hlineto
          hintmask 11110110
          -57 70 -224 vlineto
          -100 callgsubr
          61 192 -84 vlineto
          -17 -7 -46 -7 vvcurveto
          -45 -7 3 -25 callsubr
          100 69 -49 callgsubr
          -2 11 -6 40 42 vvcurveto
          201 64 57 -64 vlineto
          9 5 29 3 11 vhcurveto
          46 4 rlineto
          -391 -169 rmoveto
          59 192 -56 vlineto
          endchar
        </CharString>
        <CharString name="hcircumflex">
          -76 callgsubr
          -295 296 rmoveto
          -84 callgsubr
          endchar
        </CharString>
        <CharString name="hungarumlaut">
          565 197 hstem
          -25 452 vstem
          379 762 -32 callgsubr
        </CharString>
        <CharString name="hungarumlaut.cap">
          707 -20 hstem
          -44 496 vstem
          191 707 -33 callgsubr
        </CharString>
        <CharString name="hyphen">
          -280 206 95 hstem
          31 218 vstem
          32 206 rmoveto
          215 hlineto
          5 95 rlineto
          -222 hlineto
          endchar
        </CharString>
        <CharString name="i">
          -23 callgsubr
          hstemhm
          96 38 callsubr
          55 callgsubr
          hintmask 11010000
          -47 -23 -64 callgsubr
          hintmask 10110000
          5 callsubr
          hintmask 11010000
          -99 callsubr
          endchar
        </CharString>
        <CharString name="i.sups">
          -331 18 callsubr
          282 11 51 108 hstemhm
          62 109 -102 100 hintmask 10011010
          hintmask 00111010
          216 498 rmoveto
          hintmask 10011010
          -41 0 callgsubr
          59 13 callgsubr
          -31 -50 71 callsubr
          -99 vlineto
          -13 -6 -44 0 vhcurveto
          hintmask 01011010
          -42 -7 rlineto
          hintmask 10011010
          77 callsubr
          hintmask 10011100
          -97 483 rmoveto
          -35 -19 -23 -31 -32 19 -22 35 36 19 22 32 33 -21 21 -34 hvcurveto
          endchar
        </CharString>
        <CharString name="iacute">
          -23 callgsubr
          hstemhm
          96 38 callsubr
          55 callgsubr
          hintmask 11010000
          -47 -23 -64 callgsubr
          hintmask 10110000
          5 callsubr
          hintmask 11010000
          -99 callsubr
          -29 286 rmoveto
          -80 callgsubr
          endchar
        </CharString>
        <CharString name="ibreve">
          -23 callgsubr
          54 76 hstemhm
          14 66 16 145 15 66 hintmask 11010100
          hintmask 10110100
          55 callgsubr
          hintmask 11010100
          -47 -23 -64 callgsubr
          hintmask 10110100
          5 callsubr
          hintmask 11010100
          -99 callsubr
          -39 260 28 callgsubr
        </CharString>
        <CharString name="icircumflex">
          -23 callgsubr
          hstemhm
          96 38 callsubr
          55 callgsubr
          hintmask 11010000
          -47 -23 -64 callgsubr
          hintmask 10110000
          5 callsubr
          hintmask 11010000
          -99 callsubr
          -127 296 rmoveto
          -84 callgsubr
          endchar
        </CharString>
        <CharString name="idieresis">
          -23 callgsubr
          66 139 hstemhm
          15 130 -49 145 -51 129 hintmask 11010100
          hintmask 10110100
          55 callgsubr
          hintmask 11010100
          -47 -23 -64 callgsubr
          hintmask 10110100
          5 callsubr
          hintmask 11010100
          -99 callsubr
          -215 256 rmoveto
          -42 -23 -29 -41 hvcurveto
          hintmask 11011010
          -41 23 32 callsubr
          vhcurveto
          174 hmoveto
          -42 -22 -29 -41 -41 22 32 callsubr
          hvcurveto
          endchar
        </CharString>
        <CharString name="idotaccent">
          -23 callgsubr
          56 159 hstemhm
          90 158 -152 145 hintmask 11010100
          hintmask 10110100
          55 callgsubr
          hintmask 11010100
          -47 -23 -64 callgsubr
          hintmask 10110100
          5 callsubr
          hintmask 11010100
          -99 callsubr
          -126 266 rmoveto
          -51 -28 -33 -47 hvcurveto
          hintmask 11011000
          -47 28 -32 51 51 28 32 47 50 -30 30 -49 vhcurveto
          endchar
        </CharString>
        <CharString name="igrave">
          -23 callgsubr
          hstemhm
          86 38 callsubr
          280 -34 callsubr
          hintmask 11010000
          -47 -23 -64 callgsubr
          hintmask 10110000
          5 callsubr
          hintmask 11010000
          -99 callsubr
          -16 154 rmoveto
          -56 callsubr
        </CharString>
        <CharString name="ij">
          50 0 63 404 68 5 -20 hstemhm
          96 145 141 145 hintmask 11011000
          hintmask 10111000
          577 540 rmoveto
          0 -72 -4 -101 vhcurveto
          hintmask 11011000
          -286 hlineto
          -47 -23 -64 callgsubr
          hintmask 10111000
          5 callsubr
          hintmask 11011000
          4 -17 3 -30 -54 callsubr
          -7 -44 -9 vvcurveto
          62 callsubr
          100 69 -49 callgsubr
          -1 5 -7 46 42 -4 callsubr
          4 34 4 11 vhcurveto
          64 5 62 -5 rlineto
          3 -13 4 -34 -52 vvcurveto
          -358 vlineto
          -15 -57 -118 0 vhcurveto
          50 -27 rlineto
          93 81 59 48 27 vvcurveto
          410 vlineto
          6 6 40 2 5 vhcurveto
          46 4 rlineto
          endchar
        </CharString>
        <CharString name="imacron">
          -23 callgsubr
          76 73 hstemhm
          64 145 hintmask 11011000
          hintmask 10111000
          258 -34 callsubr
          hintmask 11011000
          -47 -23 -64 callgsubr
          hintmask 10111000
          5 callsubr
          hintmask 11011000
          -99 callsubr
          18 127 rmoveto
          5 73 rlineto
          -278 -73 hlineto
          endchar
        </CharString>
        <CharString name="infinity">
          188 94 156 169 156 hstem
          18 77 560 77 vstem
          560 575 rmoveto
          -93 -55 -61 -67 -40 hvcurveto
          61 -38 -60 66 -82 hhcurveto
          -122 -52 -118 -122 -122 50 -118 122 94 55 62 69 41 hvcurveto
          -62 39 60 -68 79 hhcurveto
          122 52 118 122 122 -50 118 -122 hvcurveto
          -2 -324 rmoveto
          -51 -43 30 33 -31 hvcurveto
          58 33 32 47 64 hhcurveto
          55 38 -29 -55 -55 -42 -29 -55 hvcurveto
          -366 167 rmoveto
          51 42 -31 -33 31 hvcurveto
          -57 -32 -33 -47 -63 hhcurveto
          -55 -38 29 55 55 42 29 55 hvcurveto
          endchar
        </CharString>
        <CharString name="integral">
          -130 -235 80 790 80 hstemhm
          143 105 -62 105 hintmask 11100000
          248 544 rmoveto
          50 14 41 56 17 22 -4 -3 11 vhcurveto
          16 75 rlineto
          5 -16 -32 7 -20 hhcurveto
          -114 -59 -70 -101 hvcurveto
          -170 43 -298 -140 vvcurveto
          hintmask 11010000
          -50 -14 -41 -56 -17 -22 4 3 -11 vhcurveto
          -17 -75 rlineto
          -6 16 33 -6 20 hhcurveto
          114 59 70 101 hvcurveto
          170 -43 298 140 vvcurveto
          endchar
        </CharString>
        <CharString name="iogonek">
          -225 -197 64 129 67 404 69 4 -20 hstemhm
          -9 107 -2 145 hintmask 11100100
          96 163 rmoveto
          -184 -105 4 -91 vvcurveto
          hintmask 11101000
          -12 callgsubr
          hintmask 11100100
          68 -1 45 -3 0 vvcurveto
          3 65 -40 4 rlineto
          -2 11 -6 -70 callsubr
          46 4 rlineto
          hintmask 11010100
          50 callsubr
          hintmask 11100100
          -47 -23 -64 callgsubr
          hintmask 11010100
          5 callsubr
          hintmask 11100100
          1 -14 6 -33 -52 vvcurveto
          endchar
        </CharString>
        <CharString name="itilde">
          -23 callgsubr
          74 48 callsubr
          76 145 hintmask 11000100
          hintmask 10100100
          270 -34 callsubr
          hintmask 11000100
          -47 -23 -64 callgsubr
          hintmask 10100100
          5 callsubr
          hintmask 11010100
          -99 callsubr
          -28 66 callgsubr
          -18 vhcurveto
          -36 -71 38 -36 hhcurveto
          -37 -40 -105 0 hvcurveto
          hintmask 11001100
          47 -28 rlineto
          0 25 42 18 vhcurveto
          37 69 -38 37 hhcurveto
          37 39 101 0 hvcurveto
          endchar
        </CharString>
        <CharString name="j">
          -71 callgsubr
          endchar
        </CharString>
        <CharString name="j.sups">
          -347 760 11 51 108 hstemhm
          50 110 -99 100 hintmask 11010000
          5 727 27 callgsubr
          -194 vlineto
          -26 -50 -123 0 vhcurveto
          33 -18 rlineto
          0 117 120 26 vvcurveto
          195 13 callgsubr
          -31 -50 7 0 hvcurveto
          hintmask 11100000
          94 152 rmoveto
          -35 -20 -23 -31 -32 20 -22 35 35 20 22 32 33 -21 21 -34 hvcurveto
          endchar
        </CharString>
        <CharString name="jcircumflex">
          -71 callgsubr
          -78 300 rmoveto
          -84 callgsubr
          endchar
        </CharString>
        <CharString name="k">
          -77 callsubr
        </CharString>
        <CharString name="k.sups">
          -146 18 callsubr
          247 46 159 11 hstemhm
          67 100 49 190 hintmask 10011100
          11 6 callgsubr
          -5 -36 -1 -8 vhcurveto
          hintmask 01011100
          -42 -7 rlineto
          hintmask 10011100
          44 callgsubr
          30 47 callsubr
          hintmask 00111100
          3 51 rlineto
          hintmask 10011100
          75 callgsubr
          229 vlineto
          33 4 60 3 29 73 callgsubr
          8 0 hvcurveto
          234 -227 rmoveto
          -77 -100 52 -101 11 -26 10 -4 23 -41 rlineto
          64 hlineto
          35 37 -3 0 hvcurveto
          hintmask 00111100
          4 51 rlineto
          hintmask 10011110
          -39 4 -20 23 -27 28 -4 7 rlinecurve
          -41 72 42 56 8 11 24 13 20 12 rlinecurve
          32 2 2 48 rlineto
          0 -54 -3 -21 -53 -61 4 0 vhcurveto
          -4 -49 rlineto
          endchar
        </CharString>
        <CharString name="kcommaaccent">
          46 74 callgsubr
          92 145 26 130 -34 219 -210 243 hintmask 11010010
          613 61 rmoveto
          -28 4 -13 13 -15 13 -5 7 rlinecurve
          -51 61 -53 61 -52 61 rrcurveto
          hintmask 11010100
          98 134 13 15 17 16 19 19 rlinecurve
          37 4 rlineto
          hintmask 10110100
          -4 71 rlineto
          0 -46 -4 -98 vhcurveto
          hintmask 11010100
          -48 -23 -64 callgsubr
          hintmask 10110100
          15 -3 -17 -32 -117 -171 rlineto
          0 93 -125 17 -18 vhcurveto
          41 -64 rlineto
          hintmask 10110010
          -22 -3 3 -62 rlineto
          0 12 4 48 99 81 -4 0 vhcurveto
          -327 544 rmoveto
          0 -70 -4 -100 -48 -17 4 0 vhcurveto
          -4 -66 rlineto
          hintmask 11010010
          41 -9 rlineto
          -4 callgsubr
          hintmask 10110010
          -24 callgsubr
          -6 -46 -1 -7 vhcurveto
          -42 -31 callsubr
          0 17 4 48 99 66 -39 callgsubr
          -35 4 rlineto
          -1 11 -7 -70 callsubr
          43 4 rlineto
          -25 -595 rmoveto
          hintmask 11010010
          -9 callsubr
          -31 callgsubr
          hintmask 11011000
          0 61 83 57 vvcurveto
          48 -24 28 -42 -31 -33 -22 -46 vhcurveto
          endchar
        </CharString>
        <CharString name="kgreenlandic">
          -77 callsubr
        </CharString>
        <CharString name="l">
          -106 0 79 388 69 4 -20 hstemhm
          92 38 callsubr
          287 -46 callgsubr
          endchar
        </CharString>
        <CharString name="l.sups">
          -333 18 callsubr
          452 11 hstemhm
          67 100 hintmask 10011000
          11 6 callgsubr
          -5 -36 -1 -8 vhcurveto
          hintmask 01011000
          -42 -7 rlineto
          hintmask 10011000
          44 callgsubr
          30 47 callsubr
          hintmask 00111000
          3 51 rlineto
          hintmask 10011000
          75 callgsubr
          229 46 callgsubr
        </CharString>
        <CharString name="lacute">
          -106 0 79 388 69 4 -20 hstemhm
          89 38 callsubr
          284 -46 callgsubr
          -37 286 rmoveto
          -80 callgsubr
          endchar
        </CharString>
        <CharString name="lcaron">
          -106 0 79 148 241 -1 83 callsubr
          104 84 hintmask 10101100
          hintmask 11011100
          323 469 rmoveto
          0 18 -127 1 -19 vhcurveto
          -1 -93 78 85 callgsubr
          -145 71 rmoveto
          0 -72 0 callsubr
          hintmask 10101100
          -47 -24 -64 callgsubr
          hintmask 10011100
          5 callsubr
          hintmask 10101100
          -91 callsubr
          endchar
        </CharString>
        <CharString name="lcommaaccent">
          -106 0 79 388 83 callsubr
          -43 130 51 callsubr
          287 -46 callgsubr
          -97 -595 rmoveto
          -9 callsubr
          hintmask 11001000
          -84 callsubr
          endchar
        </CharString>
        <CharString name="ldot">
          -106 0 79 163 169 56 83 callsubr
          41 158 hintmask 11101100
          357 411 -25 callgsubr
          hintmask 11011100
          -70 129 rmoveto
          0 -72 0 callsubr
          hintmask 11101100
          -47 -24 -64 callgsubr
          hintmask 11011100
          5 callsubr
          hintmask 11101100
          -91 callsubr
          endchar
        </CharString>
        <CharString name="less">
          -81 -15 528 hstem
          40 361 vstem
          336 -15 rmoveto
          65 75 -215 189 215 189 -65 75 -296 -264 rlineto
          endchar
        </CharString>
        <CharString name="lessequal">
          19 0 93 404 69 callsubr
          -252 258 rmoveto
          202 143 -62 83 -311 -226 311 -226 62 83 rlineto
          endchar
        </CharString>
        <CharString name="logicalnot">
          23 209 99 hstem
          425 95 vstem
          65 308 rmoveto
          -101 vlineto
          361 4 -2 -146 rlineto
          96 243 hlineto
          endchar
        </CharString>
        <CharString name="lozenge">
          42 2 568 hstem
          40 524 vstem
          302 570 rmoveto
          -262 -286 262 -282 262 282 rlineto
          -262 -146 rmoveto
          -135 147 135 148 135 -148 rlineto
          endchar
        </CharString>
        <CharString name="lslash">
          -106 0 79 388 69 4 -20 hstemhm
          92 38 callsubr
          287 -34 callsubr
          hintmask 11010000
          -47 -24 -64 callgsubr
          hintmask 10110000
          5 callsubr
          hintmask 11010000
          -4 callgsubr
          -88 vlineto
          -90 -32 20 -53 70 25 rlineto
          -83 vlineto
          -44 callsubr
          vhcurveto
          217 72 callgsubr
          -2 -13 -3 -15 -3 -11 rlinecurve
          -1 -5 -6 -14 -7 -17 rrcurveto
          -3 -13 -21 -2 -21 hhcurveto
          -63 hlineto
          -3 18 -4 28 33 vvcurveto
          112 vlineto
          135 49 -19 54 -116 -42 rlineto
          83 -67 callgsubr
          endchar
        </CharString>
        <CharString name="m">
          222 0 60 461 14 -14 15 4 -20 hstemhm
          38 160 364 181 hintmask 11001100
          hintmask 10101100
          512 536 rmoveto
          hintmask 11001100
          -15 -15 rlineto
          0 -21 -81 -6 -18 vhcurveto
          -76 -235 -68 221 rlineto
          -10 33 -19 80 0 vvcurveto
          -16 14 rlineto
          -143 hlineto
          hintmask 10011100
          -42 1 -26 4 0 vvcurveto
          -4 -63 5 callsubr
          3 -15 3 -14 -7 vvcurveto
          -23 -332 -2 -8 -2 -15 -5 -15 rlinecurve
          -48 -8 3 -58 rlineto
          0 34 4 42 95 33 -4 0 vhcurveto
          5 62 -48 4 rlineto
          -2 20 0 27 14 vvcurveto
          12 243 122 -366 rlineto
          93 hlineto
          128 366 8 -243 rlineto
          -14 -1 -26 -2 -21 vhcurveto
          -47 -8 4 -58 rlineto
          0 31 4 42 94 58 -4 0 vhcurveto
          4 62 -46 4 -4 15 -4 15 -1 8 rlinecurve
          -24 332 rlineto
          9 1 12 1 16 vhcurveto
          43 10 -3 61 rlineto
          0 -64 -4 -28 vhcurveto
          endchar
        </CharString>
        <CharString name="m.sups">
          54 450 48 -48 52 -7 7 205 70 -64 -20 23 55 -51 -20 hstemhm
          69 100 96 100 96 100 cntrmask 0000000111000000
          hintmask 0100001111000000
          hintmask 0101000111000000
          259 777 rmoveto
          hintmask 0100100111000000
          -47 -32 -25 -39 -26 hvcurveto
          hintmask 0100010111000000
          -7 47 -14 13 -33 -2 rlineto
          -31 -50 71 callsubr
          -98 vlineto
          -13 -6 -45 0 vhcurveto
          hintmask 0010001111000000
          -42 -7 rlineto
          hintmask 0100001111000000
          3 -48 rlineto
          0 30 3 35 78 46 10 callgsubr
          36 vlineto
          -1 8 1 -2 rlineto
          58 29 28 27 27 13 -21 -29 vhcurveto
          74 callsubr
          hintmask 0010001111000000
          -35 -7 rlineto
          hintmask 0100001111000000
          44 callgsubr
          20 3 35 79 45 10 callgsubr
          50 vlineto
          52 2 28 26 26 hhcurveto
          27 13 -21 -29 hvcurveto
          74 callsubr
          hintmask 0010001111000000
          -35 -7 rlineto
          hintmask 0100001111000000
          44 callgsubr
          20 3 35 79 45 10 callgsubr
          89 vlineto
          72 -40 37 -65 vhcurveto
          hintmask 0100001111000000
          -45 -31 -22 -35 -25 hvcurveto
          hintmask 0101000111000000
          38 -15 -34 19 -47 hhcurveto
          endchar
        </CharString>
        <CharString name="macron">
          596 73 hstem
          19 322 vstem
          334 596 rmoveto
          -13 callgsubr
        </CharString>
        <CharString name="macron.cap">
          576 73 hstem
          19 322 vstem
          334 576 rmoveto
          -13 callgsubr
        </CharString>
        <CharString name="minus">
          19 205 103 hstem
          63 455 vstem
          518 208 rmoveto
          101 -455 -106 vlineto
          endchar
        </CharString>
        <CharString name="mu">
          29 -4 100 379 19 hstem
          55 140 173 139 vstem
          570 55 rmoveto
          -60 30 -3 -5 87 vvcurveto
          138 vlineto
          1 55 10 115 0 vvcurveto
          -21 19 rlineto
          -134 hlineto
          0 4 -121 1 -38 vhcurveto
          -108 vlineto
          -85 -3 -48 -46 -48 hhcurveto
          -52 -22 40 52 hvcurveto
          107 vlineto
          50 10 130 0 vhcurveto
          -21 19 rlineto
          -134 hlineto
          0 5 -149 -20 vvcurveto
          -364 vlineto
          -50 -15 -110 0 vhcurveto
          21 -19 rlineto
          139 hlineto
          -5 149 rlineto
          80 vlineto
          -10 19 24 -5 31 hhcurveto
          58 41 25 41 29 hvcurveto
          28 -70 42 2 84 -9 rrcurveto
          endchar
        </CharString>
        <CharString name="multiply">
          -6 24 436 hstem
          60 436 vstem
          277 312 rmoveto
          -149 147 -68 -69 148 -148 -147 -150 69 -68 148 148 147 -146 71 72 -148 145 146 146 -72 71 rlineto
          endchar
        </CharString>
        <CharString name="n">
          80 52 callsubr
          15 51 callgsubr
          hintmask 11011000
          4 callgsubr
          hintmask 10111000
          -84 5 rlineto
          hintmask 11011000
          -45 callsubr
          hintmask 10111000
          17 callsubr
          hintmask 11011000
          -88 callgsubr
          endchar
        </CharString>
        <CharString name="n.sups">
          -131 18 callsubr
          229 70 -65 -20 24 55 hstemhm
          69 100 106 100 hintmask 10001011
          hintmask 10000111
          13 727 27 callgsubr
          -98 vlineto
          -13 -6 -45 0 vhcurveto
          hintmask 01001011
          -42 -7 rlineto
          hintmask 10001011
          77 callsubr
          hintmask 00101011
          3 51 rlineto
          hintmask 10010011
          -41 0 callgsubr
          36 vlineto
          -1 8 1 -2 rlineto
          58 32 28 29 31 14 -21 -29 vhcurveto
          -98 vlineto
          -4 -1 -28 -1 -25 vhcurveto
          hintmask 01001011
          -36 -7 rlineto
          hintmask 10001011
          4 -48 rlineto
          0 20 3 34 79 46 -3 0 vhcurveto
          hintmask 00101011
          3 51 rlineto
          hintmask 10010011
          -41 4 rlineto
          0 -7 44 33 vvcurveto
          89 vlineto
          72 -41 37 -69 vhcurveto
          hintmask 10001011
          -50 -34 -25 -40 -27 hvcurveto
          hintmask 10000111
          -7 48 55 callsubr
          endchar
        </CharString>
        <CharString name="nacute">
          80 52 callsubr
          15 51 callgsubr
          hintmask 11011000
          4 callgsubr
          hintmask 10111000
          -84 5 rlineto
          hintmask 11011000
          -45 callsubr
          hintmask 10111000
          17 callsubr
          hintmask 11011000
          -88 callgsubr
          -203 289 rmoveto
          -80 callgsubr
          endchar
        </CharString>
        <CharString name="nbspace">
          -383 endchar
        </CharString>
        <CharString name="ncaron">
          80 52 callsubr
          15 171 -20 51 callgsubr
          hintmask 11011100
          4 callgsubr
          hintmask 10111100
          -84 5 rlineto
          hintmask 11011100
          -45 callsubr
          hintmask 10111100
          17 callsubr
          hintmask 11011100
          -88 callgsubr
          -446 299 rmoveto
          -80 callsubr
          endchar
        </CharString>
        <CharString name="ncommaaccent">
          80 52 callsubr
          15 hstemhm
          92 122 60 130 45 121 hintmask 11010100
          4 callgsubr
          hintmask 10110100
          -84 5 rlineto
          hintmask 11010100
          -45 callsubr
          hintmask 10110100
          17 callsubr
          hintmask 11011100
          -88 callgsubr
          -347 -592 rmoveto
          -9 callsubr
          -84 callsubr
          endchar
        </CharString>
        <CharString name="nine">
          -10 238 61 callgsubr
          238 -27 callsubr
        </CharString>
        <CharString name="nine.dnom">
          -158 158 60 callsubr
          158 -24 callsubr
        </CharString>
        <CharString name="nine.numr">
          -186 453 69 callgsubr
          453 -22 callgsubr
        </CharString>
        <CharString name="nine.osf">
          -10 125 61 callgsubr
          125 -27 callsubr
        </CharString>
        <CharString name="nine.sinf">
          -158 58 60 callsubr
          58 -24 callsubr
        </CharString>
        <CharString name="nine.sups">
          -186 603 69 callgsubr
          603 -22 callgsubr
        </CharString>
        <CharString name="nine.tf">
          -52 238 79 253 92 hstem
          24 159 153 158 vstem
          220 238 rmoveto
          29 22 5 5 13 hvcurveto
          -5 72 rlineto
          -1 -1 -17 -2 -11 hhcurveto
          -41 -26 55 70 62 15 66 58 57 23 -79 -84 -164 -54 -207 -237 -67 hvcurveto
          22 -74 rlineto
          289 53 138 248 211 vvcurveto
          149 -84 106 -155 -128 -103 -98 -123 -129 72 -74 124 vhcurveto
          endchar
        </CharString>
        <CharString name="nine.tosf">
          -52 125 79 253 92 hstem
          23 159 153 159 vstem
          219 125 rmoveto
          30 21 5 5 13 hvcurveto
          -5 72 rlineto
          -1 -2 -16 -2 -10 hhcurveto
          -42 -26 55 70 62 16 66 57 57 23 -79 -84 -164 -53 -207 -237 -67 hvcurveto
          21 -74 rlineto
          289 53 139 248 211 vvcurveto
          149 -85 106 -155 -127 -104 -98 -123 -129 73 -74 123 vhcurveto
          endchar
        </CharString>
        <CharString name="notequal">
          33 101 102 86 105 104 -20 hstem
          70 455 vstem
          221 -19 rmoveto
          55 119 249 3 rlineto
          101 -201 vlineto
          41 87 160 2 rlineto
          101 -112 vlineto
          48 104 -92 16 -56 -120 rlineto
          -243 -106 hlineto
          195 2 -40 -86 rlineto
          -155 -106 hlineto
          106 1 -47 -102 rlineto
          endchar
        </CharString>
        <CharString name="ntilde">
          80 52 callsubr
          15 58 91 -53 91 51 callgsubr
          hintmask 11010110
          4 callgsubr
          hintmask 10110110
          -84 5 rlineto
          hintmask 11010110
          -45 callsubr
          hintmask 10110110
          17 callsubr
          hintmask 11010110
          -88 callgsubr
          -167 257 33 callsubr
          -42 -81 38 -42 hhcurveto
          hintmask 11001110
          -53 callsubr
          43 79 -38 43 hhcurveto
          hintmask 11010110
          43 45 101 0 hvcurveto
          endchar
        </CharString>
        <CharString name="numbersign">
          8 140 86 -86 90 97 90 -86 86 hstemhm
          32 515 hintmask 01011000
          406 230 rmoveto
          16 101 125 1 rlineto
          86 -111 vlineto
          23 144 -80 10 -24 -154 rlineto
          -91 hlineto
          23 144 -80 10 rlineto
          hintmask 10101000
          -25 -154 rlineto
          -130 -91 hlineto
          116 1 -16 -101 -120 -1 rlineto
          -86 107 vlineto
          -23 -145 80 -10 rlineto
          hintmask 01011000
          24 155 rlineto
          91 hlineto
          -23 -145 80 -10 24 155 rlineto
          135 91 hlineto
          -277 98 rmoveto
          91 1 -16 -101 -91 -1 rlineto
          endchar
        </CharString>
        <CharString name="o">
          65 callsubr
          2 callsubr
          -101 callgsubr
          endchar
        </CharString>
        <CharString name="o.sups">
          -22 callsubr
        </CharString>
        <CharString name="oacute">
          65 callsubr
          2 callsubr
          -101 callgsubr
          214 487 rmoveto
          -80 callgsubr
          endchar
        </CharString>
        <CharString name="obreve">
          65 callsubr
          22 76 hstemhm
          19 168 -37 80 callgsubr
          -34 168 hintmask 11010010
          -101 callgsubr
          hintmask 11101100
          205 461 -58 callgsubr
        </CharString>
        <CharString name="ocircumflex">
          65 callsubr
          2 callsubr
          -101 callgsubr
          117 497 rmoveto
          -84 callgsubr
          endchar
        </CharString>
        <CharString name="odieresis">
          65 callsubr
          34 139 hstemhm
          19 168 -69 30 callgsubr
          -66 168 hintmask 11110010
          -101 callgsubr
          hintmask 11101100
          -1 457 -92 callgsubr
        </CharString>
        <CharString name="oe">
          229 -16 92 -76 79 155 71 7 46 102 92 -89 73 7 -20 hstemhm
          19 168 254 133 80 56 12 58 -40 54 hintmask 0110010111000000
          hintmask 0110010111010000
          800 155 rmoveto
          -60 4 -1 -13 -3 -15 -4 -11 rlinecurve
          -2 -8 -4 -12 -7 -16 rrcurveto
          -3 -15 -19 -2 -22 hhcurveto
          -88 hlineto
          -1 15 0 36 28 vvcurveto
          76 vlineto
          hintmask 0110010111000000
          34 hlineto
          16 27 -5 0 hvcurveto
          7 -43 56 5 rlineto
          hintmask 0101010111000000
          0 -3 66 38 vvcurveto
          15 1 46 0 vhcurveto
          -54 4 -7 -48 rlineto
          hintmask 0110010111000000
          7 callgsubr
          -50 109 hlineto
          3 2 40 6 vvcurveto
          hintmask 0110010111100000
          76 hlineto
          hintmask 0110100111100000
          24 22 -1 -2 14 hvcurveto
          2 -4 1 -8 1 -2 3 -11 1 -24 2 -12 61 4 rcurveline
          hintmask 0110001111100000
          -5 127 -15 13 rlineto
          0 -72 -7 -16 vhcurveto
          hintmask 0110010111000000
          -224 hlineto
          -19 -16 1 1 -14 hvcurveto
          10 -29 -33 4 -35 hhcurveto
          hintmask 1010100111000000
          -167 -119 -109 -175 -175 119 -109 167 35 33 4 10 30 hvcurveto
          11 12 1 1 25 hvcurveto
          hintmask 0110010111010000
          235 hlineto
          16 72 -3 0 hvcurveto
          15 14 rlineto
          -348 175 rmoveto
          -67 -25 -21 -43 -90 hhcurveto
          hintmask 1010100111000000
          -80 -38 45 147 147 38 45 80 91 8 -29 -48 37 hvcurveto
          endchar
        </CharString>
        <CharString name="ogonek">
          -197 64 hstem
          135 107 vstem
          219 6 rmoveto
          -39 -26 -45 -32 -56 vvcurveto
          32 callgsubr
          21 28 44 28 hvcurveto
          endchar
        </CharString>
        <CharString name="ograve">
          65 callsubr
          2 callsubr
          -101 callgsubr
          227 355 rmoveto
          -56 callsubr
        </CharString>
        <CharString name="ohungarumlaut">
          65 callsubr
          2 callsubr
          -101 callgsubr
          343 494 -32 callgsubr
        </CharString>
        <CharString name="omacron">
          65 callsubr
          44 73 2 callsubr
          -101 callgsubr
          271 328 rmoveto
          -13 callgsubr
        </CharString>
        <CharString name="one">
          -136 0 77 hstem
          176 145 vstem
          409 71 rmoveto
          -78 23 callgsubr
          -121 -92 0 vvcurveto
          37 -62 103 39 rlineto
          -321 52 callgsubr
          -89 -12 5 -70 rlineto
          0 83 5 46 114 77 -5 0 vhcurveto
          endchar
        </CharString>
        <CharString name="one.dnom">
          -243 0 52 hstem
          133 107 vstem
          301 50 -20 callgsubr
        </CharString>
        <CharString name="one.numr">
          -268 300 50 hstem
          122 103 vstem
          283 348 rmoveto
          -63 callsubr
          -59 -7 44 callgsubr
          52 3 34 79 54 -3 0 vhcurveto
          endchar
        </CharString>
        <CharString name="one.osf">
          -130 91 callgsubr
          139 155 hintmask 11001000
          hintmask 10101000
          424 -45 callgsubr
        </CharString>
        <CharString name="one.sinf">
          -243 -100 52 hstem
          133 107 vstem
          301 -50 -20 callgsubr
        </CharString>
        <CharString name="one.sups">
          -268 18 callsubr
          hstemhm
          122 103 hintmask 10010000
          hintmask 00110000
          283 498 rmoveto
          hintmask 10010000
          -63 callsubr
          hintmask 01010000
          -59 -7 rlineto
          hintmask 10010000
          44 callgsubr
          52 3 34 79 54 -3 0 vhcurveto
          endchar
        </CharString>
        <CharString name="one.tf">
          -52 0 77 hstem
          214 145 vstem
          457 71 rmoveto
          -88 23 callgsubr
          -141 -102 0 vvcurveto
          37 -62 123 49 rlineto
          -321 52 callgsubr
          -99 -12 5 -70 rlineto
          0 93 5 46 114 87 -5 0 vhcurveto
          endchar
        </CharString>
        <CharString name="one.tosf">
          -52 91 callgsubr
          178 155 hintmask 11001000
          hintmask 10101000
          463 -45 callgsubr
        </CharString>
        <CharString name="onedotenleader">
          -314 -15 169 hstem
          45 158 vstem
          124 154 -25 callgsubr
          endchar
        </CharString>
        <CharString name="onehalf">
          343 0 83 217 50 23 71 276 -20 hstemhm
          122 103 318 60 123 119 -38 57 hintmask 11011110
          283 348 rmoveto
          -63 callsubr
          -59 -7 44 callgsubr
          52 3 34 79 54 -3 0 vhcurveto
          303 423 -6 callgsubr
          hintmask 11111110
          30 -231 rmoveto
          -48 -47 -8 -16 -46 11 callsubr
          6 4 13 vhcurveto
          10 20 20 6 19 hhcurveto
          35 24 -18 -37 -60 -46 -57 -155 -131 hvcurveto
          10 -70 rlineto
          hintmask 11011101
          231 -35 callsubr
          0 -44 -7 -18 vhcurveto
          -76 hlineto
          hintmask 11011110
          145 118 44 60 66 vvcurveto
          hintmask 11111110
          74 -58 43 -105 vhcurveto
          endchar
        </CharString>
        <CharString name="onequarter">
          294 0 51 69 65 115 50 145 -20 245 -20 hstem
          122 103 430 104 vstem
          283 348 rmoveto
          -63 callsubr
          -59 -7 44 callgsubr
          52 3 34 79 54 -3 0 vhcurveto
          303 423 -6 callgsubr
          53 -180 -78 callsubr
        </CharString>
        <CharString name="ordfeminine">
          -61 callsubr
        </CharString>
        <CharString name="ordmasculine">
          -22 callsubr
        </CharString>
        <CharString name="oslash">
          41 31 callgsubr
          hstem
          21 27 callsubr
          vstem
          594 268 -52 callgsubr
        </CharString>
        <CharString name="oslashacute">
          65 callsubr
          hstem
          21 27 callsubr
          vstem
          391 755 rmoveto
          -80 callgsubr
          156 -411 -52 callgsubr
        </CharString>
        <CharString name="otilde">
          65 callsubr
          42 48 callsubr
          19 27 callsubr
          hintmask 11101100
          -101 callgsubr
          245 455 33 callsubr
          hintmask 11011100
          -42 -81 -60 callsubr
          hintmask 11101100
          43 79 -55 callgsubr
        </CharString>
        <CharString name="p">
          -62 0 63 135 75 195 75 -7 -20 24 -20 5 callgsubr
          97 151 hintmask 11100110
          298 543 rmoveto
          -40 -72 -6 -1 -44 hvcurveto
          hintmask 11010110
          -27 hlineto
          -47 -24 -64 callgsubr
          hintmask 11001110
          5 callsubr
          2 -14 5 -33 -52 -7 callgsubr
          101 78 -39 callgsubr
          -50 -50 callgsubr
          40 29 vlineto
          113 106 66 110 106 -78 63 -109 hvcurveto
          -61 -129 rmoveto
          hintmask 11100110
          4 1 31 1 19 vhcurveto
          8 hlineto
          67 20 -27 -65 -62 -37 -39 -60 -2 hvcurveto
          endchar
        </CharString>
        <CharString name="p.sups">
          -161 301 46 96 67 187 80 -65 -20 24 55 hstemhm
          64 100 104 114 hintmask 11010110
          hintmask 11100110
          259 777 rmoveto
          hintmask 11010110
          -49 -31 -18 -47 -30 hvcurveto
          hintmask 11001110
          -7 48 -14 13 -34 -2 rlineto
          -36 -44 71 callsubr
          -247 vlineto
          -13 -7 -49 0 vhcurveto
          -31 -7 3 -44 rlineto
          0 33 3 33 79 43 -3 0 vhcurveto
          3 47 -49 4 rlineto
          0 -7 48 33 vvcurveto
          14 vlineto
          17 17 -1 16 hhcurveto
          109 59 61 111 hvcurveto
          hintmask 11100110
          103 -44 59 -79 vhcurveto
          -42 -80 rmoveto
          35 16 -29 -63 -69 -18 -26 -45 -11 -14 2 4 -16 hvcurveto
          100 vlineto
          54 3 18 27 32 hhcurveto
          endchar
        </CharString>
</ttFont>
